<?xml version="1.0" encoding="UTF-8" standalone="no"?>
<svg width="84px" height="13px" viewBox="0 0 84 13" version="1.1" xmlns="http://www.w3.org/2000/svg" xmlns:xlink="http://www.w3.org/1999/xlink">
    <!-- Generator: sketchtool 3.6.1 (26313) - http://www.bohemiancoding.com/sketch -->
    <title>Fork Us on</title>
    <desc>Created with sketchtool.</desc>
    <defs></defs>
    <g id="Gonebusy-Developer-Portal" stroke="none" stroke-width="1" fill="none" fill-rule="evenodd">
        <g id="Libraries-Desktop-HD-1440" transform="translate(-1049.000000, -431.000000)" fill="#666666">
            <g id="fork-us-on-GitHub" transform="translate(928.000000, 389.000000)">
                <path d="M129.424,42.816 L129.424,45.008 L124.24,45.008 L124.24,47.424 L129.168,47.424 L129.168,49.616 L124.24,49.616 L124.24,54 L121.744,54 L121.744,42.816 L129.424,42.816 Z M133.64,51.416 C134.040002,51.8586689 134.551997,52.08 135.176,52.08 C135.800003,52.08 136.311998,51.8586689 136.712,51.416 C137.112002,50.9733311 137.312,50.4000035 137.312,49.696 C137.312,48.9919965 137.112002,48.4160022 136.712,47.968 C136.311998,47.5199978 135.800003,47.296 135.176,47.296 C134.551997,47.296 134.040002,47.5199978 133.64,47.968 C133.239998,48.4160022 133.04,48.9919965 133.04,49.696 C133.04,50.4000035 133.239998,50.9733311 133.64,51.416 L133.64,51.416 Z M138.432,52.848 C137.567996,53.7013376 136.482673,54.128 135.176,54.128 C133.869327,54.128 132.784004,53.7013376 131.92,52.848 C131.055996,51.9946624 130.624,50.9440062 130.624,49.696 C130.624,48.4479938 131.055996,47.394671 131.92,46.536 C132.784004,45.677329 133.869327,45.248 135.176,45.248 C136.482673,45.248 137.567996,45.677329 138.432,46.536 C139.296004,47.394671 139.728,48.4479938 139.728,49.696 C139.728,50.9440062 139.296004,51.9946624 138.432,52.848 L138.432,52.848 Z M146.032,47.504 C145.31733,47.504 144.784002,47.7573308 144.432,48.264 C144.079998,48.7706692 143.904,49.4399958 143.904,50.272 L143.904,54 L141.504,54 L141.504,45.392 L143.904,45.392 L143.904,46.528 C144.213335,46.1759982 144.599998,45.8773346 145.064,45.632 C145.528002,45.3866654 145.999998,45.2586667 146.48,45.248 L146.496,47.504 L146.032,47.504 Z M150.48,54 L148.08,54 L148.08,42.128 L150.48,42.128 L150.48,48.224 L153.152,45.376 L156.176,45.376 L152.896,48.864 L156.304,54 L153.456,54 L151.264,50.704 L150.48,51.52 L150.48,54 Z M166.704,51.888 C167.408004,51.888 167.965331,51.6293359 168.376,51.112 C168.786669,50.5946641 168.992,49.8880045 168.992,48.992 L168.992,42.816 L171.488,42.816 L171.488,49.072 C171.488,50.6933414 171.040004,51.9386623 170.144,52.808 C169.247996,53.6773377 168.10134,54.112 166.704,54.112 C165.30666,54.112 164.157338,53.674671 163.256,52.8 C162.354662,51.925329 161.904,50.6826747 161.904,49.072 L161.904,42.816 L164.4,42.816 L164.4,48.992 C164.4,49.8880045 164.607998,50.5946641 165.024,51.112 C165.440002,51.6293359 165.999996,51.888 166.704,51.888 L166.704,51.888 Z M179.16,53.36 C178.535997,53.8720026 177.744005,54.128 176.784,54.128 C176.143997,54.128 175.477337,54.0133345 174.784,53.784 C174.090663,53.5546655 173.466669,53.2160022 172.912,52.768 L173.968,51.264 C174.864004,51.9573368 175.818662,52.304 176.832,52.304 C177.141335,52.304 177.386666,52.2426673 177.568,52.12 C177.749334,51.9973327 177.84,51.8346677 177.84,51.632 C177.84,51.4293323 177.714668,51.2426675 177.464,51.072 C177.213332,50.9013325 176.850669,50.7413341 176.376,50.592 C175.901331,50.4426659 175.538668,50.3146672 175.288,50.208 C175.037332,50.1013328 174.752002,49.9466677 174.432,49.744 C173.78133,49.3386646 173.456,48.7386706 173.456,47.944 C173.456,47.1493294 173.775997,46.5013358 174.416,46 C175.056003,45.4986642 175.882662,45.248 176.896,45.248 C177.909338,45.248 178.922662,45.5893299 179.936,46.272 L179.04,47.872 C178.29333,47.3599974 177.549337,47.104 176.808,47.104 C176.066663,47.104 175.696,47.3066646 175.696,47.712 C175.696,47.9360011 175.813332,48.1119994 176.048,48.24 C176.282668,48.3680006 176.671997,48.5173325 177.216,48.688 C177.760003,48.8586675 178.146666,48.9893329 178.376,49.08 C178.605334,49.1706671 178.879998,49.311999 179.2,49.504 C179.797336,49.8666685 180.096,50.4719958 180.096,51.32 C180.096,52.1680042 179.784003,52.8479974 179.16,53.36 L179.16,53.36 Z M188.68,51.416 C189.080002,51.8586689 189.591997,52.08 190.216,52.08 C190.840003,52.08 191.351998,51.8586689 191.752,51.416 C192.152002,50.9733311 192.352,50.4000035 192.352,49.696 C192.352,48.9919965 192.152002,48.4160022 191.752,47.968 C191.351998,47.5199978 190.840003,47.296 190.216,47.296 C189.591997,47.296 189.080002,47.5199978 188.68,47.968 C188.279998,48.4160022 188.08,48.9919965 188.08,49.696 C188.08,50.4000035 188.279998,50.9733311 188.68,51.416 L188.68,51.416 Z M193.472,52.848 C192.607996,53.7013376 191.522673,54.128 190.216,54.128 C188.909327,54.128 187.824004,53.7013376 186.96,52.848 C186.095996,51.9946624 185.664,50.9440062 185.664,49.696 C185.664,48.4479938 186.095996,47.394671 186.96,46.536 C187.824004,45.677329 188.909327,45.248 190.216,45.248 C191.522673,45.248 192.607996,45.677329 193.472,46.536 C194.336004,47.394671 194.768,48.4479938 194.768,49.696 C194.768,50.9440062 194.336004,51.9946624 193.472,52.848 L193.472,52.848 Z M198.944,49.2 L198.944,54 L196.544,54 L196.544,45.392 L198.944,45.392 L198.944,46.352 C199.669337,45.6159963 200.485329,45.248 201.392,45.248 C202.298671,45.248 203.058664,45.5679968 203.672,46.208 C204.285336,46.8480032 204.592,47.701328 204.592,48.768 L204.592,54 L202.192,54 L202.192,49.136 C202.192,47.8133267 201.706672,47.152 200.736,47.152 C200.255998,47.152 199.837335,47.3253316 199.48,47.672 C199.122665,48.0186684 198.944,48.5279966 198.944,49.2 L198.944,49.2 Z" id="Fork-Us-on"></path>
            </g>
        </g>
    </g>
</svg>