<?xml version="1.0" encoding="UTF-8" standalone="no"?>
<svg width="48px" height="13px" viewBox="0 0 48 13" version="1.1" xmlns="http://www.w3.org/2000/svg" xmlns:xlink="http://www.w3.org/1999/xlink">
    <!-- Generator: sketchtool 3.6.1 (26313) - http://www.bohemiancoding.com/sketch -->
    <title>GitHub_Logo</title>
    <desc>Created with sketchtool.</desc>
    <defs></defs>
    <g id="Gonebusy-Developer-Portal" stroke="none" stroke-width="1" fill="none" fill-rule="evenodd">
        <g id="Libraries-Desktop-HD-1440" transform="translate(-1138.000000, -430.000000)" fill="#11110F">
            <g id="fork-us-on-GitHub" transform="translate(928.000000, 389.000000)">
                <g id="GitHub_Logo" transform="translate(210.000000, 41.000000)">
                    <path d="M9.1500876,5.51120231 L5.15794802,5.51120231 C5.0549691,5.51120231 4.9713791,5.59489124 4.9713791,5.69787016 L4.9713791,7.64972133 C4.9713791,7.75270025 5.0549691,7.8364881 5.15794802,7.8364881 L6.71529397,7.8364881 L6.71529397,10.2614883 C6.71529397,10.2614883 6.36560091,10.3806906 5.3988257,10.3806906 C4.25824266,10.3806906 2.6648887,9.96392773 2.6648887,6.46027029 C2.6648887,2.95582146 4.3240265,2.49474101 5.88166923,2.49474101 C7.22999073,2.49474101 7.81086702,2.73215639 8.18044363,2.84651146 C8.29657932,2.88212377 8.40400978,2.7664827 8.40400978,2.66340485 L8.84936146,0.777535364 C8.84936146,0.729359827 8.83303915,0.671291982 8.77803792,0.631821675 C8.62797162,0.524786909 7.71224072,0.0123653843 5.3988257,0.0123653843 C2.73373916,0.0123653843 0,1.14622166 0,6.59688305 C0,12.0477423 3.12992607,12.8599997 5.76741308,12.8599997 C7.95123886,12.8599997 9.27601668,11.9267594 9.27601668,11.9267594 C9.33062221,11.8965878 9.3365576,11.8203181 9.3365576,11.7852994 L9.3365576,5.69787016 C9.3365576,5.59489124 9.25306652,5.51120231 9.1500876,5.51120231" id="Fill-1"></path>
                    <path d="M29.7239107,0.665455521 C29.7239107,0.561586293 29.6416067,0.477798449 29.5386278,0.477798449 L27.2907988,0.477798449 C27.1881167,0.477798449 27.1046256,0.561586293 27.1046256,0.665455521 C27.1046256,0.665950136 27.1052191,5.00946448 27.1052191,5.00946448 L23.6014628,5.00946448 L23.6014628,0.665455521 C23.6014628,0.561586293 23.5187631,0.477798449 23.415982,0.477798449 L21.1682519,0.477798449 C21.0659654,0.477798449 20.9825733,0.561586293 20.9825733,0.665455521 L20.9825733,12.4277058 C20.9825733,12.5314761 21.0659654,12.6159564 21.1682519,12.6159564 L23.415982,12.6159564 C23.5187631,12.6159564 23.6014628,12.5314761 23.6014628,12.4277058 L23.6014628,7.39657719 L27.1052191,7.39657719 C27.1052191,7.39657719 27.0990859,12.4273101 27.0990859,12.4277058 C27.0990859,12.5314761 27.182478,12.6159564 27.2852591,12.6159564 L29.53843,12.6159564 C29.6414089,12.6159564 29.7237129,12.5314761 29.7239107,12.4277058 L29.7239107,0.665455521" id="Fill-2"></path>
                    <path d="M13.3918101,2.20895225 C13.3918101,1.39956365 12.7428747,0.745484288 11.9422903,0.745484288 C11.1424972,0.745484288 10.4930673,1.39956365 10.4930673,2.20895225 C10.4930673,3.01745053 11.1424972,3.67331052 11.9422903,3.67331052 C12.7428747,3.67331052 13.3918101,3.01745053 13.3918101,2.20895225" id="Fill-3"></path>
                    <path d="M13.2310601,9.94651727 L13.2310601,4.51702542 C13.2310601,4.41394757 13.1478658,4.32966512 13.0450847,4.32966512 L10.8043782,4.32966512 C10.7015971,4.32966512 10.6095986,4.43571065 10.6095986,4.53878849 L10.6095986,12.3176044 C10.6095986,12.5462157 10.7520479,12.6141758 10.9364405,12.6141758 L12.9552626,12.6141758 C13.1767513,12.6141758 13.2310601,12.5054594 13.2310601,12.3139443 L13.2310601,9.94651727" id="Fill-4"></path>
                    <path d="M38.2666107,4.34737235 L36.0359943,4.34737235 C35.9337078,4.34737235 35.8504146,4.4316548 35.8504146,4.53542511 L35.8504146,10.3028382 C35.8504146,10.3028382 35.2837832,10.7174248 34.4794397,10.7174248 C33.6751951,10.7174248 33.4617191,10.3524976 33.4617191,9.56497098 L33.4617191,4.53542511 C33.4617191,4.4316548 33.3786237,4.34737235 33.2762383,4.34737235 L31.0123838,4.34737235 C30.9101963,4.34737235 30.8265073,4.4316548 30.8265073,4.53542511 L30.8265073,9.94582481 C30.8265073,12.2849598 32.1302145,12.8572298 33.9236899,12.8572298 C35.3949727,12.8572298 36.5812583,12.0443789 36.5812583,12.0443789 C36.5812583,12.0443789 36.6377433,12.4727158 36.6632655,12.5235623 C36.6888866,12.5742109 36.7554618,12.6253541 36.8273789,12.6253541 L38.2675999,12.619023 C38.3697874,12.619023 38.4534764,12.5345427 38.4534764,12.4312671 L38.4527839,4.53542511 C38.4527839,4.4316548 38.3693917,4.34737235 38.2666107,4.34737235" id="Fill-5"></path>
                    <path d="M43.483319,10.7103023 C42.7096416,10.6867586 42.1848547,10.3356806 42.1848547,10.3356806 L42.1848547,6.61083121 C42.1848547,6.61083121 42.7026181,6.29348599 43.3378032,6.23670414 C44.1410585,6.16478707 44.9150326,6.40744537 44.9150326,8.32358532 C44.9150326,10.344188 44.5657353,10.7429469 43.483319,10.7103023 L43.483319,10.7103023 Z M44.3631408,4.08314881 C43.096233,4.08314881 42.2345141,4.64839526 42.2345141,4.64839526 L42.2345141,0.665455521 C42.2345141,0.561586293 42.1515176,0.477798449 42.0490333,0.477798449 L39.7948732,0.477798449 C39.6923889,0.477798449 39.6090957,0.561586293 39.6090957,0.665455521 L39.6090957,12.4277058 C39.6090957,12.5314761 39.6923889,12.6159564 39.79517,12.6159564 L41.3591438,12.6159564 C41.429577,12.6159564 41.4828966,12.5796517 41.522268,12.5160441 C41.5611447,12.4528323 41.6172341,11.9737478 41.6172341,11.9737478 C41.6172341,11.9737478 42.5389993,12.8472386 44.2839034,12.8472386 C46.3324025,12.8472386 47.5072129,11.8081506 47.5072129,8.18252101 C47.5072129,4.55689142 45.6309389,4.08314881 44.3631408,4.08314881 L44.3631408,4.08314881 Z" id="Fill-6"></path>
                    <path d="M19.6914293,4.32857696 L18.0052855,4.32857696 C18.0052855,4.32857696 18.0027135,2.10152179 18.0027135,2.10102717 C18.0027135,2.01674472 17.9592863,1.97460349 17.8618471,1.97460349 L15.5640619,1.97460349 C15.4747344,1.97460349 15.4267567,2.01387595 15.4267567,2.09974117 L15.4267567,4.40168111 C15.4267567,4.40168111 14.2752921,4.67965495 14.1974396,4.70211049 C14.1198839,4.72456603 14.0628053,4.79608741 14.0628053,4.8813591 L14.0628053,6.32791122 C14.0628053,6.43197829 14.1459007,6.51586506 14.2486818,6.51586506 L15.4267567,6.51586506 L15.4267567,9.99578096 C15.4267567,12.580542 17.2398188,12.8344775 18.4632994,12.8344775 C19.0223136,12.8344775 19.6910336,12.6549321 19.8014318,12.6141758 C19.8682049,12.5896429 19.9069827,12.5204957 19.9069827,12.445512 L19.9088622,10.8542354 C19.9088622,10.7504651 19.8212164,10.6664794 19.7224912,10.6664794 C19.6242606,10.6664794 19.372897,10.7064443 19.1141143,10.7064443 C18.2859303,10.7064443 18.0052855,10.3213368 18.0052855,9.82286343 C18.0052855,9.32478575 18.0051866,6.51586506 18.0051866,6.51586506 L19.6914293,6.51586506 C19.7942104,6.51586506 19.8774047,6.43197829 19.8774047,6.32791122 L19.8774047,4.51603619 C19.8774047,4.41226588 19.7942104,4.32857696 19.6914293,4.32857696" id="Fill-7"></path>
                </g>
            </g>
        </g>
    </g>
</svg>