<?xml version="1.0" encoding="UTF-8" standalone="no"?>
<svg width="196px" height="42px" viewBox="0 0 196 42" version="1.1" xmlns="http://www.w3.org/2000/svg" xmlns:xlink="http://www.w3.org/1999/xlink">
    <!-- Generator: sketchtool 3.6 (26304) - http://www.bohemiancoding.com/sketch -->
    <title>GoneBusyLogo</title>
    <desc>Created with sketchtool.</desc>
    <defs></defs>
    <g id="Gonebusy-Developer-Portal" stroke="none" stroke-width="1" fill="none" fill-rule="evenodd">
        <g id="Home-Desktop-HD-1440" transform="translate(-17.000000, -3.000000)">
            <g id="header" transform="translate(17.000000, 3.000000)">
                <g id="GoneBusyLogo">
                    <g id="Layer_1">
                        <g id="Group" transform="translate(26.239351, 0.000000)">
                            <path d="M4.81054767,11.3306288 L3.97565923,10.4559838 L14.0738337,0.636105477 C14.7496957,-0.0397565923 15.8628803,-0.159026369 16.6580122,0.357809331 L27.8296146,7.31521298 L27.1935091,8.34888438 L16.0219067,1.23245436 C15.703854,1.0336714 15.1472617,1.07342799 14.8689655,1.35172414 L4.81054767,11.3306288 L4.81054767,11.3306288 Z" id="Shape" fill="#32B77C"></path>
                            <path d="M35.7014199,35.4231237 C35.8206897,36.2580122 35.0653144,36.8543611 34.230426,36.9736308 L6.16227181,41.0288032 C5.32738337,41.148073 4.57200811,40.5914807 4.45273834,39.7565923 L0.357809331,11.6486815 C0.238539554,10.8137931 0.795131846,10.0584178 1.63002028,9.93914807 L29.737931,5.88397566 C30.5728195,5.76470588 31.3281947,6.32129817 31.4474645,7.15618661 L35.7014199,35.4231237 L35.7014199,35.4231237 Z" id="Shape" fill="#32B77C"></path>
                            <path d="M25.4442191,13.5172414 C30.9306288,17.6121704 32.08357,25.4442191 27.988641,30.9306288 C23.8539554,36.4170385 16.0219067,37.5699797 10.535497,33.4750507 C5.08884381,29.3801217 3.93590264,21.548073 8.03083164,16.0616633 C12.0860041,10.535497 19.9180527,9.38255578 25.4442191,13.5172414" id="Shape" fill="#FFFFFF"></path>
                            <g transform="translate(13.914807, 0.795132)" id="Shape">
                                <path d="M5.12860041,22.8997972 C5.08884381,23.5359026 4.49249493,23.9732252 3.89614604,23.9334686 C3.26004057,23.8539554 2.82271805,23.2973631 2.86247465,22.7010142 C2.94198783,22.0649087 3.49858012,21.6275862 4.09492901,21.6673428 C4.77079108,21.7070994 5.20811359,22.2636917 5.12860041,22.8997972 M6.48032454,22.3432049 L6.48032454,22.3432049 L5.6851927,13.159432 L5.6851927,13.159432 C5.6851927,12.7618661 5.40689655,12.4438134 5.00933063,12.4040568 C4.61176471,12.3643002 4.29371197,12.6425963 4.21419878,13.0004057 L1.70953347,21.9058824 L1.70953347,21.9058824 C1.63002028,22.1046653 1.59026369,22.3432049 1.5505071,22.5419878 C1.43123732,23.9334686 2.42515213,25.0864097 3.77687627,25.2056795 C5.168357,25.3249493 6.32129817,24.3310345 6.44056795,22.9793103 C6.52008114,22.7805274 6.52008114,22.5419878 6.48032454,22.3432049" fill="#0E679A"></path>
                                <path d="M3.45882353,25.1659229 L3.45882353,25.1659229 L8.62718053,26.1995943 C8.98498986,26.3586207 9.38255578,26.2393509 9.58133874,25.9212982 C9.7801217,25.6032454 9.66085193,25.1659229 9.34279919,24.96714 L9.34279919,24.96714 L5.84421907,21.0709939 L5.84421907,21.0709939 C5.6851927,20.9119675 5.52616633,20.7926978 5.32738337,20.673428 C4.1346856,19.9975659 2.66369168,20.3951318 1.94807302,21.5878296 C1.27221095,22.7805274 1.66977688,24.2515213 2.90223124,24.96714 C3.06125761,25.0068966 3.26004057,25.0864097 3.45882353,25.1659229" fill="#0E679A"></path>
                                <path d="M1.47099391,0.198782961 C2.22636917,0.119269777 2.90223124,0.636105477 2.98174442,1.35172414 C3.06125761,2.10709939 2.54442191,2.78296146 1.82880325,2.86247465 C1.07342799,2.94198783 0.397565923,2.42515213 0.318052738,1.70953347 C0.238539554,0.993914807 0.715618661,0.318052738 1.47099391,0.198782961" fill="#32B77C"></path>
                            </g>
                            <path d="M19.2421907,23.5756592 C19.2421907,24.2912779 18.6458418,24.8876268 17.9302231,24.8876268 C17.2146045,24.8876268 16.6182556,24.2912779 16.6182556,23.5756592 C16.6182556,22.8600406 17.2146045,22.2636917 17.9302231,22.2636917 C18.6855984,22.2239351 19.2421907,22.820284 19.2421907,23.5756592" id="Shape" fill="#FFFFFF"></path>
                        </g>
                        <g id="Group" transform="translate(0.000000, 11.131846)" fill="#32B77C">
                            <path d="M65.5586207,24.1720081 L65.5586207,0.914401623 L71.6016227,0.914401623 L82.6539554,15.1472617 L82.7334686,15.1472617 L82.7334686,0.914401623 L88.736714,0.914401623 L88.736714,24.1720081 L82.7334686,24.1720081 L71.6811359,9.89939148 L71.6016227,9.89939148 L71.6016227,24.1720081 L65.5586207,24.1720081 Z" id="Shape"></path>
                            <path d="M105.553753,6.04300203 L98.3578093,6.04300203 L98.3578093,9.89939148 L105.156187,9.89939148 L105.156187,15.0279919 L98.3578093,15.0279919 L98.3578093,19.0434077 L105.553753,19.0434077 L105.553753,24.1720081 L92.2750507,24.1720081 L92.2750507,0.914401623 L105.553753,0.914401623 L105.553753,6.04300203 Z" id="Shape"></path>
                            <path d="M118.156592,24.1720081 L108.85355,24.1720081 L108.85355,0.87464503 L117.48073,0.87464503 C122.092495,0.87464503 124.358621,2.86247465 124.358621,6.87789047 C124.358621,9.18377282 123.483976,10.7342799 121.814199,11.6089249 L121.814199,11.6884381 C124.994726,12.1257606 126.545233,14.0738337 126.545233,17.5724138 C126.545233,18.7651116 126.306694,19.7590264 125.829615,20.6336714 C125.352535,21.5083164 124.676673,22.1841785 123.921298,22.6612576 C123.08641,23.1383367 122.211765,23.496146 121.257606,23.7346856 C120.263692,24.0527383 119.269777,24.1720081 118.156592,24.1720081 L118.156592,24.1720081 Z M114.856795,5.56592292 L114.856795,10.0584178 L115.532657,10.0584178 C116.526572,10.0584178 117.281947,9.89939148 117.918053,9.58133874 C118.514402,9.263286 118.832454,8.66693712 118.832454,7.79229209 C118.832454,7.27545639 118.752941,6.83813387 118.554158,6.52008114 C118.355375,6.2020284 118.077079,5.96348884 117.679513,5.84421907 C117.281947,5.72494929 116.924138,5.60567951 116.566329,5.56592292 C116.248276,5.52616633 115.810953,5.48640974 115.294118,5.48640974 L114.856795,5.56592292 L114.856795,5.56592292 L114.856795,5.56592292 Z M114.856795,14.5509128 L114.856795,19.5602434 L115.651927,19.5602434 L116.685598,19.5602434 C116.844625,19.5602434 117.202434,19.5204868 117.71927,19.4807302 C118.236105,19.4409736 118.593915,19.3614604 118.832454,19.2421907 C119.070994,19.1229209 119.34929,19.0036511 119.667343,18.8048682 C119.985396,18.6458418 120.223935,18.4073022 120.343205,18.0892495 C120.462475,17.7711968 120.541988,17.4133874 120.541988,17.0158215 C120.541988,16.6977688 120.502231,16.4194726 120.462475,16.1809331 C120.382961,15.9423935 120.303448,15.703854 120.144422,15.5448276 C119.985396,15.3858012 119.866126,15.2267748 119.707099,15.1075051 C119.58783,14.9882353 119.389047,14.8689655 119.110751,14.7894523 C118.832454,14.7099391 118.633671,14.6701826 118.474645,14.5906694 C118.315619,14.5509128 118.077079,14.5111562 117.71927,14.4713996 C117.36146,14.431643 117.122921,14.431643 117.003651,14.431643 L116.248276,14.431643 L115.572414,14.431643 L114.856795,14.431643 L114.856795,14.5509128 L114.856795,14.5509128 L114.856795,14.5509128 Z" id="Shape"></path>
                            <path d="M142.964706,0.914401623 L148.967951,0.914401623 L148.967951,13.9545639 C148.967951,15.8231237 148.808925,17.4133874 148.530629,18.725355 C148.212576,20.0373225 147.536714,21.1505071 146.542799,22.1444219 C144.793509,23.893712 142.249087,24.7286004 138.83002,24.7286004 C135.45071,24.7286004 132.906288,23.8539554 131.117241,22.1444219 C130.08357,21.1107505 129.407708,19.9975659 129.129412,18.725355 C128.811359,17.4133874 128.692089,15.8628803 128.692089,13.9545639 L128.692089,0.914401623 L134.695335,0.914401623 L134.695335,13.159432 C134.695335,13.9148073 134.695335,14.5509128 134.735091,14.9882353 C134.774848,15.505071 134.854361,16.0616633 135.013387,16.6977688 C135.172414,17.3338742 135.371197,17.8109533 135.689249,18.2085193 C135.967546,18.5663286 136.365112,18.8843813 136.921704,19.1626775 C137.478296,19.4409736 138.114402,19.5602434 138.83002,19.5602434 C139.585396,19.5602434 140.221501,19.4409736 140.738337,19.1626775 C141.294929,18.8843813 141.692495,18.5663286 141.970791,18.2085193 C142.249087,17.8507099 142.487627,17.3338742 142.646653,16.6977688 C142.80568,16.0616633 142.885193,15.505071 142.924949,14.9882353 C142.964706,14.4713996 142.964706,13.8750507 142.964706,13.159432 L142.964706,0.914401623 L142.964706,0.914401623 L142.964706,0.914401623 Z" id="Shape"></path>
                            <path d="M167.017444,2.22636917 L164.632049,6.91764706 C163.359838,5.88397566 162.04787,5.36713996 160.656389,5.36713996 C160.020284,5.36713996 159.423935,5.52616633 158.907099,5.88397566 C158.350507,6.24178499 158.072211,6.7188641 158.072211,7.31521298 C158.072211,7.7525355 158.231237,8.11034483 158.589047,8.42839757 C158.946856,8.7464503 159.264909,8.98498986 159.543205,9.10425963 C159.861258,9.22352941 160.258824,9.38255578 160.775659,9.54158215 L162.326166,10.0186613 C164.115213,10.5752535 165.54645,11.3306288 166.540365,12.284787 C167.574037,13.2787018 168.090872,14.630426 168.090872,16.3399594 C168.090872,19.1626775 167.29574,21.2300203 165.705477,22.5817444 C163.956187,24.0527383 161.809331,24.768357 159.105882,24.768357 C156.163895,24.768357 153.500203,23.8539554 150.916024,22.1046653 L153.500203,17.2543611 C155.329006,18.8843813 157.078296,19.6397566 158.827586,19.6397566 C159.622718,19.6397566 160.29858,19.4409736 160.855172,19.0434077 C161.451521,18.6458418 161.729817,18.0494929 161.729817,17.2941176 C161.729817,16.2206897 160.735903,15.4255578 158.78783,14.8689655 C158.708316,14.8292089 158.469777,14.7894523 158.032454,14.630426 C156.91927,14.3123732 156.044625,14.0340771 155.408519,13.7557809 C154.772414,13.4774848 154.096552,13.1196755 153.500203,12.6028398 C152.864097,12.1257606 152.387018,11.4896552 152.108722,10.7740365 C151.830426,10.0186613 151.711156,9.10425963 151.711156,8.03083164 C151.711156,5.6851927 152.466531,3.81663286 153.937525,2.38539554 C155.448276,0.954158215 157.316836,0.238539554 159.662475,0.238539554 C160.855172,0.238539554 162.087627,0.397565923 163.399594,0.755375254 C164.830832,1.19269777 166.023529,1.66977688 167.017444,2.22636917" id="Shape"></path>
                            <path d="M176.28073,13.0004057 L167.733063,0.914401623 L174.968763,0.914401623 L179.341988,7.2356998 L183.675456,0.914401623 L190.911156,0.914401623 L182.323732,13.0004057 L182.323732,24.1720081 L176.28073,24.1720081 L176.28073,13.0004057 Z" id="Shape"></path>
                            <path d="M19.4409736,11.1716024 L13.0401623,11.1716024 L13.0401623,15.9423935 L17.7711968,15.9423935 C17.651927,17.2543611 16.9363083,18.2482759 16.0616633,18.9241379 C15.1472617,19.6397566 13.6762677,19.9975659 12.3245436,19.9975659 C10.4559838,19.9975659 8.94523327,19.5602434 7.7127789,18.1687627 C6.48032454,16.6977688 5.96348884,15.1075051 5.96348884,12.9208925 C5.96348884,10.6945233 6.44056795,9.3030426 7.59350913,7.7127789 C8.7464503,6.12251521 10.6150101,5.44665314 12.48357,5.44665314 C13.6762677,5.44665314 15.1075051,5.76470588 15.9423935,6.44056795 C16.7772819,7.11643002 17.4929006,8.03083164 17.8904665,9.14401623 L23.2576065,6.79837728 C22.2636917,4.77079108 20.9914807,3.29979716 19.2421907,2.10709939 C17.453144,0.914401623 15.306288,0.119269777 12.7618661,0.119269777 C8.94523327,0.119269777 5.76470588,1.27221095 3.45882353,3.53833671 C1.15294118,5.88397566 0,8.86572008 0,12.6425963 C0,16.2604462 1.15294118,19.2024341 3.41906694,21.4685598 C5.72494929,23.7346856 8.54766734,24.8478702 12.2450304,24.8478702 C15.2267748,24.8478702 17.5326572,23.9334686 19.4807302,22.1841785 L19.4807302,24.6490872 L23.694929,24.6490872 L23.694929,11.1716024 L19.4409736,11.1716024 L19.4409736,11.1716024 Z" id="Shape"></path>
                        </g>
                        <g id="Group" transform="translate(25.841785, 0.000000)">
                            <path d="M4.81054767,11.3306288 L3.97565923,10.4559838 L14.0738337,0.636105477 C14.7496957,-0.0397565923 15.8628803,-0.159026369 16.6580122,0.357809331 L27.8296146,7.31521298 L27.1935091,8.34888438 L15.9821501,1.23245436 C15.6640974,1.0336714 15.1075051,1.07342799 14.8292089,1.35172414 L4.81054767,11.3306288 L4.81054767,11.3306288 Z" id="Shape" fill="#32B77C"></path>
                            <path d="M35.7014199,35.4231237 C35.8206897,36.2580122 35.0653144,36.8543611 34.230426,36.9736308 L6.16227181,41.0288032 C5.32738337,41.148073 4.57200811,40.5914807 4.45273834,39.7565923 L0.357809331,11.6486815 C0.238539554,10.8137931 0.795131846,10.0584178 1.63002028,9.93914807 L29.737931,5.88397566 C30.5728195,5.76470588 31.3281947,6.32129817 31.4474645,7.15618661 L35.7014199,35.4231237 L35.7014199,35.4231237 Z" id="Shape" fill="#32B77C"></path>
                            <path d="M25.4442191,13.5172414 C30.9306288,17.6121704 32.08357,25.4442191 27.988641,30.9306288 C23.8539554,36.4170385 16.0219067,37.5699797 10.535497,33.4750507 C5.08884381,29.3801217 3.93590264,21.548073 8.03083164,16.0616633 C12.0860041,10.535497 19.9180527,9.38255578 25.4442191,13.5172414" id="Shape" fill="#FFFFFF"></path>
                            <g transform="translate(13.914807, 0.795132)" id="Shape">
                                <path d="M5.12860041,22.8997972 C5.08884381,23.5359026 4.49249493,23.9732252 3.89614604,23.9334686 C3.26004057,23.8539554 2.82271805,23.2973631 2.86247465,22.7010142 C2.94198783,22.0649087 3.49858012,21.6275862 4.09492901,21.6673428 C4.77079108,21.7070994 5.20811359,22.2636917 5.12860041,22.8997972 M6.48032454,22.3432049 L6.48032454,22.3432049 L5.6851927,13.159432 L5.6851927,13.159432 C5.6851927,12.7618661 5.40689655,12.4438134 5.00933063,12.4040568 C4.61176471,12.3643002 4.29371197,12.6425963 4.21419878,13.0004057 L1.70953347,21.9058824 L1.70953347,21.9058824 C1.63002028,22.1046653 1.59026369,22.3432049 1.5505071,22.5419878 C1.43123732,23.9334686 2.42515213,25.0864097 3.77687627,25.2056795 C5.168357,25.3249493 6.32129817,24.3310345 6.44056795,22.9793103 C6.52008114,22.7805274 6.52008114,22.5419878 6.48032454,22.3432049" fill="#992169"></path>
                                <path d="M3.45882353,25.1659229 L3.45882353,25.1659229 L8.62718053,26.1995943 C8.98498986,26.3586207 9.38255578,26.2393509 9.58133874,25.9212982 C9.7801217,25.6032454 9.66085193,25.1659229 9.34279919,24.96714 L9.34279919,24.96714 L5.84421907,21.0709939 L5.84421907,21.0709939 C5.6851927,20.9119675 5.52616633,20.7926978 5.32738337,20.673428 C4.1346856,19.9975659 2.66369168,20.3951318 1.94807302,21.5878296 C1.27221095,22.7805274 1.66977688,24.2515213 2.90223124,24.96714 C3.06125761,25.0068966 3.26004057,25.0864097 3.45882353,25.1659229" fill="#992169"></path>
                                <path d="M1.47099391,0.198782961 C2.22636917,0.119269777 2.90223124,0.636105477 2.98174442,1.35172414 C3.06125761,2.10709939 2.54442191,2.78296146 1.82880325,2.86247465 C1.07342799,2.94198783 0.397565923,2.42515213 0.318052738,1.70953347 C0.238539554,0.993914807 0.715618661,0.318052738 1.47099391,0.198782961" fill="#32B77C"></path>
                            </g>
                            <path d="M19.2421907,23.5756592 C19.2421907,24.2912779 18.6458418,24.8876268 17.9302231,24.8876268 C17.2146045,24.8876268 16.6182556,24.2912779 16.6182556,23.5756592 C16.6182556,22.8600406 17.2146045,22.2636917 17.9302231,22.2636917 C18.6855984,22.2239351 19.2421907,22.820284 19.2421907,23.5756592" id="Shape" fill="#FFFFFF"></path>
                        </g>
                        <path d="M193.256795,11.9269777 C194.767546,11.9269777 195.88073,13.1196755 195.88073,14.5509128 C195.88073,16.0219067 194.688032,17.1748479 193.177282,17.1748479 C191.626775,17.1748479 190.473834,15.9821501 190.473834,14.5509128 C190.553347,13.0799189 191.746045,11.9269777 193.256795,11.9269777 L193.256795,11.9269777 L193.256795,11.9269777 Z M193.177282,12.5630832 C192.143611,12.5630832 191.348479,13.4377282 191.348479,14.5509128 C191.348479,15.5845842 192.183367,16.5387424 193.256795,16.5387424 C194.409736,16.5387424 195.165112,15.6640974 195.165112,14.5509128 C195.085598,13.4774848 194.290467,12.5630832 193.177282,12.5630832 L193.177282,12.5630832 L193.177282,12.5630832 Z M192.938742,15.7833671 L192.223124,15.7833671 L192.223124,13.3979716 C192.421907,13.3979716 192.779716,13.3184584 193.256795,13.3184584 C193.813387,13.3184584 194.091684,13.3979716 194.210953,13.5172414 C194.409736,13.5967546 194.449493,13.8352941 194.449493,14.0738337 C194.449493,14.3123732 194.210953,14.5906694 193.892901,14.630426 L193.892901,14.630426 C194.13144,14.7099391 194.290467,14.8689655 194.409736,15.2665314 C194.489249,15.5845842 194.608519,15.7833671 194.608519,15.8231237 L193.773631,15.8231237 C193.694118,15.7436105 193.574848,15.505071 193.574848,15.306288 C193.495335,15.0677485 193.376065,14.9087221 193.177282,14.9087221 L192.938742,14.9087221 L192.938742,15.7833671 L192.938742,15.7833671 Z M192.938742,14.431643 L193.177282,14.431643 C193.415822,14.431643 193.694118,14.23286 193.694118,14.1135903 C193.694118,13.9943205 193.495335,13.7955375 193.296552,13.7955375 L193.058012,13.7955375 L193.058012,14.431643 L192.938742,14.431643 L192.938742,14.431643 L192.938742,14.431643 Z" id="Shape" fill="#32B77C"></path>
                    </g>
                </g>
            </g>
        </g>
    </g>
</svg>