<?xml version="1.0" encoding="UTF-8" standalone="no"?>
<svg width="1439px" height="310px" viewBox="0 0 1439 310" version="1.1" xmlns="http://www.w3.org/2000/svg" xmlns:xlink="http://www.w3.org/1999/xlink">
    <!-- Generator: Sketch 46.2 (44496) - http://www.bohemiancoding.com/sketch -->
    <title>GonebusyFullLogo-inv</title>
    <desc>Created with Sketch.</desc>
    <defs></defs>
    <g id="Page-1" stroke="none" stroke-width="1" fill="none" fill-rule="evenodd">
        <g id="GonebusyFullLogo-inv" transform="translate(0.000000, 4.000000)">
            <path d="M127.680851,89.4052174 C120.620722,89.4052174 114.759482,95.126087 114.759482,102.310435 L114.759482,102.310435 C101.838113,91.2678261 86.6521739,86.4782609 70.800185,86.4782609 C57.6123959,86.4782609 45.8899167,89.8043478 36.4320074,95.3921739 C15.1184089,107.898261 0.19888992,131.58 0.19888992,159.652174 C0.19888992,187.724348 14.8519889,211.14 36.1655874,223.646087 C45.7567068,229.366957 58.9444958,232.95913 71.466235,232.95913 C88.2506938,232.95913 102.637373,227.637391 113.960222,217.65913 L113.960222,225.375652 C113.960222,243.070435 111.296022,253.846957 106.234043,261.563478 C99.307123,272.073913 87.3182239,277.661739 72.1322849,277.661739 C55.3478261,277.661739 43.7585569,271.408696 34.8334875,262.893913 C29.2386679,257.572174 20.5800185,257.306087 14.8519889,262.627826 C8.72432932,268.348696 8.59111933,278.06087 14.8519889,283.648696 C26.8408881,294.558261 46.4227567,304.536522 73.3311748,304.536522 C101.172063,304.536522 122.752081,291.631304 134.074931,269.812174 C139.80296,258.769565 142.46716,244.666957 142.46716,223.77913 L142.46716,103.906957 C142.33395,95.9243478 135.80666,89.4052174 127.680851,89.4052174 Z M113.827012,185.994783 C104.235893,198.9 89.5827937,206.084348 75.1961147,206.084348 C47.8880666,206.084348 28.439408,184.797391 28.439408,159.785217 C28.439408,135.305217 46.4227567,113.486087 73.5975948,113.486087 C90.6484736,113.486087 105.035153,122.133913 113.693802,133.575652 L113.693802,185.994783 L113.827012,185.994783 Z" id="Shape" fill="#FFFFFF" fill-rule="nonzero"></path>
            <path d="M515.055504,86.3452174 C494.674376,86.3452174 480.287697,95.6582609 472.827937,102.842609 C472.827937,95.3921739 466.833488,89.4052174 459.373728,89.4052174 L458.707678,89.4052174 C451.247919,89.4052174 445.253469,95.3921739 445.253469,102.842609 L445.253469,216.461739 C445.253469,223.912174 451.247919,229.89913 458.707678,229.89913 L460.172988,229.89913 C467.632747,229.89913 473.627197,223.912174 473.627197,216.461739 L473.627197,133.309565 C482.019426,123.198261 495.473636,113.22 513.989824,113.22 C525.712303,113.22 536.502313,118.541739 543.029602,126.923478 C548.091582,133.176522 551.421832,141.558261 551.421832,159.51913 L551.421832,216.328696 C551.421832,223.77913 557.416281,229.766087 564.876041,229.766087 L566.341351,229.766087 C573.80111,229.766087 579.79556,223.77913 579.79556,216.328696 L579.79556,160.982609 C579.79556,136.768696 575,122.4 566.074931,111.091304 C554.219241,95.9243478 535.703053,86.3452174 515.055504,86.3452174 Z" id="Shape" fill="#FFFFFF" fill-rule="nonzero"></path>
            <path d="M685.164662,86.3452174 C645.334875,86.3452174 616.561517,117.477391 616.561517,159.652174 C616.561517,201.826957 648.265495,232.95913 689.294172,232.95913 C710.341351,232.95913 726.726179,226.04087 738.049029,217.126957 C744.309898,212.204348 744.842738,203.157391 739.114709,197.702609 L738.848289,197.436522 C734.052729,192.913043 726.726179,192.913043 721.6642,197.037391 C714.20444,203.157391 704.213691,208.08 689.560592,208.08 C665.049954,208.08 645.601295,189.187826 644.002775,165.63913 L752.435708,165.63913 C752.702128,162.978261 752.702128,160.849565 752.702128,159.652174 C752.835338,118.009565 724.3284,86.3452174 685.164662,86.3452174 Z M646.533765,141.691304 C651.329325,123.464348 667.847364,111.224348 686.097132,111.224348 C702.881591,111.224348 719,123.730435 723.26272,141.691304 L646.533765,141.691304 Z" id="Shape" fill="#FFFFFF" fill-rule="nonzero"></path>
            <path d="M902.563367,95.3921739 C892.972248,89.6713043 881.249769,86.4782609 868.19519,86.4782609 C852.876041,86.4782609 837.690102,91.2678261 825.035153,101.778261 L825.035153,30.6 C825.035153,23.5486957 819.307123,17.6947826 812.113784,17.6947826 L809.449584,17.6947826 C802.389454,17.6947826 796.528215,23.4156522 796.528215,30.6 L796.528215,217.26 C796.528215,224.311304 802.256244,230.165217 809.449584,230.165217 L811.181314,230.165217 C818.241443,230.165217 824.102683,224.444348 824.102683,217.26 C835.425532,227.371304 850.744681,233.092174 867.52914,233.092174 C880.050879,233.092174 893.238668,229.5 902.829787,223.77913 C924.143386,211.273043 938.796485,187.857391 938.796485,159.785217 C938.796485,131.58 923.743756,107.898261 902.563367,95.3921739 Z M863.66605,205.951304 C849.279371,205.951304 834.626272,198.766957 825.035153,185.861739 L825.035153,133.176522 C833.693802,121.867826 848.080481,113.086957 865.13136,113.086957 C892.439408,113.086957 910.289547,134.906087 910.289547,159.386087 C910.289547,184.797391 890.840888,205.951304 863.66605,205.951304 Z" id="Shape" fill="#FFFFFF" fill-rule="nonzero"></path>
            <path d="M1101.31267,89.4052174 L1098.64847,89.4052174 C1091.58834,89.4052174 1085.7271,95.126087 1085.7271,102.310435 L1085.7271,185.994783 C1077.6013,195.573913 1063.61425,206.084348 1046.16374,206.084348 C1035.37373,206.084348 1025.24977,201.294783 1018.85569,193.844348 C1013.79371,187.857391 1010.72988,180.14087 1010.72988,165.772174 L1010.72988,102.443478 C1010.72988,95.3921739 1005.00185,89.5382609 997.808511,89.5382609 L995.144311,89.5382609 C988.084181,89.5382609 982.222942,95.2591304 982.222942,102.443478 L982.222942,161.381739 C982.222942,185.063478 986.352451,198.766957 995.144311,209.543478 C1006.86679,224.178261 1025.11656,233.225217 1045.09806,233.225217 C1064.54672,233.225217 1080.13228,223.38 1086.39315,217.393043 C1086.39315,224.444348 1092.12118,230.298261 1099.31452,230.298261 L1101.04625,230.298261 C1108.10638,230.298261 1113.96762,224.577391 1113.96762,217.393043 L1113.96762,102.576522 C1114.23404,95.126087 1108.50601,89.4052174 1101.31267,89.4052174 Z" id="Shape" fill="#FFFFFF" fill-rule="nonzero"></path>
            <path d="M1211.61055,145.283478 C1197.49029,141.691304 1186.43386,138.365217 1186.43386,128.786087 C1186.43386,117.743478 1198.15634,111.091304 1211.87697,111.091304 C1219.60315,111.091304 1226.66327,113.086957 1233.19056,116.546087 C1238.65217,119.34 1245.44588,117.610435 1249.04255,112.687826 C1253.7049,106.301739 1251.30712,97.3878261 1244.3802,93.9286957 C1235.18871,89.2721739 1223.86586,86.4782609 1210.14524,86.4782609 C1184.96855,86.4782609 1158.06013,100.181739 1158.06013,130.382609 C1158.06013,150.073043 1173.37928,160.849565 1190.43016,166.570435 C1211.07771,173.488696 1234.38945,174.286957 1234.38945,190.518261 C1234.38945,201.56087 1222.13414,208.213043 1209.87882,208.213043 C1199.22202,208.213043 1188.43201,205.153043 1178.17484,199.29913 C1172.3136,195.973043 1164.98705,197.303478 1161.12396,202.758261 L1160.85754,203.157391 C1156.72803,209.011304 1158.19334,217.393043 1164.45421,221.118261 C1177.77521,228.834783 1192.96115,233.092174 1210.54487,233.092174 C1238.11933,233.092174 1262.89639,216.594783 1262.89639,189.986087 C1262.76318,160.849565 1233.7234,151.004348 1211.61055,145.283478 Z" id="Shape" fill="#FFFFFF" fill-rule="nonzero"></path>
            <path d="M1424.61332,89.4052174 C1416.75393,89.4052174 1410.35985,95.7913043 1410.35985,103.64087 L1410.35985,151.536522 L1410.35985,159.785217 L1410.35985,186.127826 C1402.23404,195.706957 1388.24699,206.217391 1370.79648,206.217391 C1360.00648,206.217391 1349.88252,201.427826 1343.48844,193.977391 C1338.42646,187.990435 1335.36263,180.273913 1335.36263,165.905217 L1335.36263,103.906957 C1335.36263,96.0573913 1328.96855,89.6713043 1321.10916,89.6713043 C1313.24977,89.6713043 1306.85569,96.0573913 1306.85569,103.906957 L1306.85569,161.514783 C1306.85569,185.196522 1310.9852,198.9 1319.77706,209.676522 C1331.49954,224.311304 1349.74931,233.358261 1369.7308,233.358261 C1388.3802,233.358261 1403.43293,224.311304 1410.09343,218.324348 L1410.09343,225.907826 C1410.09343,243.602609 1407.42923,254.37913 1402.36725,262.095652 C1395.44033,272.606087 1383.45143,278.193913 1368.26549,278.193913 C1351.34783,278.193913 1339.75856,271.94087 1330.83349,263.293043 C1325.37188,257.971304 1316.71323,257.838261 1311.25162,263.026957 L1310.9852,263.293043 C1304.99075,268.88087 1304.85754,278.593043 1310.9852,284.047826 C1322.9741,294.957391 1342.68918,305.068696 1369.59759,305.068696 C1397.43848,305.068696 1419.0185,292.163478 1430.34135,270.344348 C1435.40333,260.366087 1438.20074,247.993043 1438.60037,230.298261 L1438.73358,230.298261 L1438.73358,224.311304 L1438.73358,159.652174 L1438.73358,151.403478 L1438.73358,103.507826 C1438.86679,95.6582609 1432.47271,89.4052174 1424.61332,89.4052174 Z" id="Shape" fill="#FFFFFF" fill-rule="nonzero"></path>
            <ellipse id="Oval" stroke="#FFCD0A" stroke-width="19.9814986" cx="292.59482" cy="157.523478" rx="82.9898242" ry="82.886087"></ellipse>
            <path d="M292.59482,49.4921739 L292.59482,49.4921739 C288.19889,49.4921739 284.46901,45.9 284.46901,41.3765217 L284.46901,8.38173913 C284.46901,3.99130435 288.06568,0.266086957 292.59482,0.266086957 L292.59482,0.266086957 C296.990749,0.266086957 300.720629,3.85826087 300.720629,8.38173913 L300.720629,41.3765217 C300.587419,45.9 296.990749,49.4921739 292.59482,49.4921739 Z" id="Shape" stroke="#FFCD0A" stroke-width="7.99259944" fill="#FFCD0A" fill-rule="nonzero"></path>
            <path d="M386.241443,103.507826 L386.241443,103.507826 C383.976873,99.6495652 385.308973,94.7269565 389.172063,92.4652174 L417.812211,75.9678261 C421.675301,73.706087 426.60407,75.0365217 428.86864,78.8947826 L428.86864,78.8947826 C431.13321,82.7530435 429.80111,87.6756522 425.93802,89.9373913 L397.297872,106.434783 C393.434783,108.696522 388.506013,107.366087 386.241443,103.507826 Z" id="Shape" stroke="#FFCD0A" stroke-width="7.99259944" fill="#FFCD0A" fill-rule="nonzero"></path>
            <path d="M346.678076,63.993913 L346.678076,63.993913 C342.814986,61.7321739 341.482886,56.8095652 343.747456,52.9513043 L360.265495,24.3469565 C362.530065,20.4886957 367.458834,19.1582609 371.321924,21.42 L371.321924,21.42 C375.185014,23.6817391 376.517114,28.6043478 374.252544,32.4626087 L357.734505,61.0669565 C355.469935,64.9252174 350.541166,66.2556522 346.678076,63.993913 Z" id="Shape" stroke="#FFCD0A" stroke-width="7.99259944" fill="#FFCD0A" fill-rule="nonzero"></path>
            <path d="M198.814986,103.507826 L198.814986,103.507826 C196.550416,107.366087 191.621647,108.696522 187.758557,106.434783 L159.118409,89.9373913 C155.255319,87.6756522 153.923219,82.7530435 156.187789,78.8947826 L156.187789,78.8947826 C158.452359,75.0365217 163.381129,73.706087 167.244218,75.9678261 L195.884366,92.4652174 C199.747456,94.7269565 201.079556,99.6495652 198.814986,103.507826 Z" id="Shape" stroke="#FFCD0A" stroke-width="7.99259944" fill="#FFCD0A" fill-rule="nonzero"></path>
            <path d="M238.511563,63.993913 L238.511563,63.993913 C234.648474,66.2556522 229.719704,64.9252174 227.455134,61.0669565 L210.937095,32.4626087 C208.672525,28.6043478 210.004625,23.6817391 213.867715,21.42 L213.867715,21.42 C217.730805,19.1582609 222.659574,20.4886957 224.924144,24.3469565 L241.442183,52.9513043 C243.706753,56.8095652 242.374653,61.7321739 238.511563,63.993913 Z" id="Shape" stroke="#FFCD0A" stroke-width="7.99259944" fill="#FFCD0A" fill-rule="nonzero"></path>
            <path d="M275.943571,184.930435 L258.226642,167.235652 C258.226642,167.235652 251.965772,162.313043 257.960222,155.261739 C257.960222,155.261739 264.620722,149.274783 271.281221,155.261739 L281.93802,166.171304 L284.3358,167.501739 L316.572618,133.841739 C316.572618,133.841739 323.765957,125.593043 328.827937,130.515652 C328.827937,130.515652 337.353377,136.236522 330.160037,143.82 L289.93062,184.930435 C289.93062,184.930435 284.3358,193.312174 275.943571,184.930435 Z" id="Shape" stroke="#009CD9" stroke-width="2" fill="#009CD9" fill-rule="nonzero"></path>
        </g>
    </g>
</svg>