<?xml version="1.0" encoding="utf-8"?>
<!-- Generator: Adobe Illustrator 18.1.0, SVG Export Plug-In . SVG Version: 6.00 Build 0)  -->
<svg version="1.1" id="Layer_1" xmlns="http://www.w3.org/2000/svg" xmlns:xlink="http://www.w3.org/1999/xlink" x="0px" y="0px"
	 viewBox="0 0 805.9 495.7" enable-background="new 0 0 805.9 495.7" xml:space="preserve">
<rect x="0" y="0" fill="#1E262E" width="806" height="495.7"/>
<path fill="none" stroke="#E762A4" stroke-width="3" stroke-linecap="round" stroke-miterlimit="10" stroke-dasharray="12,12,4,12" d="
	M111.1,88.5"/>
<g>
	
		<path fill="none" stroke="#ED4537" stroke-width="3" stroke-linecap="round" stroke-miterlimit="10" stroke-dasharray="36,6,2,6" d="
		M487.6,21.4"/>
	<g>
		<g>
			
				<polyline fill="none" stroke="#ED4537" stroke-width="3" stroke-linecap="round" stroke-miterlimit="10" stroke-dasharray="1.4761,5.9042" points="
				79.5,486.7 79.5,441.6 40.5,419.1 1.5,441.6 1.5,486.7 			"/>
			
				<polygon fill="none" stroke="#FFCD1E" stroke-width="3" stroke-linecap="round" stroke-miterlimit="10" stroke-dasharray="8.8564,6.6423" points="
				40.5,431.4 12.1,447.8 12.1,480.6 40,493.8 68.9,480.6 68.9,447.8 			"/>
			
				<path fill="#189DD8" stroke="#189DD8" stroke-width="3" stroke-linecap="round" stroke-linejoin="round" stroke-miterlimit="10" d="
				M38.9,452.4l-8,4.6c-0.9,0.5-1.5,1.6-1.5,2.7v9.2c0,1.1,0.6,2.1,1.5,2.7l8,4.6c0.9,0.5,2.1,0.5,3.1,0l8-4.6
				c0.9-0.5,1.5-1.6,1.5-2.7v-9.2c0-1.1-0.6-2.1-1.5-2.7l-8-4.6C41.1,451.9,39.9,451.9,38.9,452.4z"/>
			
				<line fill="none" stroke="#189DD8" stroke-width="3" stroke-linecap="round" stroke-miterlimit="10" stroke-dasharray="2,7" x1="79.5" y1="441.6" x2="1.5" y2="486.7"/>
			<g>
				<g>
					
						<line fill="none" stroke="#189DD8" stroke-width="3" stroke-linecap="round" stroke-miterlimit="10" x1="1.5" y1="441.6" x2="2.3" y2="442.1"/>
					
						<line fill="none" stroke="#189DD8" stroke-width="3" stroke-linecap="round" stroke-miterlimit="10" stroke-dasharray="2.002,7.0068" x1="8.4" y1="445.6" x2="75.6" y2="484.4"/>
					
						<line fill="none" stroke="#189DD8" stroke-width="3" stroke-linecap="round" stroke-miterlimit="10" x1="78.6" y1="486.2" x2="79.5" y2="486.7"/>
				</g>
			</g>
			
				<line fill="none" stroke="#189DD8" stroke-width="3" stroke-linecap="round" stroke-miterlimit="10" stroke-dasharray="2,7" x1="40.5" y1="419.1" x2="40.7" y2="495.7"/>
			
				<polygon fill="none" stroke="#E762A4" stroke-width="3" stroke-linecap="round" stroke-linejoin="round" stroke-miterlimit="10" stroke-dasharray="8.8564,17.7127" points="
				40.5,442.9 22,453.5 22,474.8 40.5,485.5 58.9,474.8 58.9,453.5 			"/>
			
				<path fill="#010101" stroke="#189DD8" stroke-width="3" stroke-linecap="round" stroke-linejoin="round" stroke-miterlimit="10" d="
				M39.1,407.4l-8,4.6c-0.9,0.5-1.5,1.6-1.5,2.7v9.2c0,1.1,0.6,2.1,1.5,2.7l8,4.6c0.9,0.5,2.1,0.5,3.1,0l8-4.6
				c0.9-0.5,1.5-1.6,1.5-2.7v-9.2c0-1.1-0.6-2.1-1.5-2.7l-8-4.6C41.2,406.9,40.1,406.9,39.1,407.4z"/>
			
				<path fill="#010101" stroke="#189DD8" stroke-width="3" stroke-linecap="round" stroke-linejoin="round" stroke-miterlimit="10" d="
				M1.3,452.9c0.9,0.5,3.3,1.7,4.3,1.1l8-4.6c0.9-0.5,1.5-1.6,1.5-2.7v-9.2c0-1.1-0.6-2.1-1.5-2.7l-8-4.6c-0.9-0.5-3.4,0-4.4,0.6"/>
			
				<path fill="#010101" stroke="#189DD8" stroke-width="3" stroke-linecap="round" stroke-linejoin="round" stroke-miterlimit="10" d="
				M78.1,430.3l-8,4.6c-0.9,0.5-1.5,1.6-1.5,2.7v9.2c0,1.1,0.6,2.1,1.5,2.7l8,4.6c0.9,0.5,2.1,0.5,3.1,0l8-4.6
				c0.9-0.5,1.5-1.6,1.5-2.7v-9.2c0-1.1-0.6-2.1-1.5-2.7l-8-4.6C80.2,429.7,79,429.7,78.1,430.3z"/>
			
				<path fill="#010101" stroke="#189DD8" stroke-width="3" stroke-linecap="round" stroke-linejoin="round" stroke-miterlimit="10" d="
				M1.2,475c0.9-0.5,1.1-0.5,2.1,0l8,4.6c0.9,0.5,1.5,1.6,1.5,2.7v9.2c0,1.1-0.2,1.6-1.8,2.6l0,0"/>
			
				<path fill="#010101" stroke="#189DD8" stroke-width="3" stroke-linecap="round" stroke-linejoin="round" stroke-miterlimit="10" d="
				M70.1,494.2c-0.9-0.5-1.5-1.6-1.5-2.7v-9.2c0-1.1,0.6-2.1,1.5-2.7l8-4.6c0.9-0.5,2.1-0.5,3.1,0l8,4.6c0.9,0.5,1.5,1.6,1.5,2.7
				v9.2c0,1.1-0.6,2.1-1.5,2.7"/>
		</g>
		
			<line fill="none" stroke="#ED4537" stroke-width="3" stroke-linecap="round" stroke-miterlimit="10" stroke-dasharray="36,6,2,6" x1="40.5" y1="395.3" x2="40.5" y2="210.8"/>
		
			<line fill="none" stroke="#ED4537" stroke-width="3" stroke-linecap="round" stroke-miterlimit="10" stroke-dasharray="36,6,2,6" x1="100.7" y1="429.9" x2="111.9" y2="418.7"/>
		
			<path fill="#010101" stroke="#189DD8" stroke-width="3" stroke-linecap="round" stroke-linejoin="round" stroke-miterlimit="10" d="
			M39.1,179.7l-8,4.6c-0.9,0.5-1.5,1.6-1.5,2.7v9.2c0,1.1,0.6,2.1,1.5,2.7l8,4.6c0.9,0.5,2.1,0.5,3.1,0l8-4.6
			c0.9-0.5,1.5-1.6,1.5-2.7v-9.2c0-1.1-0.6-2.1-1.5-2.7l-8-4.6C41.2,179.1,40.1,179.1,39.1,179.7z"/>
		
			<line fill="none" stroke="#FFCD1E" stroke-width="3" stroke-linecap="round" stroke-miterlimit="10" stroke-dasharray="8.8564,6.6423" x1="15" y1="419.3" x2="1.8" y2="387.8"/>
		
			<line fill="none" stroke="#FFCD1E" stroke-width="3" stroke-linecap="round" stroke-miterlimit="10" stroke-dasharray="8.8564,6.6423" x1="65.9" y1="422.1" x2="109.2" y2="338.7"/>
		
			<line fill="none" stroke="#FFCD1E" stroke-width="3" stroke-linecap="round" stroke-miterlimit="10" stroke-dasharray="8.8564,6.6423" x1="90.7" y1="464.3" x2="212.3" y2="464.3"/>
	</g>
</g>
<g>
	
		<polygon fill="none" stroke="#ED4537" stroke-width="3" stroke-linecap="round" stroke-miterlimit="10" stroke-dasharray="1.4761,5.9042" points="
		705.9,284.2 691,292.3 676.5,283.4 677,266.4 691.9,258.3 706.4,267.2 	"/>
	
		<polygon fill="none" stroke="#FFCD1E" stroke-width="3" stroke-linecap="round" stroke-miterlimit="10" stroke-dasharray="8.8564,6.6423" points="
		690.2,287.2 681,280.4 682.3,269.2 692.7,264.6 701.8,271.4 700.6,282.6 	"/>
</g>
<g>
	<polyline fill="none" stroke="#189DD8" stroke-width="3" stroke-linecap="round" stroke-miterlimit="10" points="66,1 66,167.6 
		117,167.6 117,195.6 138,195.6 	"/>
	
		<circle fill="none" stroke="#189DD8" stroke-width="3" stroke-linecap="round" stroke-miterlimit="10" cx="145.3" cy="197.7" r="7.3"/>
</g>
<polyline fill="none" stroke="#189DD8" stroke-width="3" stroke-linecap="round" stroke-miterlimit="10" points="769.5,1 
	769.5,105.3 697.5,105.3 676.5,94.5 676.5,105.3 676.5,111.9 694.5,105.3 "/>
<path fill="#FFCD1E" d="M487.2,0c-0.9,0.5-1.5,1.6-1.5,2.7v9.2c0,1.1,0.6,2.1,1.5,2.7l8,4.6c0.9,0.5,2.1,0.5,3.1,0l8-4.6
	c0.9-0.5,1.5-1.6,1.5-2.7V2.7c0-1.1-0.6-2.1-1.5-2.7"/>
<polyline fill="none" stroke="#189DD8" stroke-width="3" stroke-linecap="round" stroke-miterlimit="10" points="367.7,377.2 
	376.2,363.6 359.7,363.6 367.7,377.2 367.7,474.7 327.2,474.7 327.2,492.7 "/>
<g>
	
		<circle fill="none" stroke="#FFCE1D" stroke-width="3" stroke-linecap="round" stroke-miterlimit="10" cx="652.5" cy="32.3" r="7.3"/>
	<polyline fill="none" stroke="#FFCE1D" stroke-width="3" stroke-linecap="round" stroke-miterlimit="10" points="594.5,1 
		594.5,46.1 616.5,46.1 616.5,75.2 652.5,75.2 652.5,39.9 	"/>
</g>
<g>
	<circle fill="#E762A4" cx="339.8" cy="21.8" r="7.3"/>
	
		<polyline fill="none" stroke="#E762A4" stroke-width="3" stroke-linecap="round" stroke-linejoin="round" stroke-miterlimit="10" stroke-dasharray="8.8564,17.7127" points="
		339.7,35 339.7,55.2 410.7,55.2 410.7,24 410.7,-5.5 	"/>
</g>
<polyline fill="none" stroke="#ED4537" stroke-width="3" stroke-linecap="round" stroke-miterlimit="10" stroke-dasharray="36,6" points="
	691.4,248.7 691.4,228.1 803.9,228.1 "/>
<circle fill="#E762A4" cx="470.8" cy="364" r="7.3"/>
<polyline fill="none" stroke="#E762A4" stroke-width="3" stroke-linecap="round" stroke-linejoin="round" stroke-miterlimit="10" stroke-dasharray="8.8564,17.7127" points="
	523.8,492.7 523.8,364 475.8,364 "/>
<line fill="none" stroke="#ED4537" stroke-width="3" stroke-linecap="round" stroke-miterlimit="10" stroke-dasharray="36,6,2,6" x1="121.7" y1="406" x2="481" y2="23"/>
<circle fill="none" stroke="#FFCE1D" stroke-width="3" stroke-linecap="round" stroke-miterlimit="10" cx="636.4" cy="454.7" r="7.3"/>
<polyline fill="none" stroke="#FFCE1D" stroke-width="3" stroke-linecap="round" stroke-miterlimit="10" points="803.9,377.2 
	703.4,377.2 703.4,454.7 645.7,454.7 "/>
<g>
	
		<polyline fill="none" stroke="#FFCD1E" stroke-width="3" stroke-linecap="round" stroke-miterlimit="10" stroke-dasharray="8.8564,6.6423" points="
		114.3,1 114.3,46.4 147,46.4 250.8,46.4 250.8,207 	"/>
</g>
<polygon fill="#010101" stroke="#189DD8" stroke-width="3" stroke-linecap="round" stroke-linejoin="round" stroke-miterlimit="10" points="
	588.7,333.8 579.7,338.6 571,333.3 571.3,323.1 580.2,318.2 588.9,323.6 "/>
<circle fill="none" stroke="#FFCE1D" stroke-width="3" stroke-linecap="round" stroke-miterlimit="10" cx="580" cy="328.4" r="15.6"/>
<polyline fill="none" stroke="#E762A4" stroke-width="3" stroke-linecap="round" stroke-linejoin="round" stroke-miterlimit="10" stroke-dasharray="8.8564,17.7127" points="
	317.6,292.3 317.6,324.5 266.8,324.5 266.8,384.3 "/>
<polygon fill="none" stroke="#E762A4" stroke-width="3" stroke-miterlimit="10" points="267.1,392 260.3,405.5 274.8,405.5 "/>
<line fill="none" stroke="#010101" stroke-width="2" stroke-linecap="round" stroke-linejoin="round" stroke-miterlimit="10" x1="73.1" y1="494.2" x2="86.4" y2="494.2"/>
<line fill="none" stroke="#ED4537" stroke-width="3" stroke-linecap="round" stroke-miterlimit="10" stroke-dasharray="1.4761,5.9042" x1="16.3" y1="492.5" x2="20.7" y2="495.7"/>
<line fill="none" stroke="#ED4537" stroke-width="3" stroke-linecap="round" stroke-miterlimit="10" stroke-dasharray="1.4761,5.9042" x1="65.2" y1="493.5" x2="61.5" y2="495.7"/>
<line fill="#010101" stroke="#010101" stroke-width="3" stroke-linecap="round" stroke-linejoin="round" stroke-miterlimit="10" x1="1.6" y1="434" x2="1.6" y2="449.8"/>
<polyline fill="#010101" points="2.1,476.2 0,476.2 0,495.5 8.8,495.7 9.5,490.5 "/>
<polygon fill="#010101" points="10.2,492.6 9.2,494 8.9,493.8 9.4,491.1 10.2,492.5 "/>
<polygon fill="#010101" points="9,493 9.9,495.7 8.6,495.7 "/>
</svg>
