<?xml version="1.0" encoding="utf-8"?>
<!-- Generator: Adobe Illustrator 18.1.0, SVG Export Plug-In . SVG Version: 6.00 Build 0)  -->
<svg version="1.1" id="Layer_1" xmlns="http://www.w3.org/2000/svg" xmlns:xlink="http://www.w3.org/1999/xlink" x="0px" y="0px"
	 viewBox="0 0 640 360" enable-background="new 0 0 640 360" xml:space="preserve">
<rect x="-1.6" y="-1.4" fill="#1E262E" width="643" height="362.7"/>
<path fill="none" stroke="#E762A4" stroke-width="3" stroke-linecap="round" stroke-miterlimit="10" stroke-dasharray="12,12,4,12" d="
	M80.9,65.6"/>
<path fill="none" stroke="#ED4537" stroke-width="3" stroke-linecap="round" stroke-miterlimit="10" stroke-dasharray="36,6,2,6" d="
	M396.6,19.6"/>
<g>
	
		<polyline fill="none" stroke="#ED4537" stroke-width="3" stroke-linecap="round" stroke-miterlimit="10" stroke-dasharray="1.4761,5.9042" points="
		58.8,353.1 58.8,320.2 30.3,303.8 1.9,320.2 1.9,353.1 	"/>
	
		<polygon fill="none" stroke="#FFCD1E" stroke-width="3" stroke-linecap="round" stroke-miterlimit="10" stroke-dasharray="8.8564,6.6423" points="
		30.3,312.7 9.6,324.7 9.6,348.6 30,358.3 51.1,348.6 51.1,324.7 	"/>
	
		<path fill="#189DD8" stroke="#189DD8" stroke-width="3" stroke-linecap="round" stroke-linejoin="round" stroke-miterlimit="10" d="
		M28.8,328.3l-5,2.9c-0.9,0.5-1.5,1.6-1.5,2.7v5.8c0,1.1,0.6,2.1,1.5,2.7l5,2.9c0.9,0.5,2.1,0.5,3.1,0l5-2.9
		c0.9-0.5,1.5-1.6,1.5-2.7v-5.8c0-1.1-0.6-2.1-1.5-2.7l-5-2.9C30.9,327.8,29.7,327.8,28.8,328.3z"/>
	
		<line fill="none" stroke="#189DD8" stroke-width="3" stroke-linecap="round" stroke-miterlimit="10" stroke-dasharray="2,7" x1="58.8" y1="320.2" x2="1.9" y2="353.1"/>
	<g>
		<g>
			
				<line fill="none" stroke="#189DD8" stroke-width="3" stroke-linecap="round" stroke-miterlimit="10" x1="1.9" y1="320.2" x2="2.7" y2="320.7"/>
			
				<line fill="none" stroke="#189DD8" stroke-width="3" stroke-linecap="round" stroke-miterlimit="10" stroke-dasharray="2.0893,7.3125" x1="9.1" y1="324.4" x2="54.7" y2="350.7"/>
			
				<line fill="none" stroke="#189DD8" stroke-width="3" stroke-linecap="round" stroke-miterlimit="10" x1="57.9" y1="352.6" x2="58.8" y2="353.1"/>
		</g>
	</g>
	
		<line fill="none" stroke="#189DD8" stroke-width="3" stroke-linecap="round" stroke-miterlimit="10" stroke-dasharray="2,7" x1="30.3" y1="303.8" x2="30.5" y2="358.7"/>
	
		<polygon fill="none" stroke="#E762A4" stroke-width="3" stroke-linecap="round" stroke-linejoin="round" stroke-miterlimit="10" stroke-dasharray="8.8564,17.7127" points="
		30.3,321.1 16.9,328.9 16.9,344.4 30.3,352.2 43.8,344.4 43.8,328.9 	"/>
	
		<path fill="#1E262E" stroke="#189DD8" stroke-width="3" stroke-linecap="round" stroke-linejoin="round" stroke-miterlimit="10" d="
		M28.9,295.5l-5,2.9c-0.9,0.5-1.5,1.6-1.5,2.7v5.8c0,1.1,0.6,2.1,1.5,2.7l5,2.9c0.9,0.5,2.1,0.5,3.1,0l5-2.9
		c0.9-0.5,1.5-1.6,1.5-2.7v-5.8c0-1.1-0.6-2.1-1.5-2.7l-5-2.9C31,295,29.9,295,28.9,295.5z"/>
	
		<path fill="#1E262E" stroke="#189DD8" stroke-width="3" stroke-linecap="round" stroke-linejoin="round" stroke-miterlimit="10" d="
		M1.7,328.4c0.7,0.4,2.4,1.2,3.1,0.8l5.4-3.1c0.9-0.5,1.5-1.6,1.5-2.7v-5.8c0-1.1-0.6-2.1-1.5-2.7l-5.4-3.1c-0.7-0.4-2.5,0-3.2,0.4"
		/>
	
		<path fill="#1E262E" stroke="#189DD8" stroke-width="3" stroke-linecap="round" stroke-linejoin="round" stroke-miterlimit="10" d="
		M57.3,312.2l-5,2.9c-0.9,0.5-1.5,1.6-1.5,2.7v5.8c0,1.1,0.6,2.1,1.5,2.7l5,2.9c0.9,0.5,2.1,0.5,3.1,0l5-2.9
		c0.9-0.5,1.5-1.6,1.5-2.7v-5.8c0-1.1-0.6-2.1-1.5-2.7l-5-2.9C59.4,311.6,58.3,311.6,57.3,312.2z"/>
	
		<path fill="#010101" stroke="#189DD8" stroke-width="3" stroke-linecap="round" stroke-linejoin="round" stroke-miterlimit="10" d="
		M1.7,344.6c0.7-0.4,0.8-0.4,1.5,0l5.4,3.1c0.9,0.5,1.5,1.6,1.5,2.7v6.3c0,0.8-0.2,1.2-1.3,1.9l0,0"/>
	
		<path fill="#1E262E" stroke="#189DD8" stroke-width="3" stroke-linecap="round" stroke-linejoin="round" stroke-miterlimit="10" d="
		M51.9,358.6c-0.7-0.4-1.1-1.1-1.1-1.9v-6.3c0-1.1,0.6-2.1,1.5-2.7l5-2.9c0.9-0.5,2.1-0.5,3.1,0l5,2.9c0.9,0.5,1.5,1.6,1.5,2.7v6.3
		c0,0.8-0.4,1.5-1.1,1.9"/>
</g>
<line fill="none" stroke="#ED4537" stroke-width="3" stroke-linecap="round" stroke-miterlimit="10" stroke-dasharray="36,6,2,6" x1="29.3" y1="287.4" x2="29.3" y2="152.8"/>
<line fill="none" stroke="#ED4537" stroke-width="3" stroke-linecap="round" stroke-miterlimit="10" stroke-dasharray="36,6,2,6" x1="73.3" y1="312.6" x2="81.4" y2="304.5"/>
<path fill="#1E262E" stroke="#189DD8" stroke-width="3" stroke-linecap="round" stroke-linejoin="round" stroke-miterlimit="10" d="
	M27.7,132.7l-5,2.9c-0.9,0.5-1.5,1.6-1.5,2.7v5.8c0,1.1,0.6,2.1,1.5,2.7l5,2.9c0.9,0.5,2.1,0.5,3.1,0l5-2.9c0.9-0.5,1.5-1.6,1.5-2.7
	v-5.8c0-1.1-0.6-2.1-1.5-2.7l-5-2.9C29.9,132.2,28.7,132.2,27.7,132.7z"/>
<line fill="none" stroke="#FFCD1E" stroke-width="3" stroke-linecap="round" stroke-miterlimit="10" stroke-dasharray="8.8564,6.6423" x1="10.7" y1="304.9" x2="1.1" y2="282"/>
<line fill="none" stroke="#FFCD1E" stroke-width="3" stroke-linecap="round" stroke-miterlimit="10" stroke-dasharray="8.8564,6.6423" x1="47.8" y1="307" x2="79.5" y2="246.1"/>
<line fill="none" stroke="#FFCD1E" stroke-width="3" stroke-linecap="round" stroke-miterlimit="10" stroke-dasharray="8.8564,6.6423" x1="65.9" y1="337.8" x2="154.7" y2="337.8"/>
<polygon fill="none" stroke="#ED4537" stroke-width="3" stroke-linecap="round" stroke-miterlimit="10" stroke-dasharray="1.4761,5.9042" points="
	570.1,205 559.7,211.7 548.6,206 548,193.6 558.5,186.9 569.5,192.6 "/>
<polygon fill="none" stroke="#FFCD1E" stroke-width="2" stroke-linecap="round" stroke-miterlimit="10" stroke-dasharray="8,6" points="
	559,191.5 566.2,195.5 566.3,203.8 559.2,208 552,204 551.9,195.7 "/>
<g>
	<polyline fill="none" stroke="#189DD8" stroke-width="3" stroke-linecap="round" stroke-miterlimit="10" points="51.9,1.7 
		51.9,123.3 89.1,123.3 89.1,143.7 104.5,143.7 	"/>
	
		<circle fill="none" stroke="#189DD8" stroke-width="3" stroke-linecap="round" stroke-miterlimit="10" cx="109.8" cy="145.3" r="5.4"/>
</g>
<polyline fill="none" stroke="#189DD8" stroke-width="3" stroke-linecap="round" stroke-miterlimit="10" points="602.2,1.7 
	602.2,77.8 549.7,77.8 534.3,69.9 534.3,77.8 534.3,82.6 547.5,77.8 "/>
<path fill="#FFCD1E" d="M352.1-0.1v6.3c0,1.1,0.6,2.1,1.5,2.7l5,2.9c0.9,0.5,2.1,0.5,3.1,0l5-2.9c0.9-0.5,1.5-1.6,1.5-2.7v-6.3"/>
<polyline fill="none" stroke="#189DD8" stroke-width="3" stroke-linecap="round" stroke-miterlimit="10" points="309.1,274.2 
	315.3,264.3 303.2,264.3 309.1,274.2 309.1,345.3 279.5,345.3 279.5,358.5 "/>
<g>
	
		<circle fill="none" stroke="#FFCE1D" stroke-width="3" stroke-linecap="round" stroke-miterlimit="10" cx="516.8" cy="22.8" r="5.4"/>
	<polyline fill="none" stroke="#FFCE1D" stroke-width="3" stroke-linecap="round" stroke-miterlimit="10" points="474.5,2 
		474.5,32.9 490.6,32.9 490.6,54.1 516.8,54.1 516.8,28.4 	"/>
</g>
<g>
	<circle fill="#E762A4" cx="244.7" cy="21.9" r="5.4"/>
	
		<polyline fill="none" stroke="#E762A4" stroke-width="3" stroke-linecap="round" stroke-linejoin="round" stroke-miterlimit="10" stroke-dasharray="8.8564,17.7127" points="
		244.6,31.6 244.6,46.3 296.4,46.3 296.4,23.5 296.4,2 	"/>
</g>
<polyline fill="none" stroke="#ED4537" stroke-width="3" stroke-linecap="round" stroke-miterlimit="10" stroke-dasharray="36,6" points="
	558,182.5 558,167.4 638,167.4 "/>
<circle fill="#E762A4" cx="384.3" cy="264.6" r="5.4"/>
<polyline fill="none" stroke="#E762A4" stroke-width="3" stroke-linecap="round" stroke-linejoin="round" stroke-miterlimit="10" stroke-dasharray="8.8564,17.7127" points="
	422.9,358.5 422.9,264.6 387.9,264.6 "/>
<line fill="none" stroke="#ED4537" stroke-width="3" stroke-linecap="round" stroke-miterlimit="10" stroke-dasharray="36,6,2,6" x1="88.6" y1="295.2" x2="353" y2="14"/>
<circle fill="none" stroke="#FFCE1D" stroke-width="3" stroke-linecap="round" stroke-miterlimit="10" cx="516.8" cy="332.7" r="5.4"/>
<polyline fill="none" stroke="#FFCE1D" stroke-width="3" stroke-linecap="round" stroke-miterlimit="10" points="638,276.2 
	565.7,276.2 565.7,332.7 523.6,332.7 "/>
<g>
	
		<polyline fill="none" stroke="#FFCD1E" stroke-width="3" stroke-linecap="round" stroke-miterlimit="10" stroke-dasharray="8.8564,6.6423" points="
		87.2,1.7 87.2,34.8 111,34.8 186.7,34.8 186.7,152.1 	"/>
</g>
<polygon fill="#1E262E" stroke="#189DD8" stroke-width="3" stroke-linecap="round" stroke-linejoin="round" stroke-miterlimit="10" points="
	470.4,244.3 463.9,248.1 457.5,244.3 457.5,236.9 463.9,233.2 470.4,236.9 "/>
<circle fill="none" stroke="#FFCE1D" stroke-width="3" stroke-linecap="round" stroke-miterlimit="10" cx="463.9" cy="240.6" r="11.4"/>
<polyline fill="none" stroke="#E762A4" stroke-width="3" stroke-linecap="round" stroke-linejoin="round" stroke-miterlimit="10" stroke-dasharray="8.8564,17.7127" points="
	272.5,214.3 272.5,237.8 235.4,237.8 235.4,281.4 "/>
<polygon fill="none" stroke="#E762A4" stroke-width="3" stroke-miterlimit="10" points="235.6,287 230.7,296.9 241.2,296.9 "/>
<line fill="none" stroke="#ED4537" stroke-width="3" stroke-linecap="round" stroke-miterlimit="10" stroke-dasharray="1.4761,5.9042" x1="14.7" y1="357.3" x2="17.9" y2="359.7"/>
<line fill="none" stroke="#ED4537" stroke-width="3" stroke-linecap="round" stroke-miterlimit="10" stroke-dasharray="1.4761,5.9042" x1="46.3" y1="357" x2="43.7" y2="358.7"/>
<line fill="#1E262E" stroke="#1E262E" stroke-width="3" stroke-linecap="round" stroke-linejoin="round" stroke-miterlimit="10" x1="1.4" y1="315.6" x2="1.4" y2="325.4"/>
<polyline fill="#1E262E" points="1.3,345.4 -0.2,345.5 -0.2,359.5 6.2,359.7 8.2,349.3 "/>
<polygon fill="#010101" points="7.2,358.4 6.5,359.4 6.3,359.3 6.7,357.3 7.2,358.3 "/>
</svg>
