<?xml version="1.0" encoding="utf-8"?>
<!-- Generator: Adobe Illustrator 18.1.0, SVG Export Plug-In . SVG Version: 6.00 Build 0)  -->
<svg version="1.1" id="Layer_1" xmlns="http://www.w3.org/2000/svg" xmlns:xlink="http://www.w3.org/1999/xlink" x="0px" y="0px"
	 viewBox="0 222.5 612 347.1" enable-background="new 0 222.5 612 347.1" xml:space="preserve">
<rect x="-1.5" y="219.7" fill="#1E262E" width="614.9" height="350.7"/>
<path fill="none" stroke="#E762A4" stroke-width="3" stroke-linecap="round" stroke-miterlimit="10" stroke-dasharray="12,12,4,12" d="
	M77.4,286.6"/>
<path fill="none" stroke="#ED4537" stroke-width="3" stroke-linecap="round" stroke-miterlimit="10" stroke-dasharray="36,6,2,6" d="
	M379.2,242.6"/>
<line fill="none" stroke="#ED4537" stroke-width="3" stroke-linecap="round" stroke-miterlimit="10" stroke-dasharray="36,6,2,6" x1="70.1" y1="522.8" x2="77.8" y2="515.1"/>
<path fill="#1E262E" stroke="#189DD8" stroke-width="3" stroke-linecap="round" stroke-linejoin="round" stroke-miterlimit="10" d="
	M37.6,347.7l-4.6,3.1c-0.8,0.5-1.3,1.6-1.3,2.7l0.4,5.5c0.1,1,0.7,2,1.6,2.5l4.9,2.5c0.9,0.4,2,0.3,3-0.2l4.6-3.1
	c0.8-0.5,1.3-1.6,1.3-2.7l-0.4-5.5c-0.1-1-0.7-2-1.6-2.5l-4.9-2.5C39.7,347.1,38.6,347.1,37.6,347.7z"/>
<polygon fill="none" stroke="#ED4537" stroke-width="3" stroke-linecap="round" stroke-miterlimit="10" stroke-dasharray="2,8" points="
	545.2,419.9 535.2,426.3 524.6,420.9 524,409 534.1,402.6 544.6,408 "/>
<polygon fill="none" stroke="#FFCD1E" stroke-width="2" stroke-linecap="round" stroke-miterlimit="10" points="534.3,407 
	541,410.7 541.1,418.4 534.5,422.2 527.8,418.6 527.8,410.9 "/>
<g>
	<polyline fill="none" stroke="#189DD8" stroke-width="3" stroke-linecap="round" stroke-miterlimit="10" points="59.6,223.5 
		59.6,335.2 95.2,335.2 95.2,353.9 109.9,353.9 	"/>
	
		<ellipse fill="none" stroke="#189DD8" stroke-width="3" stroke-linecap="round" stroke-miterlimit="10" cx="115" cy="355.4" rx="5.2" ry="5"/>
</g>
<polyline fill="none" stroke="#189DD8" stroke-width="3" stroke-linecap="round" stroke-miterlimit="10" points="575.9,225.5 
	575.9,298.3 525.7,298.3 510.9,290.7 510.9,298.3 510.9,302.9 523.5,298.3 "/>
<path fill="#FFCD1E" d="M336.7,223.8v6c0,1.1,0.6,2,1.4,2.6l4.8,2.8c0.9,0.5,2,0.5,3,0l4.8-2.8c0.9-0.5,1.4-1.5,1.4-2.6v-6"/>
<polyline fill="none" stroke="#189DD8" stroke-width="3" stroke-linecap="round" stroke-miterlimit="10" points="295.6,486.1 
	301.5,476.6 289.9,476.6 295.6,486.1 295.6,554.1 267.3,554.1 267.3,566.7 "/>
<g>
	
		<circle fill="none" stroke="#FFCE1D" stroke-width="3" stroke-linecap="round" stroke-miterlimit="10" cx="494.2" cy="245.7" r="5.2"/>
	<polyline fill="none" stroke="#FFCE1D" stroke-width="3" stroke-linecap="round" stroke-miterlimit="10" points="453.7,225.8 
		453.7,255.3 469.1,255.3 469.1,275.6 494.2,275.6 494.2,251 	"/>
</g>
<g>
	<circle fill="#E762A4" cx="234" cy="244.8" r="5.2"/>
	
		<polyline fill="none" stroke="#E762A4" stroke-width="3" stroke-linecap="round" stroke-linejoin="round" stroke-miterlimit="10" stroke-dasharray="8.8564,17.7127" points="
		233.9,254.1 233.9,268.1 283.4,268.1 283.4,246.3 284.4,222.5 	"/>
</g>
<polyline fill="none" stroke="#ED4537" stroke-width="3" stroke-linecap="round" stroke-miterlimit="10" stroke-dasharray="36,6" points="
	533.6,398.4 533.6,384 610.1,384 "/>
<circle fill="#E762A4" cx="367.5" cy="476.9" r="5.2"/>
<polyline fill="none" stroke="#E762A4" stroke-width="3" stroke-linecap="round" stroke-linejoin="round" stroke-miterlimit="10" stroke-dasharray="8.8564,17.7127" points="
	404.4,566.7 404.4,476.9 370.9,476.9 "/>
<line fill="none" stroke="#ED4537" stroke-width="3" stroke-linecap="round" stroke-miterlimit="10" stroke-dasharray="36,6,2,6" x1="92" y1="499" x2="337.6" y2="237.3"/>
<circle fill="none" stroke="#FFCE1D" stroke-width="3" stroke-linecap="round" stroke-miterlimit="10" cx="494.2" cy="542" r="5.2"/>
<polyline fill="none" stroke="#FFCE1D" stroke-width="3" stroke-linecap="round" stroke-miterlimit="10" points="610.1,488 541,488 
	541,542 500.7,542 "/>
<g>
	
		<polyline fill="none" stroke="#FFCD1E" stroke-width="3" stroke-linecap="round" stroke-miterlimit="10" stroke-dasharray="8.8564,6.6423" points="
		83.4,225.5 83.4,257.2 106.1,257.2 178.5,257.2 178.5,369.3 	"/>
</g>
<polygon fill="#1E262E" stroke="#189DD8" stroke-width="3" stroke-linecap="round" stroke-linejoin="round" stroke-miterlimit="10" points="
	449.8,457.5 443.6,461.1 437.5,457.5 437.5,450.4 443.6,446.9 449.8,450.4 "/>
<circle fill="none" stroke="#FFCE1D" stroke-width="3" stroke-linecap="round" stroke-miterlimit="10" cx="443.6" cy="453.9" r="10.9"/>
<polyline fill="none" stroke="#E762A4" stroke-width="3" stroke-linecap="round" stroke-linejoin="round" stroke-miterlimit="10" stroke-dasharray="8.8564,17.7127" points="
	260.6,428.8 260.6,451.3 225.1,451.3 225.1,493 "/>
<polygon fill="none" stroke="#E762A4" stroke-width="3" stroke-miterlimit="10" points="225.3,498.3 220.6,507.8 230.6,507.8 "/>
<line fill="none" stroke="#1E262E" stroke-width="3" stroke-linecap="round" stroke-linejoin="round" stroke-miterlimit="10" x1="1.3" y1="525.7" x2="1.3" y2="535"/>
<polyline fill="#1E262E" points="1.2,554.2 -0.2,554.3 -0.2,567.6 5.9,567.8 7.8,557.9 "/>
<polygon fill="#010101" points="6.9,566.6 6.2,567.6 6,567.5 6.4,565.5 6.9,566.5 "/>
<g>
	<g>
		<g>
			
				<polygon fill="none" stroke="#EC4536" stroke-width="3" stroke-linecap="round" stroke-miterlimit="10" stroke-dasharray="1.4761,5.9042" points="
				51.8,496.5 25.9,514.4 28.4,545.7 56.8,559.3 82.7,541.4 80.3,510 			"/>
			
				<polygon fill="none" stroke="#FFCC1C" stroke-width="3" stroke-linecap="round" stroke-miterlimit="10" stroke-dasharray="8.8564,6.6423" points="
				52.5,505 33.6,518 35.4,540.9 56.1,550.8 75,537.8 73.2,514.9 			"/>
			
				<path fill="#159BD7" stroke="#159BD7" stroke-width="3" stroke-linecap="round" stroke-linejoin="round" stroke-miterlimit="10" d="
				M52.2,520.1l-4.4,3.1c-0.9,0.6-1.4,1.7-1.3,2.8l0.4,5.4c0.1,1.1,0.7,2.1,1.7,2.5l4.9,2.3c1,0.5,2.2,0.4,3.1-0.2l4.4-3.1
				c0.9-0.6,1.4-1.7,1.3-2.8l-0.4-5.4c-0.1-1.1-0.7-2.1-1.7-2.5l-4.9-2.3C54.2,519.4,53.1,519.5,52.2,520.1z"/>
			
				<line fill="none" stroke="#159BD7" stroke-width="3" stroke-linecap="round" stroke-miterlimit="10" stroke-dasharray="2,7" x1="80.3" y1="510" x2="28.4" y2="545.7"/>
			<g>
				<g>
					
						<line fill="none" stroke="#159BD7" stroke-width="3" stroke-linecap="round" stroke-miterlimit="10" x1="25.9" y1="514.4" x2="26.8" y2="514.8"/>
					
						<line fill="none" stroke="#159BD7" stroke-width="3" stroke-linecap="round" stroke-miterlimit="10" stroke-dasharray="1.9989,6.9962" x1="33.1" y1="517.8" x2="78.7" y2="539.5"/>
					
						<line fill="none" stroke="#159BD7" stroke-width="3" stroke-linecap="round" stroke-miterlimit="10" x1="81.8" y1="541" x2="82.7" y2="541.4"/>
				</g>
			</g>
			
				<line fill="none" stroke="#159BD7" stroke-width="3" stroke-linecap="round" stroke-miterlimit="10" stroke-dasharray="2,7" x1="51.8" y1="496.5" x2="56.8" y2="559.3"/>
			
				<polygon fill="none" stroke="#E662A3" stroke-width="3" stroke-linecap="round" stroke-linejoin="round" stroke-miterlimit="10" stroke-dasharray="8.8564,17.7127" points="
				53.1,513.1 40.9,521.5 42.1,536.3 55.5,542.7 67.8,534.3 66.6,519.5 			"/>
			<path stroke="#159BD7" stroke-width="3" stroke-linecap="round" stroke-linejoin="round" stroke-miterlimit="10" d="M49.8,488.8
				l-4.4,3.1c-0.9,0.6-1.4,1.7-1.3,2.8l0.4,5.4c0.1,1.1,0.7,2.1,1.7,2.5l4.9,2.3c1,0.5,2.2,0.4,3.1-0.2l4.4-3.1
				c0.9-0.6,1.4-1.7,1.3-2.8l-0.4-5.4c-0.1-1.1-0.7-2.1-1.7-2.5l-4.9-2.3C51.9,488,50.7,488.1,49.8,488.8z"/>
			<path stroke="#159BD7" stroke-width="3" stroke-linecap="round" stroke-linejoin="round" stroke-miterlimit="10" d="M23.9,506.8
				l-4.4,3.1c-0.9,0.6-1.4,1.7-1.3,2.8l0.4,5.4c0.1,1.1,0.7,2.1,1.7,2.5l4.9,2.3c1,0.5,2.2,0.4,3.1-0.2l4.4-3.1
				c0.9-0.6,1.4-1.7,1.3-2.8l-0.4-5.4c-0.1-1.1-0.7-2.1-1.7-2.5l-4.9-2.3C26,506.1,24.8,506.2,23.9,506.8z"/>
			<path stroke="#159BD7" stroke-width="3" stroke-linecap="round" stroke-linejoin="round" stroke-miterlimit="10" d="M78.2,502.5
				l-4.4,3.1c-0.9,0.6-1.4,1.7-1.3,2.8l0.4,5.4c0.1,1.1,0.7,2.1,1.7,2.5l4.9,2.3c1,0.5,2.2,0.4,3.1-0.2l4.4-3.1
				c0.9-0.6,1.4-1.7,1.3-2.8l-0.4-5.4c-0.1-1.1-0.7-2.1-1.7-2.5l-4.9-2.3C80.3,501.8,79.1,501.9,78.2,502.5z"/>
			<path stroke="#159BD7" stroke-width="3" stroke-linecap="round" stroke-linejoin="round" stroke-miterlimit="10" d="M56,567.3
				l-4.9-2.3c-1-0.5-1.7-1.4-1.7-2.5l-0.4-5.4c-0.1-1.1,0.4-2.1,1.3-2.8l4.4-3.1c0.9-0.6,2.1-0.7,3.1-0.2l4.9,2.3
				c1,0.5,1.7,1.4,1.7,2.5l0.4,5.4c0.1,1.1-0.4,2.1-1.3,2.8l-4.4,3.1C58.2,567.7,57,567.8,56,567.3z"/>
			<path stroke="#159BD7" stroke-width="3" stroke-linecap="round" stroke-linejoin="round" stroke-miterlimit="10" d="M27.7,554
				l-4.9-2.3c-1-0.5-1.7-1.4-1.7-2.5l-0.4-5.4c-0.1-1.1,0.4-2.1,1.3-2.8l4.4-3.1c0.9-0.6,2.1-0.7,3.1-0.2l4.9,2.3
				c1,0.5,1.7,1.4,1.7,2.5l0.4,5.4c0.1,1.1-0.4,2.1-1.3,2.8l-4.4,3.1C29.8,554.4,28.7,554.5,27.7,554z"/>
			<path stroke="#159BD7" stroke-width="3" stroke-linecap="round" stroke-linejoin="round" stroke-miterlimit="10" d="M81.9,549.7
				l-4.9-2.3c-1-0.5-1.7-1.4-1.7-2.5l-0.4-5.4c-0.1-1.1,0.4-2.1,1.3-2.8l4.4-3.1c0.9-0.6,2.1-0.7,3.1-0.2l4.9,2.3
				c1,0.5,1.7,1.4,1.7,2.5l0.4,5.4c0.1,1.1-0.4,2.1-1.3,2.8l-4.4,3.1C84.1,550.1,82.9,550.2,81.9,549.7z"/>
		</g>
		
			<path fill="none" stroke="#EC4536" stroke-width="3" stroke-linecap="round" stroke-miterlimit="10" stroke-dasharray="36,6,2,6" d="
			M94.4,500.7"/>
		
			<line fill="none" stroke="#EC4536" stroke-width="3" stroke-linecap="round" stroke-miterlimit="10" stroke-dasharray="36,6,2,6" x1="17" y1="555.2" x2="2.2" y2="568.7"/>
		
			<line fill="none" stroke="#EC4536" stroke-width="3" stroke-linecap="round" stroke-miterlimit="10" stroke-dasharray="36,6,2,6" x1="98.1" y1="547.2" x2="157.7" y2="567.6"/>
		
			<line fill="none" stroke="#EC4536" stroke-width="3" stroke-linecap="round" stroke-miterlimit="10" stroke-dasharray="36,6,2,6" x1="9.9" y1="504.6" x2="1" y2="498.3"/>
		
			<line fill="none" stroke="#FFCC1C" stroke-width="3" stroke-linecap="round" stroke-miterlimit="10" stroke-dasharray="8.8564,6.6423" x1="32.6" y1="498.2" x2="6.2" y2="442"/>
		
			<line fill="none" stroke="#FFCC1C" stroke-width="3" stroke-linecap="round" stroke-miterlimit="10" stroke-dasharray="8.8564,6.6423" x1="69.7" y1="497.2" x2="95.3" y2="436.7"/>
		
			<line fill="none" stroke="#FFCC1C" stroke-width="3" stroke-linecap="round" stroke-miterlimit="10" stroke-dasharray="8.8564,6.6423" x1="89.3" y1="525.2" x2="174.1" y2="518.5"/>
		
			<line fill="none" stroke="#FFCC1C" stroke-width="3" stroke-linecap="round" stroke-miterlimit="10" stroke-dasharray="8.8564,6.6423" x1="74.5" y1="557.8" x2="84.4" y2="569.4"/>
		
			<line fill="none" stroke="#FFCC1C" stroke-width="3" stroke-linecap="round" stroke-miterlimit="10" stroke-dasharray="8.8564,6.6423" x1="40.9" y1="560.5" x2="35.2" y2="569.7"/>
		
			<line fill="none" stroke="#FFCC1C" stroke-width="3" stroke-linecap="round" stroke-miterlimit="10" stroke-dasharray="8.8564,6.6423" x1="20.3" y1="530.6" x2="1" y2="533"/>
	</g>
</g>
<line fill="none" stroke="#ED4537" stroke-width="3" stroke-linecap="round" stroke-miterlimit="10" stroke-dasharray="36,6,2,6" x1="51.8" y1="482.1" x2="40.9" y2="369.3"/>
</svg>
