<?xml version="1.0" encoding="utf-8"?>
<!-- Generator: Adobe Illustrator 18.1.0, SVG Export Plug-In . SVG Version: 6.00 Build 0)  -->
<svg version="1.1" id="Layer_1" xmlns="http://www.w3.org/2000/svg" xmlns:xlink="http://www.w3.org/1999/xlink" x="0px" y="0px"
	 viewBox="0 0 612 792" enable-background="new 0 0 612 792" xml:space="preserve">
<g>
	<path fill="none" stroke="#189CD8" stroke-width="6" stroke-linecap="round" stroke-miterlimit="10" d="M300.7,501.3
		c-3.9,9.2,1.9,10.7,10.7,15.2c4.2,2.1,5.9,5.8,4.1,9.1c-1.4,2.8-6.8,3.4-10.2,0.8c-4.6-3.4-8.8-7-13.3-10.6
		c-5.6,6.4-3.1,21.5,7.9,25.9c9.9,3.9,13.7,12,15.9,21.4c2.1,9.1,5.8,17,13.1,23c5.9,4.9,13.2,6.4,20.6,6.9c3.6,0.3,6,1.4,5.8,5.1
		c-0.2,3.9-2.2,6.5-6.6,6.5c-10.5,0.2-19.6-3.1-27.2-10.1c-2.8-2.4-5.5-4.9-8.9-7.9c-3.7,10.2-3.1,19.7-1.9,29.2
		c1.1,9.9,5.4,18.5,10.3,26.8c2.1,3.8,1.7,6.6-1.5,9.1c-3.4,2.5-6,0.3-7.4-2.1c-3.5-5.7-6.2-11.7-9.4-17.5c-0.6-1.2-1.7-2.1-2.6-3.2
		c-1,1-2.3,1.8-2.9,3.1c-1.5,3.3-2.8,6.7-4.2,10.1c-1.5,3.5-4,5.7-7.8,4.5c-3.3-1-4.6-3.3-3.7-7.3c1.9-9.4,7.6-16,13.8-22.7
		c1.5-1.6,2.7-4.3,2.5-6.4c-0.3-11.8,1.7-23.3,5.8-34.6c2.6-7.1,1.7-14.1-4.5-19.3c-2.9-2.4-5.9-4.7-9-6.8c-1.9-1.3-3.4-1-4.5,1.6
		c-2.9,6.6-5.1,14.1-9.7,19.5c-4.5,5.3-11.4,8.9-17.6,12.4c-1.5,0.9-5.5-0.4-6.7-1.9c-1.9-2.5-0.7-5.8,2-7.9c3-2.1,6.4-3.6,9.1-5.9
		c10.2-9,13.2-21.2,14.6-34c0.6-5.1-0.1-10.5,1.4-15.3c2.5-7.9,6.4-15.2,9.7-22.7c1.2-2.9,2.3-5.6,3.6-8.6c-1.1-0.3-1.5-0.6-1.6-0.5
		"/>
</g>
<g id="Mv3MGU.tif_1_">
	<g>
		<path fill="#28B24B" d="M218.3,366c-9.2,15.3-13,29.9-7.7,45.6c3.2,9.4,8.9,17,18.3,20.9c7.1,3,14.3,3.2,21.3-1.4
			c-23.6-20.7-30.8-31.7-26.4-39.9c0.3,0.1,0.7,0.1,0.9,0.3c0.5,0.4,0.9,0.9,1.2,1.4c12.1,17.1,27.8,29.6,47.5,36.8
			c2.9,1,3.3,2.7,3.2,5.4c-1.1,20.2,1.7,40,6.9,59.5c0.3,1.2,1.1,3.1,2,3.4c6.9,2.2,14.1,4.1,22.1,6.4c-2.1-6.2-3.8-10.9-5.2-15.5
			c-1.4-4.9-2.9-9.8-4-14.7c-0.3-1.5-0.4-3.8,0.4-4.8c3-3.5,6.3-6.5,9.8-9.9c1.4,1.6,2.4,2.7,3.4,3.7c10.5,11.9,22.1,14.5,35.7,6.1
			c6.9-4.3,13-10.2,18.8-16c7.4-7.4,15.5-13.2,26.1-14.7c0.9-0.1,1.8-0.9,2.9-1.4c-0.6-1-0.9-1.7-1.3-2.3
			c-16-22.4-46.5-32-72.2-22.7c-8.7,3.2-15.1,8.9-17,18.4c-0.6,2.9-0.1,5.9-0.2,8.8c2.5-0.8,5.3-1.4,7.8-2.6
			c11.1-5.5,22.1-11.4,35-11.6c4.9-0.1,10-0.4,15.4,3.8c-25.7,4.4-47.3,15-66.8,32c-0.6-4.4-1.2-7.3-1.4-10.3
			c-2.3-24.8-0.7-49.1,11.2-71.5c4.7-8.8,11.4-16.3,17-24.6c1-1.4,1-3.5,1.4-5.3c-1.8,0.3-4,0.1-5.5,0.9c-2.2,1.1-4,3.2-6,4.7
			c-5.3,4.1-10.5,8.3-16,12.5c-3.4-2.7-3.2-3.6,0.1-9.1c1.4-2.4,2.1-6.1,1.5-8.9c-0.7-3.3-2.9-6.4-5.2-8.9
			c-6.1-6.4-14.7-10.8-16.3-21.9c-6.7,5.9-10.5,12-12.1,19.3c-2.3,10.2-1.5,20,5.8,28.3c2.7,3,5.9,5.2,10.4,2.4
			c-2.3-4.7-4.9-9-6.4-13.6c-1.6-4.6-2.4-9.6-0.1-14.5c0.8,0.5,1.2,0.5,1.3,0.8c6.1,10.7,12.2,21.4,18.2,32.2c0.6,1,0.8,2.9,0.2,3.8
			c-8.2,13.5-13.2,28.2-15.9,43.7c-0.2,0.9-2.2,2.3-3.1,2.1c-3.6-1.1-7-2.7-10.9-4.3c1.9-3.9,3.7-7,5.1-10.3c2.9-6.6,1.9-11-4-14.9
			c-5.5-3.7-11.4-6.9-17.6-9.3C236.8,380.3,225.2,378.2,218.3,366z"/>
		<path fill="#28B24B" d="M218.3,366c6.9,12.2,18.6,14.3,29.3,18.3c6.2,2.2,12.1,5.6,17.6,9.3c6,4,6.8,8.3,4,14.9
			c-1.4,3.4-3.2,6.5-5.1,10.3c3.9,1.5,7.2,3.2,10.9,4.3c0.8,0.2,2.9-1.2,3.1-2.1c2.8-15.5,7.8-30.1,15.9-43.7
			c0.5-0.9,0.3-2.8-0.2-3.8c-6-10.8-12.1-21.5-18.2-32.2c-0.1-0.2-0.5-0.3-1.3-0.8c-2.3,4.9-1.5,9.9,0.1,14.5
			c1.6,4.6,4.2,8.9,6.4,13.6c-4.4,2.8-7.8,0.5-10.4-2.4c-7.2-8.3-8.2-18.1-5.8-28.3c1.6-7.2,5.4-13.4,12.1-19.3
			c1.6,11.1,10.2,15.5,16.3,21.9c2.3,2.4,4.5,5.7,5.2,8.9c0.6,2.8,0,6.4-1.5,8.9c-3.3,5.5-3.5,6.3-0.1,9.1c5.5-4.3,10.8-8.4,16-12.5
			c2-1.5,3.8-3.6,6-4.7c1.5-0.8,3.7-0.6,5.5-0.9c-0.5,1.7-0.5,3.9-1.4,5.3c-5.6,8.3-12.3,15.9-17,24.6
			c-11.9,22.4-13.6,46.7-11.2,71.5c0.3,3,0.8,5.9,1.4,10.3c19.6-17.1,41.1-27.6,66.8-32c-5.4-4.2-10.5-3.8-15.4-3.8
			c-12.9,0.2-23.9,6.1-35,11.6c-2.4,1.2-5.2,1.7-7.8,2.5c0-3-0.4-6,0.2-8.8c1.9-9.5,8.4-15.2,17-18.4c25.8-9.4,56.2,0.3,72.2,22.7
			c0.4,0.6,0.7,1.3,1.3,2.3c-1.1,0.6-1.9,1.3-2.9,1.4c-10.6,1.5-18.7,7.2-26.1,14.7c-5.8,5.8-11.8,11.7-18.8,16
			c-13.6,8.3-25.2,5.8-35.7-6.1c-0.9-1-1.9-2-3.4-3.7c-3.5,3.4-6.8,6.4-9.8,9.9c-0.9,1-0.8,3.3-0.4,4.8c1.1,4.9,2.5,9.9,4,14.7
			c1.4,4.7,3.1,9.3,5.2,15.5c-8.1-2.2-15.2-4.2-22.1-6.4c-0.9-0.3-1.7-2.1-2-3.4c-5.2-19.5-8.1-39.3-6.9-59.5
			c0.2-2.8-0.3-4.4-3.2-5.4c-19.7-7.3-35.4-19.8-47.5-36.8c-0.4-0.5-0.8-1-1.2-1.4c-0.2-0.2-0.6-0.2-0.9-0.3
			c-4.4,8.1,2.9,19.1,26.4,39.9c-7,4.6-14.2,4.4-21.3,1.4c-9.4-3.9-15.1-11.6-18.3-20.9C205.3,395.9,209.1,381.4,218.3,366z"/>
	</g>
</g>
<path fill="none" stroke="#189CD8" stroke-width="2" stroke-linecap="round" stroke-miterlimit="10" stroke-dasharray="2,12" d="
	M327.8,284.4"/>
<path fill="none" stroke="#189CD8" stroke-width="2" stroke-linecap="round" stroke-miterlimit="10" stroke-dasharray="2,12" d="
	M303.4,312.2"/>
<path fill="none" stroke="#189DD8" stroke-width="6" stroke-linecap="round" stroke-linejoin="round" stroke-miterlimit="10" stroke-dasharray="25,25" d="
	M300.7,288.6c22.8-92.6,72.7-115.3,72.7-115.3"/>
<path fill="none" stroke="#189DD8" stroke-width="2" stroke-linecap="round" stroke-linejoin="round" stroke-miterlimit="10" stroke-dasharray="7,7" d="
	M325.8,319.7"/>
<path fill="none" stroke="#189DD8" stroke-width="6" stroke-linecap="round" stroke-linejoin="round" stroke-miterlimit="10" stroke-dasharray="25,25" d="
	M319.5,315.8c22.8-92.6,72.7-115.3,72.7-115.3"/>
<g>
	<g>
		<path fill="#FFCD1E" d="M434.3,159.7c-4.4-6.6-8.3-12.4-12.4-18.8c15.9-10.2,31.5-20.2,47.2-30c1.1-0.7,3.5-0.7,4.7-0.1
			c11.1,6.3,22,12.9,32.9,19.3C483.6,139.6,459.2,149.6,434.3,159.7z"/>
		<path fill="#FFCD1E" d="M390.3,142.5c28.8,0.9,40.6,6.5,35.6,46.6C417.5,165.2,404.9,154,390.3,142.5z"/>
	</g>
	<g id="Sti8BZ_1_">
		<g>
			<path fill="#F6EA7C" d="M389.9,147c10,5.5,18,14.7,24.5,25.2c3.5,5.6,6.4,11.5,7.3,18.3c1.1,8.4-3.3,11.8-10.9,8.4
				c-11.1-5.1-18.6-14.3-25.2-24.3c-3.9-5.9-7.1-12.2-8.3-19.3c-0.5-3.2-1.1-6.7,2-9.1C382.6,144,385.8,145.3,389.9,147z"/>
		</g>
	</g>
</g>
<path fill="none" stroke="#189DD8" stroke-width="6" stroke-linecap="round" stroke-linejoin="round" stroke-miterlimit="10" d="
	M202.5,514.6c107.6-30.4,182.5,1,182.5,1"/>
</svg>
