<?xml version="1.0" encoding="utf-8"?>
<!-- Generator: Adobe Illustrator 18.1.0, SVG Export Plug-In . SVG Version: 6.00 Build 0)  -->
<svg version="1.1" id="Layer_1" xmlns="http://www.w3.org/2000/svg" xmlns:xlink="http://www.w3.org/1999/xlink" x="0px" y="0px"
	 viewBox="-830 833.1 806.1 792" enable-background="new -830 833.1 806.1 792" xml:space="preserve">
<circle fill="#1E262E" cx="-426.9" cy="1219.5" r="330.4"/>
<path fill="#28B24B" stroke="#28B24B" stroke-miterlimit="10" d="M-360.6,1167.1 M-349.7,1184.7"/>
<path fill="#28B24B" stroke="#28B24B" stroke-miterlimit="10" d="M-397.2,1162"/>
<path fill="#28B24B" stroke="#28B24B" stroke-width="8" stroke-miterlimit="10" d="M-365.8,1186.3"/>
<path fill="#189DD8" d="M-361.4,1029.8l-5.2-0.5c0.3-2.9,1.5-5.3,3.5-7c3.7-3.1,8.9-2.7,9.5-2.6l-0.5,5.2c-1-0.1-3.9,0-5.7,1.4
	C-360.7,1027.2-361.2,1028.3-361.4,1029.8z"/>
<g>
	
		<path fill="none" stroke="#ED4537" stroke-width="5" stroke-linecap="round" stroke-miterlimit="10" stroke-dasharray="36,6,2,6" d="
		M-341.5,1247.3c4.5,0,7.7,2.6,9.8,6.8c2.6,5.4,1.6,10-2.2,14.3c-1.9,2.1-4.9,4-3.2,7.4c1.6,3.2,4.9,3.8,8.3,4.2
		c11.8,1.2,30.5-9,35.9-19.5c3.6-7,1.5-10.2-6.7-10.1c-7.2,0.1-13-2-14.7-9.8c-1.6-7,4.4-14.7,10.7-17.6"/>
	<g>
		<path fill="#189DD8" d="M-374.7,1068.6c-10,0-20.3-2.5-26.4-7.5c-2.7-2.2-6.2-5.5-5.6-9.5c0.6-4,4.9-6.2,8.1-7.5
			c9.8-3.9,10.6-8.7,10.5-11.9c-0.2-2.6-1.1-5.7-1.8-6.2l2.2-4.7c3.9,1.7,4.7,8.6,4.8,10.6c0.4,7.5-4.2,13.2-13.7,17.1
			c-4.5,1.8-4.9,3.2-4.9,3.4c0,0.3,0,1.7,3.7,4.7c10,8.1,34.8,8.5,44.3,0.6c3.9-3.3,3.9-4.7,3.9-4.9c-0.1-0.6-1.3-1.7-4.4-2.8
			c-6.5-2.2-10.8-6.3-12.2-11.6c-0.5-1.7-0.6-3.4-0.5-5.2l0-0.1c0-0.3,0.1-0.8,0.1-1.4c0.1-1.7,0.2-2.9,0.3-3.6l5.1,1
			c-0.1,0.4-0.2,2-0.2,2.9c0,0.6-0.1,1.2-0.1,1.6c-0.1,1.2,0.1,2.3,0.4,3.5c1.2,4.6,5.5,6.9,8.9,8.1c4.7,1.7,7.3,3.9,7.8,6.8
			c0.7,4-2.9,7.5-5.7,9.8C-355.8,1066.3-365.2,1068.6-374.7,1068.6z"/>
		<polyline fill="#189DD8" stroke="#189DD8" stroke-miterlimit="10" points="-389.9,1025.9 -474.3,1025.9 -474.3,1021.2 
			-387.7,1021.2 		"/>
		<g>
			<g>
				<path fill="#189DD8" d="M-464.3,1179.6c24.3,0,48.3,0,54.9,0c0.6,0,1.2,0,1.9-0.1c1.8-0.1,3.6-0.2,5.6,0.3
					c5.8,1.5,12.7,4.4,14.2,14c1.3,8.7-0.2,18.9-8.4,21.7c-0.7,0.3-2.7,0.9-3,1.3c-0.1,0.2-0.1,1.2,1.2,5.1c1.9,5.7,11.3,10,21.8,10
					c0,0,0.1,0,0.1,0c8,0,17.5-2.7,20-10.1c0.1-0.4,0.3-0.8,0.4-1.3c0.5-1.4,1.2-3.4,1-3.9c0,0-0.3-0.5-2.2-1
					c-8.8-2.5-12.6-10.9-10.2-22.7c1.8-8.9,7.5-13.6,16.3-13.6c4.5,0,9,0,13.5-0.1c10.3-0.1,20.9-0.1,31.4,0.1
					c1.1,0,2.1,0.1,2.9,0.1c0.9,0.1,1.9,0.1,2.5,0.1c0.1-0.3,0.2-1,0.2-2.3c0.2-8.2,0.1-16.5,0-24.6c-0.1-6.9-0.2-14.1-0.1-21.2
					c0.2-7.1,1.8-12.1,5.1-15.4c3.1-3,7.4-4.5,13.2-4.3c6.9,0.2,9.6,4.7,11.7,8.8c0.3,0.7,0.6,1.4,0.9,2.1c1.2,3,1.6,3.7,3.5,3.4
					c2.5-0.3,3.8-2.1,5.4-5.8c4.9-11.2,4.5-23-1.1-36c-0.8-1.9-2.7-5.1-5.6-5.3c-0.9,0-1.2,0.2-2.2,3.1c-0.2,0.5-0.4,1.1-0.6,1.6
					c-3.5,8.7-9.9,12.6-17.4,10.8c-7.8-2-12.5-8.6-12.8-17.8c-0.3-16.3-0.4-30,0-45.9c0.1-3.1-0.2-4.1-0.5-4.4
					c-0.7-0.7-4.1-0.8-6-0.9c-2.5-0.1-5.3-0.2-8.3-0.3c-13.2-0.4-31.4-1-42.2-0.4c-1.5,0.1-2.7-1.1-2.7-2.6c-0.1-1.5,1-2.8,2.5-2.9
					c11-0.6,29.3,0,42.6,0.4c3,0.1,5.8,0.2,8.3,0.3c4.5,0.1,7.6,0.3,9.6,2.6c1.7,1.9,2,4.6,1.9,8.3c-0.4,15.8-0.3,29.5,0,45.7
					c0.2,6.6,3.3,11.2,8.7,12.6c5,1.2,8.8-1.3,11.4-7.6c0.2-0.4,0.3-0.8,0.5-1.3c0.8-2.5,2.4-7,7.4-6.8c4.2,0.2,7.9,3.2,10.2,8.4
					c6.3,14.5,6.6,27.8,1.1,40.5c-1.4,3-3.7,8.1-9.5,8.9c-6,0.8-7.9-3.9-9-6.8c-0.2-0.6-0.5-1.2-0.7-1.7c-1.9-3.9-3.4-5.7-7.2-5.8
					c-4.3-0.1-7.4,0.8-9.4,2.8c-2.2,2.2-3.4,6-3.5,11.6c-0.1,7,0,14.1,0.1,21c0.1,8.1,0.2,16.5,0,24.8c-0.1,2.8-0.4,4.9-1.9,6.3
					c-1.6,1.5-3.7,1.4-6.3,1.2c-0.8-0.1-1.7-0.1-2.7-0.1c-10.4-0.3-21-0.2-31.3-0.1c-4.5,0-9,0.1-13.5,0.1c-6.3,0-9.9,2.9-11.2,9.2
					c-1,5.1-1.6,14,6.5,16.3c1.8,0.5,4.4,1.5,5.5,3.8c1.3,2.5,0.3,5.2-0.7,8.3c-0.1,0.4-0.3,0.8-0.4,1.2c-1.6,4.6-5,8.2-10,10.6
					c-4.2,2-9.4,3.1-14.9,3.1c0,0-0.1,0-0.1,0c-15.1,0-24.4-7.1-26.7-13.6c-1.5-4.3-2.1-7-1-9.3c1.1-2.4,3.6-3.3,6-4.1
					c6.6-2.3,5.2-13.5,4.9-15.7c-0.8-5.2-3.7-7.9-10.3-9.6c-1.2-0.3-2.6-0.2-4.1-0.2c-0.7,0-1.4,0.1-2.1,0.1c-6.6,0-32.3,0-56.6,0"
					/>
			</g>
			<g>
				
					<path fill="none" stroke="#ED4537" stroke-width="5" stroke-linecap="round" stroke-miterlimit="10" stroke-dasharray="36,6,2,6" d="
					M-349.7,1247.9c-13.8,7.2-40.8,22-54.7,28.9c-4.4,2.1-5.2,4.6-2.7,9.2c7.5,13.6,14.5,27.4,21.8,41.1c2,3.6,3.8,7.9,9.4,6.6
					c6.1-1.5,4.3-6.3,4.3-10.3c0-11.6,7.4-16.1,18-11c14.5,6.8,26.2,27.5,24.6,43.4c-1.2,12.7-10.2,16.7-20.8,9.2
					c-2.8-2-5.5-4.8-9.5-1.8c-3.7,2.9-2.8,6.6-1.2,9.7c7.5,15,15.4,29.8,23.2,44.7c2.8,5.5,6.2,1.5,8.8,0.2
					c12.4-6.2,24.7-12.8,36.8-19.5c4.4-2.4,9.1-4,13.8-4c4.5,0,7.7,2.6,9.8,6.8c2.6,5.4,1.6,10-2.2,14.3c-1.9,2.1-4.9,4-3.2,7.4
					c1.6,3.2,4.9,3.8,8.3,4.2c11.8,1.2,30.5-9,35.9-19.5c3.6-7,1.5-10.2-6.7-10.1c-7.2,0.1-13-2-14.7-9.8c-1.6-7,1.8-11.6,8-14.8
					c13.4-7,26.5-14.8,40.2-21.2c7.6-3.6,7.2-6.8,3.6-13.1c-6.9-12-13.2-24.4-19.5-36.8c-6.3-12.3-2.8-22,8.2-23.3
					c4.7-0.5,8,1.7,11.2,4.7c5.1,4.9,8,1.9,9.7-3.3c3.7-11.5-8.7-35.7-20.7-39.5c-4.9-1.5-10.1-2.4-8.7,6.2c1.2,7.5-1.4,14.1-9.1,16
					c-7.5,1.9-12.7-2.8-16.1-9.5c-6.9-13.5-14.2-26.8-21-40.3c-2.2-4.3-4.4-6.9-9.6-4.1c-13.6,7.5-14.3,6.6-27.9,14"/>
			</g>
			<path fill="#28B14A" d="M-324,1154.3c-1.4,0-2.6-1.2-2.6-2.6v-21.8c0-1.4,1.2-2.6,2.6-2.6c1.4,0,2.6,1.2,2.6,2.6v21.8
				C-321.4,1153.1-322.6,1154.3-324,1154.3z M-324,1110.8c-1.4,0-2.6-1.2-2.6-2.6v-21.8c0-1.4,1.2-2.6,2.6-2.6
				c1.4,0,2.6,1.2,2.6,2.6v21.8C-321.4,1109.6-322.6,1110.8-324,1110.8z M-324,1067.3c-1.4,0-2.6-1.2-2.6-2.6v-21.8
				c0-1.4,1.2-2.6,2.6-2.6c1.4,0,2.6,1.2,2.6,2.6v21.8C-321.4,1066.1-322.6,1067.3-324,1067.3z"/>
			<path fill="#FFCD1E" stroke="#FFCD1E" stroke-miterlimit="10" d="M-440.4,1082.6c11-15.3,21.3,0,21.3,0
				c11.1,19.3,0.3,38.6,0.3,38.6s-10.8,18.3-20.1,1.7c0,0-9.6-21.5-23.1-3.9v54.8c0,0,0.8,12.8-8.1,10.9h-59
				c-12.3-18.5,3.6-26.6,3.6-26.6c10.9-6.5-0.4-15.2-0.4-15.2c-24.4-15.7-47.9,0.4-47.9,0.4s-11.8,8.7,0.4,17.4
				c0,0,13.7,7.5,4.7,23.9h-43.6c0,0-15.3-0.5-13.1-14.1v-51.5c-12.4-3.9-20.2,3-20.2,3c-10.4,15.7-16.6,0.4-16.6,0.4
				s-7.6-15.5,1.6-39.9c0,0,10.1-15.9,14.6-0.3c0,0,3.7,10.6,20.9,8.3v-45.4c0,0-1.8-23.6,16.6-22.6h51.5c0,0,4.2-9.1-5.8-16.3
				c0,0-28.8-16.1,0.3-23.9c0,0,11.9-5.7,31.3,0c0,0,25.2,5.2,4.8,19.6c0,0-14.1,7.2-5.3,19.4h57.4c0,0,12.3,8.9,11.8,20.3v42.5
				C-462.6,1084.2-452,1098.7-440.4,1082.6z"/>
			<g>
				<path fill="#1E262E" d="M-492.1,1054.4h-21.8c-1.4,0-2.6-1.2-2.6-2.6c0-1.4,1.2-2.6,2.6-2.6h21.8c1.4,0,2.6,1.2,2.6,2.6
					C-489.5,1053.3-490.6,1054.4-492.1,1054.4z"/>
				<path fill="#1E262E" d="M-535.6,1054.4h-21.8c-1.4,0-2.6-1.2-2.6-2.6c0-1.4,1.2-2.6,2.6-2.6h21.8c1.4,0,2.6,1.2,2.6,2.6
					C-533,1053.3-534.1,1054.4-535.6,1054.4z"/>
				<path fill="#1E262E" d="M-579.1,1054.4h-21.8c-1.4,0-2.6-1.2-2.6-2.6c0-1.4,1.2-2.6,2.6-2.6h21.8c1.4,0,2.6,1.2,2.6,2.6
					C-576.5,1053.3-577.7,1054.4-579.1,1054.4z"/>
			</g>
		</g>
	</g>
</g>
</svg>
