<?xml version="1.0" encoding="utf-8"?>
<!-- Generator: Adobe Illustrator 18.1.0, SVG Export Plug-In . SVG Version: 6.00 Build 0)  -->
<svg version="1.1" id="Layer_1" xmlns="http://www.w3.org/2000/svg" xmlns:xlink="http://www.w3.org/1999/xlink" x="0px" y="0px"
	 viewBox="-1668 833.1 806.1 792" enable-background="new -1668 833.1 806.1 792" xml:space="preserve">
<circle fill="#1E262E" cx="-1264.9" cy="1219.5" r="330.4"/>
<path fill="#28B24B" stroke="#28B24B" stroke-miterlimit="10" d="M-1198.6,1167.1 M-1187.7,1184.7"/>
<path fill="#28B24B" stroke="#28B24B" stroke-miterlimit="10" d="M-1235.2,1162"/>
<path fill="#28B24B" stroke="#28B24B" stroke-width="8" stroke-miterlimit="10" d="M-1203.8,1186.3"/>
<g>
	<g>
		<path fill="none" stroke="#189DD8" stroke-width="6" stroke-linecap="round" stroke-linejoin="round" stroke-miterlimit="10" d="
			M-1393.1,1351.3c-0.7-0.7-1.3-1.3-2.4-2c-0.3,0.3-0.7,0.3-1,0.7c4.8,7.9,9.3,15.8,14.8,23.4c10.6,15.1,24.4,26.8,41.2,36.1
			c-7.2,1-13.4,2-19.6,3.1c-5.8,0-11.6,0-17.5,0c-2-0.3-4.1-0.7-6.2-1c-32.9-4.8-57.3-22.3-74.2-50.8c-16.1-27.1-22-56.7-23.1-87.6
			c-1-32.6,4.8-64.6,13.1-96.2s19.9-61.5,38.9-88.2c20.6-29.2,47-50.2,82.1-58.8c7.9-2,16.5-2.8,24.4-4.1c7.2,0,14.1,0,21.3,0
			c1,0.3,2,0.7,3.5,0.7c22.6,2,43.7,9,62.8,21.6c23.7,15.8,41.2,37.4,54,62.5c27.8,55.3,41.2,114,37.7,176.3
			c-1.3,23.7-7.2,46.4-18.2,67.6c-14.4,27.1-35.4,46.7-66,55c-5.8,1.3-11.6,2.4-17.5,3.5c-6.2,0-12.8,0-18.9,0c-3.1-0.3-5.8-1-9-1.3
			c-3.1-0.3-5.8-1-10-1.7c30.6-16.8,52.2-40.9,66-72.1 M-1369.2,1144.1c-4.8,3.8-9.6,7.2-13.4,11c-12.3,12.3-19.3,28.2-24.1,44.7
			c-9,31.9-9.6,64.3-4.8,96.9c0.7,5.2,1,10.6,3.5,14.8c9,15.1,19.6,28.9,33.4,40.5c36.7,31.2,85.5,32.6,123.3,2.8
			c19.6-15.5,33.7-34.7,42.9-57.7c3.5-8.3,4.5-16.8,3.5-25.4c-0.3-5.2-1-10-2-14.8c-6.2-28.2-20.6-50.5-47.7-62.5
			c-9.3-4.1-19.6-6.2-29.6-8.6c-19.9-4.8-39.9-9.3-58.3-18.2C-1352.9,1161.9-1362.9,1156.1-1369.2,1144.1z"/>
	</g>
	<path fill="#189DD8" d="M-1252.4,1222.1c1.7,5.5,1.3,10.6-4.5,14.1c-4.1,2.4-8.6,2-12.3-1.3c-3.5-3.1-4.5-6.8-2.4-13.1
		c0.3-1-0.7-2-1.7-1.7c-4.5,1.3-7.9,4.1-10.3,7.9c-0.3,0.3-0.7,1-1.3,1.3c-0.7,0.3-1.7,0-2-1c0-1-0.3-1.7,0-2.4
		c3.8-6.8,10.3-10,17.5-11.3c10-1.7,19.6-0.3,27.4,6.5"/>
	<path fill="#189DD8" d="M-1389.4,1225.5c4.8-7.5,12.8-10.3,21.3-11c9.3-0.7,17.5,1.3,24.4,7.9c1,1,2,2.4,2.8,3.8
		c0.3,0.7,0.3,1.3,0,2c0,1-1,1.3-2,1c-0.3-0.3-1-0.7-1.3-1c-2.4-2-4.5-4.1-6.5-5.8c-2,1-1.7,1-3.8,2c1,4.8-0.3,8.6-3.8,11
		c-3.8,2.8-9,2.8-12.8,0c-3.8-3.1-4.8-6.8-2.8-13.8"/>
	<path fill="none" stroke="#189DD8" stroke-width="5" stroke-linecap="round" stroke-linejoin="round" stroke-miterlimit="10" d="
		M-1312.1,1333.4c19.3,0,35-15.5,35-34.7l-69.8-0.3C-1346.8,1317.9-1331.3,1333.4-1312.1,1333.4"/>
	<path fill="#189DD8" d="M-1304.2,1248.5c-15.5,4.8-16.5,7.2-10,22.3c-6.2-1.3-10-10-6.8-17.5
		C-1317.5,1245.1-1310.7,1246.1-1304.2,1248.5z"/>
	<g>
		<path fill="#FFCD1E" stroke="#FFCD1E" stroke-miterlimit="10" d="M-1194.9,1251c-0.3,0-0.3,0.3-0.7,0c0-0.3,0-0.7,0-0.7
			c0-10.6,0-21.3,0-31.9c0-0.3,0-0.7,0-1.3c0-2.8,0-5.5,0-8.3c0-0.7-0.3-1-1-1c-2,0-3.8,0-5.8-0.3c-3.1-0.3-6.2-1.3-9.3-2.8
			c-5.2-2.4-9.6-5.5-13.1-10c-2.8-3.1-4.8-6.5-6.2-10.6c-0.7-1.7-1-3.8-1.7-5.5c-0.7-4.5-0.7-9.3-0.7-13.8c0-21.6,0-43.7,0-65.3
			c0-8.6,2.8-16.5,8.3-23.4c5.2-6.2,11.6-10.3,19.6-12.3c3.1-0.7,6.2-1,9.3-1c41.5,0,83.4,0,125.1,0c10.3,0,18.9,3.5,26.1,10.6
			c5.8,5.8,9.3,12.8,10.3,20.9c0.3,3.1,0.3,5.8,0.3,9c0,22,0,43.7,0,65.6c0,2.8-0.3,5.8-0.7,8.6c-0.7,5.2-2.8,10-5.8,14.4
			c-2.8,4.1-6.5,7.5-10.6,10.3c-5.8,3.8-12,5.5-18.9,5.5c-10.3,0-20.9,0-31.2,0c-13.4,0-26.8,0-40.2,0c-0.7,0-1.3,0-1.7,0.7
			c-2.4,2-5.2,4.1-7.5,6.2c-2.8,2.4-5.5,4.5-8.3,6.8c-3.8,3.1-7.2,5.8-11,9c-4.1,3.1-7.9,6.5-12,9.6c-2.8,2.4-5.8,4.8-8.6,6.8
			C-1191.6,1248.2-1193.2,1249.6-1194.9,1251z"/>
	</g>
	<path fill="#189DD8" d="M-1094,1124.5l10.3-5.8c2-1,4.1-1,6.2,0l10.3,5.8c2,1,3.1,3.1,3.1,5.5v12c0,2-1,4.1-3.1,5.5l-10.3,5.8
		c-2,1-4.1,1-6.2,0l-10.3-5.8c-2-1-3.1-3.1-3.1-5.5v-12.3C-1097.1,1127.7-1095.7,1125.5-1094,1124.5z"/>
	<path fill="#ED4537" d="M-1143.7,1124.5l10.3-5.8c2-1,4.1-1,6.2,0l10.3,5.8c2,1,3.1,3.1,3.1,5.5v12c0,2-1,4.1-3.1,5.5l-10.3,5.8
		c-2,1-4.1,1-6.2,0l-10.3-5.8c-2-1-3.1-3.1-3.1-5.5v-12.3C-1146.9,1127.7-1145.9,1125.5-1143.7,1124.5z"/>
	<path fill="#28B24B" stroke="#28B24B" stroke-miterlimit="10" d="M-1193.6,1124.5l10.3-5.8c2-1,4.1-1,6.2,0l10.3,5.8
		c2,1,3.1,3.1,3.1,5.5v12c0,2-1,4.1-3.1,5.5l-10.3,5.8c-2,1-4.1,1-6.2,0l-10.3-5.8c-2-1-3.1-3.1-3.1-5.5v-12.3
		C-1196.7,1127.7-1195.7,1125.5-1193.6,1124.5z"/>
</g>
</svg>
