<?xml version="1.0" encoding="utf-8"?>
<!-- Generator: Adobe Illustrator 18.1.0, SVG Export Plug-In . SVG Version: 6.00 Build 0)  -->
<svg version="1.1" id="Layer_1" xmlns="http://www.w3.org/2000/svg" xmlns:xlink="http://www.w3.org/1999/xlink" x="0px" y="0px"
	 viewBox="6 102 600 600" enable-background="new 6 102 600 600" xml:space="preserve">
<g>
	<g>
		<path fill="none" stroke="#189DD8" stroke-width="6" stroke-linecap="round" stroke-linejoin="round" stroke-miterlimit="10" d="
			M420.3,393.4c2.4,19.4,3.1,45.2,2,65.4c-1.3,23.2-7.1,45.5-17.8,66.3c-14.1,26.6-34.7,45.8-64.7,53.9c-5.7,1.3-11.4,2.4-17.2,3.4
			c-6.1,0-12.5,0-18.5,0c-3-0.3-5.7-1-8.8-1.3c-3-0.3-5.7-1-9.8-1.7c30-16.5,51.2-40.1,64.7-70.7 M177.5,521.9
			c-0.7-0.7-1.3-1.3-2.4-2c-0.3,0.3-0.7,0.3-1,0.7c4.7,7.7,9.1,15.5,14.5,22.9c10.4,14.8,23.9,26.3,40.4,35.4c-7.1,1-13.1,2-19.2,3
			c-5.7,0-11.4,0-17.2,0c-2-0.3-4-0.7-6.1-1c-32.3-4.7-56.2-21.9-72.7-49.8c-15.8-26.6-21.6-55.6-22.6-85.9
			c-1-32,4.7-63.3,12.8-94.3s19.5-60.3,38.1-86.5c20.2-28.6,46.1-49.2,80.5-57.6c7.7-2,16.2-2.7,23.9-4c7.1,0,13.8,0,20.9,0
			c1,0.3,2,0.7,3.4,0.7c22.2,2,42.8,8.8,61.6,21.2c5.1,3.4,9.9,8.1,14.5,12.1 M201,318.8c-4.7,3.7-9.4,7.1-13.1,10.8
			c-12.1,12.1-18.9,27.6-23.6,43.8c-8.8,31.3-9.4,63-4.7,95c0.7,5.1,1,10.4,3.4,14.5c8.8,14.8,19.2,28.3,32.7,39.7
			c36,30.6,83.8,32,120.9,2.7c19.2-15.2,33-34,42.1-56.6c3.4-8.1,4.4-16.5,3.4-24.9c-0.3-5.1-1-9.8-2-14.5
			c-6.1-27.6-20.2-49.5-46.8-61.3c-9.1-4-19.2-6.1-29-8.4c-19.5-4.7-39.1-9.1-57.2-17.8C216.9,336.3,207.1,330.6,201,318.8z"/>
	</g>
	<path fill="#189DD8" d="M315.5,395.3c1.7,5.4,1.3,10.4-4.4,13.8c-4,2.4-8.4,2-12.1-1.3c-3.4-3-4.4-6.7-2.4-12.8
		c0.3-1-0.7-2-1.7-1.7c-4.4,1.3-7.7,4-10.1,7.7c-0.3,0.3-0.7,1-1.3,1.3c-0.7,0.3-1.7,0-2-1c0-1-0.3-1.7,0-2.4
		c3.7-6.7,10.1-9.8,17.2-11.1c9.8-1.7,19.2-0.3,26.9,6.4"/>
	<path fill="#189DD8" d="M181.2,398.6c4.7-7.4,12.5-10.1,20.9-10.8c9.1-0.7,17.2,1.3,23.9,7.7c1,1,2,2.4,2.7,3.7
		c0.3,0.7,0.3,1.3,0,2c0,1-1,1.3-2,1c-0.3-0.3-1-0.7-1.3-1c-2.4-2-4.4-4-6.4-5.7c-2,1-1.7,1-3.7,2c1,4.7-0.3,8.4-3.7,10.8
		c-3.7,2.7-8.8,2.7-12.5,0c-3.7-3-4.7-6.7-2.7-13.5"/>
	<path fill="none" stroke="#189DD8" stroke-width="5" stroke-linecap="round" stroke-linejoin="round" stroke-miterlimit="10" d="
		M256.9,504.4c18.9,0,34.3-15.2,34.3-34l-68.4-0.3C222.9,489.2,238.1,504.4,256.9,504.4"/>
	<path fill="#189DD8" d="M264.7,421.2c-15.2,4.7-16.2,7.1-9.8,21.9c-6.1-1.3-9.8-9.8-6.7-17.2C251.6,417.8,258.3,418.8,264.7,421.2z
		"/>
	<g>
		
			<path fill="none" stroke="#FFCE1C" stroke-width="6" stroke-linecap="round" stroke-miterlimit="10" stroke-dasharray="36,6,2,6" d="
			M371.8,423.6c-0.3,0-0.3,0.3-0.7,0c0-0.3,0-0.7,0-0.7c0-10.4,0-20.9,0-31.3c0-0.3,0-0.7,0-1.3c0-2.7,0-5.4,0-8.1c0-0.7-0.3-1-1-1
			c-2,0-3.7,0-5.7-0.3c-3-0.3-6.1-1.3-9.1-2.7c-5.1-2.4-9.4-5.4-12.8-9.8c-2.7-3-4.7-6.4-6.1-10.4c-0.7-1.7-1-3.7-1.7-5.4
			c-0.7-4.4-0.7-9.1-0.7-13.5c0-21.2,0-42.8,0-64c0-8.4,2.7-16.2,8.1-22.9c5.1-6.1,11.4-10.1,19.2-12.1c3-0.7,6.1-1,9.1-1
			c40.7,0,81.8,0,122.6,0c10.1,0,18.5,3.4,25.6,10.4c5.7,5.7,9.1,12.5,10.1,20.5c0.3,3,0.3,5.7,0.3,8.8c0,21.6,0,42.8,0,64.3
			c0,2.7-0.3,5.7-0.7,8.4c-0.7,5.1-2.7,9.8-5.7,14.1c-2.7,4-6.4,7.4-10.4,10.1c-5.7,3.7-11.8,5.4-18.5,5.4c-10.1,0-20.5,0-30.6,0
			c-13.1,0-26.3,0-39.4,0c-0.7,0-1.3,0-1.7,0.7c-2.4,2-5.1,4-7.4,6.1c-2.7,2.4-5.4,4.4-8.1,6.7c-3.7,3-7.1,5.7-10.8,8.8
			c-4,3-7.7,6.4-11.8,9.4c-2.7,2.4-5.7,4.7-8.4,6.7C375.1,420.9,373.5,422.2,371.8,423.6z"/>
	</g>
	<path fill="#FFCD1E" d="M470.8,299.6l10.1-5.7c2-1,4-1,6.1,0l10.1,5.7c2,1,3,3,3,5.4v11.8c0,2-1,4-3,5.4l-10.1,5.7c-2,1-4,1-6.1,0
		l-10.1-5.7c-2-1-3-3-3-5.4v-12.1C467.7,302.7,469.1,300.6,470.8,299.6z"/>
	<path fill="#ED4537" d="M422,299.6l10.1-5.7c2-1,4-1,6.1,0l10.1,5.7c2,1,3,3,3,5.4v11.8c0,2-1,4-3,5.4l-10.1,5.7c-2,1-4,1-6.1,0
		l-10.1-5.7c-2-1-3-3-3-5.4v-12.1C418.9,302.7,419.9,300.6,422,299.6z"/>
	<path fill="#28B14A" d="M373.1,299.6l10.1-5.7c2-1,4-1,6.1,0l10.1,5.7c2,1,3,3,3,5.4v11.8c0,2-1,4-3,5.4l-10.1,5.7c-2,1-4,1-6.1,0
		l-10.1-5.7c-2-1-3-3-3-5.4v-12.1C370.1,302.7,371.1,300.6,373.1,299.6z"/>
</g>
</svg>
