<?xml version="1.0" encoding="UTF-8" standalone="no"?>
<svg width="70px" height="70px" viewBox="0 0 70 70" version="1.1" xmlns="http://www.w3.org/2000/svg" xmlns:xlink="http://www.w3.org/1999/xlink">
    <!-- Generator: sketchtool 3.6 (26304) - http://www.bohemiancoding.com/sketch -->
    <title>icon-plug</title>
    <desc>Created with sketchtool.</desc>
    <defs></defs>
    <g id="Gonebusy-Developer-Portal" stroke="none" stroke-width="1" fill="none" fill-rule="evenodd">
        <g id="Home-Desktop-HD-1440" transform="translate(-686.000000, -646.000000)" fill="#3399CC">
            <g id="ctas" transform="translate(0.000000, 580.000000)">
                <g id="row-cta-2" transform="translate(610.000000, 50.000000)">
                    <g id="icon-plug" transform="translate(76.000000, 16.000000)">
                        <g id="Group">
                            <path d="M40.96925,40.31825 L34.839,46.44675 L23.555,35.16275 L29.6835,29.0325 C30.709,28.007 30.709,26.34625 29.6835,25.32075 C28.658,24.29525 26.99725,24.29525 25.97175,25.32075 L19.84325,31.451 L16.19975,27.80925 C15.21625,26.82575 13.4715,26.82575 12.488,27.80925 L6.86175,33.43725 C-0.69825,40.9955 -1.2635,52.9235 5.1345,61.15725 L0.90125,65.3905 C-0.12425,66.416 -0.12425,68.07675 0.90125,69.10225 C1.414,69.615 2.08425,69.8705 2.758,69.8705 C3.42825,69.8705 4.102,69.615 4.61475,69.10225 L8.84625,64.869 C12.516,67.7285 16.99075,69.293 21.71575,69.293 C27.328,69.293 32.6025,67.109 36.56975,63.14 L42.196,57.512 C43.2215,56.4865 43.2215,54.82575 42.196,53.80025 L38.55425,50.1585 L44.6845,44.03 C45.71,43.0045 45.71,41.34375 44.6845,40.31825 C43.659,39.29275 41.99475,39.29275 40.96925,40.31825 L40.96925,40.31825 Z M32.8545,59.42825 C29.87775,62.40325 25.921,64.043 21.71225,64.043 C17.50525,64.043 13.5485,62.40325 10.5735,59.42825 C4.431,53.284 4.431,43.28975 10.5735,37.149 L14.343,33.37775 L32.97875,52.01 C32.9805,52.01175 32.98225,52.01525 32.98225,52.017 C32.98575,52.01875 32.98925,52.01875 32.98925,52.02225 L36.62575,55.657 L32.8545,59.42825 L32.8545,59.42825 Z M69.09875,4.61125 C70.12425,3.5875 70.12425,1.925 69.09875,0.8995 C68.07325,-0.126 66.4125,-0.126 65.387,0.8995 L61.15375,5.1345 C52.92,-1.26 40.992,-0.6965 33.43375,6.86 L27.80575,12.48975 C27.293,13.0025 27.0375,13.67275 27.0375,14.3465 C27.0375,15.01675 27.293,15.6905 27.80575,16.20325 L53.7985,42.1925 C54.31125,42.70525 54.98325,42.96075 55.65525,42.96075 L55.657,42.96075 C56.329,42.96075 57.001,42.70525 57.51375,42.1925 L63.14175,36.5645 C67.109,32.59725 69.29475,27.3245 69.29475,21.714 C69.29475,16.989 67.7285,12.5125 64.869,8.8445 L69.09875,4.61125 L69.09875,4.61125 Z M59.42825,32.85275 L55.657,36.624 L33.37425,14.34475 L37.1455,10.57175 C43.288,4.43275 53.28225,4.43275 59.4265,10.57525 C62.4015,13.55025 64.04125,17.507 64.04125,21.714 C64.04125,25.921 62.40325,29.87775 59.42825,32.85275 L59.42825,32.85275 Z" id="Shape"></path>
                        </g>
                    </g>
                </g>
            </g>
        </g>
    </g>
</svg>