<?xml version="1.0" encoding="utf-8"?>
<!-- Generator: Adobe Illustrator 18.1.0, SVG Export Plug-In . SVG Version: 6.00 Build 0)  -->
<svg version="1.1" id="Layer_1" xmlns="http://www.w3.org/2000/svg" xmlns:xlink="http://www.w3.org/1999/xlink" x="0px" y="0px"
	 viewBox="0 0 612 792" enable-background="new 0 0 612 792" xml:space="preserve">
<g>
	<g>
		<path fill="#189DD8" d="M360.2,415.4c0,0-0.1,0-0.1,0c-17.4,0-28.1-7.8-30.6-15c-1.7-4.7-2.4-7.7-1.2-10.2
			c1.3-2.6,4.1-3.6,6.9-4.5c7.6-2.5,6-14.8,5.6-17.3c-0.9-5.8-4.2-8.7-11.8-10.5c-1.4-0.3-3-0.3-4.7-0.2c-0.8,0-1.6,0.1-2.4,0.1
			c-7.5,0-35.1,0-63.1,0c-28.7,0-57.7,0.1-65.9,0.1c-1.7,0-3-1.3-3-3s1.3-3,3-3c8.2,0,37.2,0,65.9-0.1c27.9,0,55.5,0,63.1,0
			c0.7,0,1.4,0,2.1-0.1c2.1-0.1,4.2-0.2,6.4,0.4c6.7,1.6,14.6,4.8,16.3,15.4c1.5,9.5-0.2,20.8-9.7,23.9c-0.8,0.3-3.1,1-3.4,1.5
			c-0.1,0.2-0.1,1.3,1.4,5.6c2.2,6.3,13,11,25,11c0,0,0.1,0,0.1,0c9.2,0,20.1-2.9,23-11.1c0.2-0.5,0.3-0.9,0.5-1.4
			c0.5-1.5,1.4-3.7,1.2-4.3c0,0-0.4-0.6-2.6-1.1c-10.1-2.7-14.5-12-11.7-24.9c2.1-9.8,8.6-14.9,18.7-14.9c5.2,0,10.3,0,15.5-0.1
			c11.8-0.1,24.1-0.1,36.1,0.2c1.3,0,2.4,0.1,3.3,0.2c1.1,0.1,2.2,0.1,2.8,0.1c0.1-0.3,0.2-1.1,0.2-2.5c0.3-9,0.1-18.2,0-27.1
			c-0.1-7.6-0.2-15.5-0.1-23.3c0.2-7.8,2.1-13.4,5.9-17c3.5-3.4,8.5-4.9,15.1-4.7c7.9,0.3,11.1,5.1,13.4,9.7c0.4,0.8,0.7,1.5,1,2.3
			c1.4,3.3,1.9,4,4,3.8c2.9-0.4,4.3-2.4,6.2-6.4c5.6-12.3,5.2-25.3-1.2-39.6c-1-2.1-3.1-5.6-6.5-5.8c-1,0-1.4,0.2-2.6,3.4
			c-0.2,0.6-0.4,1.2-0.7,1.8c-4.1,9.6-11.3,13.9-20,11.9c-8.9-2.1-14.4-9.5-14.7-19.6c-0.3-17.9-0.5-33,0-50.5
			c0.1-3.4-0.3-4.5-0.6-4.8c-0.8-0.8-4.8-0.9-6.9-1c-2.8-0.1-6.1-0.2-9.6-0.3c-15.2-0.5-36.1-1.1-48.5-0.4c-1.7,0.1-3.1-1.2-3.2-2.8
			c-0.1-1.7,1.2-3.1,2.8-3.2c12.6-0.7,33.6,0,49,0.4c3.5,0.1,6.7,0.2,9.5,0.3c5.2,0.1,8.8,0.4,11.1,2.8c2,2.1,2.3,5.1,2.2,9.1
			c-0.5,17.4-0.3,32.5,0,50.3c0.2,7.3,3.8,12.4,10,13.9c5.7,1.3,10.1-1.5,13.1-8.4c0.2-0.4,0.3-0.9,0.5-1.4c0.9-2.7,2.7-7.7,8.5-7.4
			c4.9,0.2,9,3.5,11.7,9.3c7.2,16,7.6,30.6,1.2,44.6c-1.6,3.4-4.2,8.9-10.9,9.8c-6.9,0.9-9.1-4.3-10.3-7.4c-0.3-0.7-0.5-1.3-0.8-1.8
			c-2.2-4.3-3.9-6.3-8.2-6.4c-5-0.1-8.5,0.9-10.8,3.1c-2.6,2.5-3.9,6.6-4,12.8c-0.1,7.7,0,15.5,0.1,23.1c0.1,8.9,0.3,18.2,0,27.3
			c-0.1,3.1-0.5,5.4-2.2,6.9c-1.9,1.7-4.3,1.5-7.3,1.4c-0.9-0.1-1.9-0.1-3.1-0.2c-11.9-0.3-24.1-0.2-35.9-0.2
			c-5.2,0-10.3,0.1-15.5,0.1c-7.3,0-11.4,3.2-12.9,10.2c-1.2,5.6-1.8,15.4,7.4,17.9c2.1,0.6,5,1.6,6.4,4.2c1.5,2.8,0.4,5.7-0.9,9.1
			c-0.2,0.4-0.3,0.9-0.5,1.3c-1.8,5-5.8,9.1-11.5,11.7C372.6,414.2,366.6,415.4,360.2,415.4z"/>
	</g>
	<g>
		
			<path fill="none" stroke="#ED4537" stroke-width="5" stroke-linecap="round" stroke-miterlimit="10" stroke-dasharray="36,6,2,6" d="
			M390.6,437.9c-15.8,8.3-46.9,25.3-62.8,33.3c-5,2.4-6,5.3-3.1,10.6c8.7,15.6,16.6,31.5,25.1,47.2c2.2,4.2,4.4,9.1,10.8,7.5
			c7-1.7,4.9-7.2,4.9-11.8c0-13.4,8.5-18.5,20.7-12.6c16.6,7.9,30.1,31.6,28.3,49.9c-1.4,14.6-11.7,19.2-23.9,10.6
			c-3.3-2.3-6.3-5.5-10.9-2c-4.3,3.4-3.3,7.5-1.4,11.1c8.7,17.2,17.7,34.3,26.6,51.3c3.3,6.3,7.1,1.7,10.1,0.2
			c14.3-7.1,28.4-14.7,42.3-22.4c5.1-2.8,10.4-4.6,15.9-4.6c5.2,0,8.9,3,11.2,7.9c3,6.2,1.8,11.5-2.5,16.4c-2.1,2.4-5.6,4.6-3.7,8.5
			c1.8,3.7,5.6,4.4,9.5,4.8c13.6,1.3,35-10.3,41.2-22.4c4.1-8.1,1.7-11.7-7.7-11.6c-8.3,0.1-14.9-2.3-16.9-11.2
			c-1.8-8.1,2-13.4,9.2-17c15.4-8.1,30.4-17,46.2-24.4c8.8-4.1,8.3-7.9,4.1-15c-8-13.8-15.2-28-22.4-42.3
			c-7.2-14.2-3.2-25.3,9.4-26.7c5.4-0.6,9.2,1.9,12.9,5.4c5.9,5.6,9.2,2.1,11.1-3.8c4.3-13.3-10-41-23.8-45.4
			c-5.6-1.7-11.6-2.8-10,7.1c1.4,8.7-1.6,16.2-10.5,18.4c-8.7,2.1-14.6-3.2-18.5-10.9c-8-15.5-16.3-30.8-24.2-46.3
			c-2.6-4.9-5-8-11-4.7c-15.6,8.6-16.4,7.5-32,16.1"/>
	</g>
	<path fill="#189DD8" d="M361.8,231.9c-11.5,0-23.3-2.9-30.3-8.6c-3.1-2.5-7.1-6.4-6.4-11c0.7-4.6,5.6-7.1,9.3-8.6
		c11.2-4.5,12.2-10,12-13.7c-0.2-3-1.3-6.6-2.1-7.2l2.5-5.4c4.4,2,5.4,9.8,5.5,12.2c0.5,8.6-4.8,15.2-15.7,19.6
		c-5.1,2.1-5.6,3.7-5.6,3.9c0,0.3,0,1.9,4.3,5.4c11.5,9.3,40,9.8,50.9,0.7c4.5-3.7,4.5-5.3,4.4-5.6c-0.1-0.7-1.5-2-5-3.2
		c-7.5-2.6-12.4-7.2-14-13.4c-0.5-2-0.7-3.9-0.6-6l0-0.1c0-0.4,0.1-1,0.1-1.7c0.1-2,0.2-3.3,0.4-4.2l5.9,1.2
		c-0.1,0.5-0.2,2.3-0.2,3.3c0,0.7-0.1,1.4-0.1,1.8c-0.1,1.4,0.1,2.7,0.4,4c1.4,5.2,6.3,7.9,10.2,9.3c5.4,1.9,8.4,4.5,9,7.8
		c0.8,4.6-3.3,8.7-6.5,11.3C383.6,229.3,372.8,231.9,361.8,231.9z"/>
	<path fill="#189DD8" d="M377.1,187.4l-6-0.5c0.3-3.3,1.7-6.1,4-8c4.3-3.6,10.3-3.1,10.9-3l-0.6,6c-1.1-0.1-4.5,0-6.5,1.7
		C377.9,184.4,377.3,185.6,377.1,187.4z"/>
	<path fill="#28B24B" stroke="#28B24B" stroke-miterlimit="10" d="M148.1,184.7c7.4-1.5,12.8-5.3,14.2-12.3c0.2-1,0.3-2.1,0.4-3.3
		c0-1.8-0.2-3.5-0.6-5c-1.6-5.6-6.3-9.2-12.2-11.2c-10.8-3.7-7.7-9-1.6-14c12.1-10.1,42-9.8,54.7,0.3c7.8,6.1,7.3,10.6-2,14.5
		c-7.9,3.3-12.1,8.2-11.5,16.7c0.5,8.1,5,12.6,12.9,14.2c0.9,0.4,1.3,0.8,1,1.4c-0.2,0.5-0.5,0.8-0.8,0.8c-18.2,0-36.3,0-54.5,0
		c-0.8-0.5-1.1-1-0.7-1.5C147.5,184.9,147.8,184.7,148.1,184.7z"/>
	<path fill="#189DD8" d="M269,295.4c-3.8,0-3.5-47.8-3.5-49.5v-33.7c0-3.2,0-6.5,0-9.7c0-5.7,0-11.6,0-17.5
		c-8.4-1.6-46.8-2.5-85.6-3c-44.5,0.1-83.2,0.2-90.8-0.2c-2-0.1-3-1.7-3-3.1c0-1.3,0.7-2.9,3.8-3c0.6,0,1.4,0,2.5,0
		c2.2,0,5.3,0,9.3-0.1c8.9,0,20.2,0,31.7,0c11,0,27.8,0.1,45.7,0.3c6.6,0,13.4,0,20.2-0.1c58-0.2,118-0.3,130,0.3h16.3
		c1.7,0,3,1.3,3,3s-1.3,3-3,3h-16.4c-0.1,0-0.1,0-0.2,0c-6.6-0.3-29-0.4-57.8-0.4c0.1,0.3,0.2,0.7,0.2,1.1c0.1,6.6,0,13.2,0,19.6
		c0,3.2,0,6.4,0,9.7V246C271.5,247.6,270.7,295.4,269,295.4z"/>
	<path fill="#189DD8" d="M420,330.4c-1.7,0-3-1.3-3-3v-25c0-1.7,1.3-3,3-3s3,1.3,3,3v25C423,329.1,421.7,330.4,420,330.4z
		 M420,280.4c-1.7,0-3-1.3-3-3v-25c0-1.7,1.3-3,3-3s3,1.3,3,3v25C423,279.1,421.7,280.4,420,280.4z M420,230.4c-1.7,0-3-1.3-3-3v-25
		c0-1.7,1.3-3,3-3s3,1.3,3,3v25C423,229.1,421.7,230.4,420,230.4z"/>
	
		<path fill="none" stroke="#ED4537" stroke-width="5" stroke-linecap="round" stroke-miterlimit="10" stroke-dasharray="36,6,2,6" d="
		M399.9,437.2c5.2,0,8.9,3,11.2,7.9c3,6.2,1.8,11.5-2.5,16.4c-2.1,2.4-5.6,4.6-3.7,8.5c1.8,3.7,5.6,4.4,9.5,4.8
		c13.6,1.3,35-10.3,41.2-22.4c4.1-8.1,1.7-11.7-7.6-11.6c-8.3,0.1-14.9-2.3-16.9-11.2c-1.8-8.1,5-16.9,12.3-20.2"/>
	<rect x="82.9" y="248.1" fill="#28B24B" stroke="#28B24B" stroke-miterlimit="10" width="2" height="34"/>
	<polygon fill="#28B24B" stroke="#28B24B" stroke-miterlimit="10" points="154.2,304.4 156.3,281.6 192.6,302.7 154.8,306.2 	"/>
	<rect x="82.9" y="234.2" fill="#28B24B" stroke="#28B24B" stroke-miterlimit="10" width="22.6" height="68.5"/>
	<path fill="#28B24B" stroke="#28B24B" stroke-miterlimit="10" d="M271.4,350.7l-1.5-159.6c0,0-3.3-17.3-16.7-15.9h-51.6l-111,0.3
		c0,0-8.1-2-7.9,14l-0.1,58.6 M82.8,247.5v98.8c0,0-1.7,9.5,12.2,11.2h46.8c0,0,6.7,0.3,8.1-0.8 M269.4,237
		c2.8,13.7,4.1,12.5,12.3,14.2c1,0.2,2.1,0.3,3.3,0.3c1.8,0,3.5-0.2,5-0.6c5.6-1.6,9.2-6.3,11.2-12.2c3.7-10.8,8.9-7.6,14-1.7
		c10.2,12,9.9,42-0.2,54.7c-6.1,7.8-10.6,7.4-14.5-1.9c-3.3-7.9-8.2-12.1-16.7-11.5c-8.1,0.5-14.5,4.6-14.1,12.9
		c-0.4,0.9-0.8,1.3-1.3,1c-0.5-0.2-0.8-0.5-0.8-0.8c0-18.2-0.1-36.3-0.1-54.5c0.5-0.8,1-1.1,1.5-0.8
		C269.2,236.4,269.4,236.7,269.4,237z M154.3,355.2c4.3-2.7,7.8-7.9,8.9-13c0.2-1.1,0.3-2.3,0.4-3.5c0.1-2-0.1-3.8-0.7-5.5
		c-1.8-6.3-5.8-7.9-12.1-10.1c-4-1.4-6.3-3.1-6.6-4.9c-0.3-1.8,1.2-4.2,4.3-6.7c11.7-9.7,36.8-9.6,48.9,0.2c5.8,4.8,6.8,7.7,6.5,9.3
		c-0.2,1.7-1.9,3.1-4.9,4.4c-7.7,3.2-12.4,5.2-11.8,14.8c0.1,1.5,0.1,3.1,0.1,4.5c0,4.7,0.1,8.7,2.5,10.8c1.3,1.1,3.1,1.5,5.4,1.1
		l-0.5-3c-1.4,0.2-2.4,0.1-3-0.4c-1.4-1.2-1.4-4.7-1.5-8.5c0-1.5,0-3.1-0.1-4.7c-0.4-7.5,2.2-8.6,10-11.9c4.1-1.7,6.4-3.9,6.8-6.7
		c0.5-3.5-2-7.4-7.6-12.1c-13-10.6-40.1-10.7-52.7-0.2c-4.1,3.4-5.8,6.6-5.3,9.6c0.6,3,3.4,5.4,8.6,7.2c5.9,2,8.8,3.2,10.2,8.1
		c0.5,1.4,0.6,2.8,0.5,4.4c-0.1,1.1-0.2,2.2-0.4,3.1c-0.9,4.3-3.9,8.8-7.5,11.1c-2.3,1.5-4.7,2-7.1,1.5l-47.9-58.8v-38h-3v39.1
		l49.2,60.5l0.5,0.1c0.9,0.2,1.9,0.3,2.8,0.3C149.6,357.3,152,356.6,154.3,355.2z M88.9,242.8l0.4,50.3c0,0,56.8,56.1,59.7,62.8
		c0,0,33.9-18.9-6.1-34.8c-6.2-2.4,23.3-26.4,23.3-26.4L88.9,242.8z M272.3,352l-81.7,0.2c0,0-11.2-20.8,14-27.5l-1.4-11.6
		l58.2,21.3 M89.7,294.8c-1.5-7.4-4.3-12.8-11.3-14.2c-1-0.2-3.1-0.3-4.3-0.4c-1.8,0-3.5,0.2-5,0.6c-5.6,1.6-9.2,6.3-11.2,12.2
		c-3.7,10.8-9,7.6-14,1.6c-10.1-12.1-9.8-42,0.3-54.7c6.1-7.8,10.6-7.3,14.5,2c3.3,7.9,8.2,12.1,16.7,11.5c8.1-0.5,12.6-5,14.2-12.9
		c0.4-0.9,0.8-1.3,1.4-1c0.5,0.2,0.8,0.5,0.8,0.8c0,18.2,0,36.3,0,54.5c-0.5,0.8-1,1.1-1.5,0.7C89.9,295.4,89.7,295.1,89.7,294.8z
		 M161.2,342.8c0.2-1,0.3-2.2,0.4-3.3c0.1-2.1-0.3-3.8-0.6-5.2c-1.5-5.3-5.9-9.2-12.6-11.6c-4.1-1.4-6.2-2.7-6.4-4.1
		c-0.3-1.7,2.3-3.9,5.4-6.5l0.3-0.3l-0.6-0.8l-0.3,0.3c-3.5,2.9-6.2,5.1-5.8,7.5c0.3,1.8,2.5,3.3,7.1,4.9
		c6.5,2.2,10.5,5.9,11.9,10.9c0.3,1.2,0.7,2.9,0.6,4.8c-0.1,1.1-0.2,2.2-0.4,3.2c-1.6,7.9-6.3,12.9-12.9,13.9l0.1,1
		C154.5,356.4,159.5,351.1,161.2,342.8z M234.1,217.5h-25c-1.7,0-3-1.3-3-3s1.3-3,3-3h25c1.7,0,3,1.3,3,3S235.8,217.5,234.1,217.5z
		 M184.1,217.5h-25c-1.7,0-3-1.3-3-3s1.3-3,3-3h25c1.7,0,3,1.3,3,3S185.8,217.5,184.1,217.5z M134.1,217.5h-25c-1.7,0-3-1.3-3-3
		s1.3-3,3-3h25c1.7,0,3,1.3,3,3S135.8,217.5,134.1,217.5z"/>
	<path fill="#28B24B" stroke="#28B24B" stroke-miterlimit="10" d="M82.6,347.3l0.5-162.9c0,0,0.4-9.6,9.3-7.6"/>
	<polyline fill="#28B24B" stroke="#28B24B" stroke-miterlimit="10" points="260.8,280.8 260.8,267.2 275.9,267.2 	"/>
	
		<rect x="268.5" y="280.8" transform="matrix(0.9255 0.3789 -0.3789 0.9255 127.8762 -81.1324)" fill="#28B24B" stroke="#28B24B" stroke-miterlimit="10" width="3.1" height="7.2"/>
	
		<rect x="204.8" y="312.1" transform="matrix(0.9939 -0.11 0.11 0.9939 -34.031 25.5188)" fill="#28B24B" stroke="#28B24B" stroke-miterlimit="10" width="19.1" height="18.2"/>
	<rect x="221" y="317.2" fill="#28B24B" stroke="#28B24B" stroke-miterlimit="10" width="50.1" height="37.1"/>
	<rect x="188.4" y="335.1" fill="#28B24B" stroke="#28B24B" stroke-miterlimit="10" width="10.1" height="16.9"/>
	
		<rect x="191.4" y="326.6" transform="matrix(-0.8149 0.5796 -0.5796 -0.8149 550.4103 480.394)" fill="#28B24B" stroke="#28B24B" stroke-miterlimit="10" width="14.3" height="3"/>
</g>
<line fill="#28B24B" stroke="#28B24B" stroke-width="8" stroke-miterlimit="10" x1="191.7" y1="353.2" x2="270.1" y2="353.2"/>
<line fill="#28B24B" stroke="#28B24B" stroke-width="6" stroke-miterlimit="10" x1="266.3" y1="231.9" x2="268.3" y2="295.4"/>
</svg>
