<?xml version="1.0" encoding="utf-8"?>
<!-- Generator: Adobe Illustrator 18.1.0, SVG Export Plug-In . SVG Version: 6.00 Build 0)  -->
<svg version="1.1" id="Layer_1" xmlns="http://www.w3.org/2000/svg" xmlns:xlink="http://www.w3.org/1999/xlink" x="0px" y="0px"
	 viewBox="-2523.4 0 806.1 792" enable-background="new -2523.4 0 806.1 792" xml:space="preserve">
<circle fill="#1E262E" cx="-2120.3" cy="386.4" r="330.4"/>
<path fill="#28B24B" stroke="#28B24B" stroke-miterlimit="10" d="M-2054,334 M-2043.1,351.6"/>
<path fill="#28B24B" stroke="#28B24B" stroke-miterlimit="10" d="M-2090.6,328.9"/>
<path fill="#28B24B" stroke="#28B24B" stroke-width="8" stroke-miterlimit="10" d="M-2059.2,353.2"/>
<g>
	<path fill="#FFCD1E" stroke="#FFCD1E" stroke-miterlimit="10" d="M-2034.6,255.2c-8.9-13.4-16.8-25.2-25.2-38.1
		c32.3-20.7,63.9-41,95.8-60.8c2.3-1.4,7-1.4,9.5-0.2c22.5,12.8,44.7,26.1,66.8,39.1C-1934.7,214.4-1984.1,234.7-2034.6,255.2z"/>
	<path fill="#FFCD1E" d="M-2123.9,220.4c58.3,1.9,82.3,13.2,72.2,94.5C-2068.7,266.4-2094.1,243.6-2123.9,220.4z"/>
	<g id="Sti8BZ_4_">
		<g>
			<path fill="#F6EA7C" d="M-2124.5,229.5c20.3,11.2,36.4,29.8,49.6,51.1c7,11.4,13,23.4,14.9,37c2.3,17-6.6,24-22.1,17
				c-22.5-10.3-37.6-29-51.1-49.2c-7.9-12-14.5-24.8-16.8-39.1c-1-6.4-2.3-13.7,4.1-18.4C-2139.4,223.3-2133,226-2124.5,229.5z"/>
		</g>
	</g>
	<g>
		<path fill="none" stroke="#ED4537" stroke-width="4" stroke-linecap="round" stroke-miterlimit="10" d="M-2212.5,591.2
			c-2.1,4.9,1,5.7,5.7,8.1c2.2,1.1,3.2,3.1,2.2,4.8c-0.8,1.5-3.6,1.8-5.4,0.4c-2.5-1.8-4.7-3.8-7.1-5.7c-3,3.4-1.6,11.5,4.2,13.8
			c5.3,2.1,7.3,6.4,8.5,11.4c1.1,4.8,3.1,9.1,7,12.3c3.2,2.6,7,3.4,11,3.7c1.9,0.2,3.2,0.8,3.1,2.7c-0.1,2.1-1.2,3.5-3.5,3.5
			c-5.6,0.1-10.5-1.6-14.5-5.4c-1.5-1.3-2.9-2.6-4.7-4.2c-2,5.4-1.6,10.5-1,15.6c0.6,5.3,2.9,9.9,5.5,14.3c1.1,2,0.9,3.5-0.8,4.8
			c-1.8,1.4-3.2,0.2-4-1.1c-1.9-3.1-3.3-6.3-5-9.4c-0.3-0.7-0.9-1.1-1.4-1.7c-0.5,0.5-1.3,1-1.5,1.6c-0.8,1.7-1.5,3.6-2.2,5.4
			c-0.8,1.9-2.1,3.1-4.1,2.4c-1.7-0.5-2.5-1.7-2-3.9c1-5,4.1-8.6,7.4-12.1c0.8-0.9,1.4-2.3,1.4-3.4c-0.2-6.3,0.9-12.4,3.1-18.5
			c1.4-3.8,0.9-7.5-2.4-10.3c-1.5-1.3-3.2-2.5-4.8-3.6c-1-0.7-1.8-0.5-2.4,0.9c-1.5,3.5-2.7,7.5-5.2,10.4c-2.4,2.8-6.1,4.7-9.4,6.6
			c-0.8,0.5-2.9-0.2-3.6-1c-1-1.4-0.4-3.1,1.1-4.2c1.6-1.1,3.4-1.9,4.8-3.2c5.4-4.8,7-11.3,7.8-18.1c0.3-2.7-0.1-5.6,0.8-8.2
			c1.4-4.2,3.4-8.1,5.2-12.1c0.7-1.5,1.3-3,1.9-4.6c-0.6-0.2-0.8-0.3-0.9-0.3"/>
	</g>
	<g id="Mv3MGU.tif_4_">
		<g>
			<path fill="#28B24B" d="M-2280.8,482.8c-7.4,12.4-10.5,24.2-6.2,36.9c2.6,7.6,7.2,13.8,14.8,16.9c5.8,2.4,11.5,2.6,17.2-1.2
				c-19.1-16.7-24.9-25.7-21.4-32.3c0.2,0.1,0.6,0.1,0.7,0.2c0.4,0.3,0.7,0.7,1,1.2c9.8,13.9,22.5,23.9,38.4,29.8
				c2.3,0.8,2.6,2.1,2.6,4.4c-0.9,16.3,1.4,32.3,5.6,48.1c0.2,1,0.9,2.5,1.6,2.7c5.6,1.8,11.4,3.3,17.9,5.2c-1.7-5-3.1-8.8-4.2-12.5
				c-1.2-4-2.3-7.9-3.2-11.9c-0.2-1.2-0.3-3.1,0.3-3.9c2.4-2.8,5.1-5.3,7.9-8c1.2,1.3,2,2.1,2.7,3c8.5,9.7,17.9,11.7,28.9,4.9
				c5.6-3.5,10.5-8.2,15.2-12.9c6-6,12.5-10.6,21.1-11.9c0.7-0.1,1.5-0.7,2.3-1.2c-0.5-0.8-0.7-1.4-1.1-1.9
				c-12.9-18.1-37.6-25.9-58.4-18.4c-7,2.6-12.2,7.2-13.8,14.8c-0.5,2.3-0.1,4.8-0.2,7.1c2.1-0.7,4.3-1.2,6.3-2.1
				c9-4.5,17.9-9.2,28.3-9.4c4-0.1,8.1-0.3,12.5,3.1c-20.8,3.5-38.3,12.1-54,25.9c-0.5-3.5-1-5.9-1.2-8.3c-1.9-20-0.6-39.7,9.1-57.8
				c3.8-7.1,9.2-13.2,13.8-19.9c0.8-1.2,0.8-2.8,1.2-4.3c-1.5,0.2-3.2,0.1-4.5,0.7c-1.8,0.9-3.2,2.6-4.9,3.8
				c-4.3,3.3-8.5,6.7-12.9,10.1c-2.7-2.1-2.6-2.9,0.1-7.3c1.2-2,1.7-4.9,1.2-7.2c-0.6-2.6-2.3-5.2-4.2-7.2
				c-4.9-5.2-11.9-8.7-13.2-17.7c-5.4,4.8-8.5,9.7-9.8,15.6c-1.9,8.2-1.2,16.2,4.7,22.8c2.1,2.4,4.8,4.2,8.4,2
				c-1.9-3.8-4-7.3-5.2-11c-1.3-3.7-2-7.8-0.1-11.7c0.7,0.4,1,0.4,1.1,0.7c4.9,8.7,9.9,17.3,14.7,26.1c0.5,0.8,0.7,2.3,0.2,3.1
				c-6.6,10.9-10.6,22.8-12.9,35.3c-0.2,0.7-1.8,1.9-2.5,1.7c-2.9-0.9-5.7-2.1-8.8-3.5c1.6-3.1,3-5.7,4.1-8.3
				c2.3-5.4,1.6-8.9-3.2-12c-4.5-3-9.2-5.6-14.3-7.5C-2265.8,494.3-2275.1,492.7-2280.8,482.8z"/>
			<path fill="none" stroke="#28B24B" stroke-miterlimit="10" d="M-2280.8,482.8c5.6,9.9,15,11.5,23.7,14.8c5,1.8,9.8,4.5,14.3,7.5
				c4.9,3.2,5.5,6.7,3.2,12c-1.2,2.7-2.6,5.3-4.1,8.3c3.1,1.2,5.9,2.6,8.8,3.5c0.7,0.2,2.3-1,2.5-1.7c2.2-12.5,6.3-24.3,12.9-35.3
				c0.4-0.7,0.2-2.2-0.2-3.1c-4.9-8.7-9.8-17.4-14.7-26.1c-0.1-0.2-0.4-0.2-1.1-0.7c-1.9,4-1.2,8,0.1,11.7c1.3,3.7,3.4,7.2,5.2,11
				c-3.5,2.2-6.3,0.4-8.4-2c-5.9-6.7-6.6-14.6-4.7-22.8c1.3-5.9,4.4-10.8,9.8-15.6c1.3,9,8.2,12.5,13.2,17.7c1.9,2,3.6,4.6,4.2,7.2
				c0.5,2.2,0,5.2-1.2,7.2c-2.6,4.5-2.8,5.1-0.1,7.3c4.5-3.5,8.7-6.8,12.9-10.1c1.6-1.2,3.1-2.9,4.9-3.8c1.2-0.7,3-0.5,4.5-0.7
				c-0.4,1.4-0.4,3.1-1.2,4.3c-4.5,6.7-10,12.9-13.8,19.9c-9.7,18.1-11,37.8-9.1,57.8c0.2,2.4,0.7,4.8,1.2,8.3
				c15.8-13.9,33.2-22.4,54-25.9c-4.4-3.4-8.5-3.1-12.5-3.1c-10.4,0.2-19.3,4.9-28.3,9.4c-2,1-4.2,1.4-6.3,2.1
				c0-2.4-0.3-4.9,0.2-7.1c1.6-7.7,6.8-12.3,13.8-14.8c20.9-7.6,45.4,0.2,58.4,18.4c0.3,0.5,0.6,1.1,1.1,1.9
				c-0.9,0.5-1.6,1.1-2.3,1.2c-8.6,1.2-15.1,5.9-21.1,11.9c-4.7,4.7-9.6,9.5-15.2,12.9c-11,6.7-20.4,4.7-28.9-4.9
				c-0.7-0.8-1.6-1.6-2.7-3c-2.8,2.7-5.5,5.2-7.9,8c-0.7,0.8-0.7,2.6-0.3,3.9c0.9,4,2.1,8,3.2,11.9c1.2,3.8,2.5,7.5,4.2,12.5
				c-6.5-1.8-12.3-3.4-17.9-5.2c-0.7-0.2-1.4-1.7-1.6-2.7c-4.2-15.8-6.5-31.8-5.6-48.1c0.2-2.2-0.2-3.5-2.6-4.4
				c-15.9-5.9-28.6-16-38.4-29.8c-0.3-0.4-0.7-0.8-1-1.2c-0.2-0.2-0.5-0.2-0.7-0.2c-3.5,6.5,2.3,15.4,21.4,32.3
				c-5.7,3.7-11.5,3.5-17.2,1.2c-7.6-3.1-12.2-9.4-14.8-16.9C-2291.2,506.9-2288.2,495.2-2280.8,482.8z"/>
		</g>
	</g>
	<path fill="none" stroke="#189CD8" stroke-width="2" stroke-linecap="round" stroke-miterlimit="10" stroke-dasharray="2,12" d="
		M-2182.6,410.6"/>
	<path fill="none" stroke="#189CD8" stroke-width="2" stroke-linecap="round" stroke-miterlimit="10" stroke-dasharray="2,12" d="
		M-2206.7,438.1"/>
	
		<path fill="none" stroke="#189DD8" stroke-width="6" stroke-linecap="round" stroke-linejoin="round" stroke-miterlimit="10" stroke-dasharray="25,25" d="
		M-2216.7,408.5c22.6-91.6,71.9-114,71.9-114"/>
	
		<path fill="none" stroke="#189DD8" stroke-width="2" stroke-linecap="round" stroke-linejoin="round" stroke-miterlimit="10" stroke-dasharray="7,7" d="
		M-2184.6,445.6"/>
	
		<path fill="none" stroke="#189DD8" stroke-width="6" stroke-linecap="round" stroke-linejoin="round" stroke-miterlimit="10" stroke-dasharray="25,25" d="
		M-2198.1,435.4c22.6-91.6,71.9-114,71.9-114"/>
	<path fill="none" stroke="#189DD8" stroke-width="6" stroke-linecap="round" stroke-linejoin="round" stroke-miterlimit="10" d="
		M-2293.5,602.9c87-24.6,147.6,0.8,147.6,0.8"/>
	<g>
		
			<ellipse transform="matrix(0.8504 -0.5262 0.5262 0.8504 -472.9218 -1052.1465)" fill="#189DD8" cx="-2086.4" cy="305.4" rx="2.4" ry="4.8"/>
		
			<ellipse transform="matrix(0.8504 -0.5262 0.5262 0.8504 -462.7042 -1067.3024)" fill="#189DD8" cx="-2107.9" cy="279.9" rx="2.4" ry="4.8"/>
		
			<ellipse transform="matrix(0.8504 -0.5262 0.5262 0.8504 -452.6165 -1082.2762)" fill="#189DD8" cx="-2129.2" cy="254.7" rx="2.4" ry="4.8"/>
		
			<ellipse transform="matrix(0.8504 -0.5262 0.5262 0.8504 -462.8172 -1080.5475)" fill="#189DD8" cx="-2131.2" cy="273.5" rx="2.4" ry="4.8"/>
		
			<ellipse transform="matrix(0.8504 -0.5262 0.5262 0.8504 -451.9355 -1071.4158)" fill="#189DD8" cx="-2109.7" cy="258.9" rx="2.4" ry="4.8"/>
		
			<ellipse transform="matrix(0.874 -0.4859 0.4859 0.874 -400.7826 -977.2365)" fill="#189DD8" cx="-2084.8" cy="284.2" rx="2.4" ry="4.8"/>
		
			<ellipse transform="matrix(0.7969 -0.6042 0.6042 0.7969 -610.0497 -1212.3669)" fill="#189DD8" cx="-2107.9" cy="301" rx="2.4" ry="4.8"/>
	</g>
</g>
</svg>
