<?xml version="1.0" encoding="UTF-8" standalone="no"?>
<svg width="71px" height="82px" viewBox="0 0 71 82" version="1.1" xmlns="http://www.w3.org/2000/svg" xmlns:xlink="http://www.w3.org/1999/xlink">
    <!-- Generator: sketchtool 3.6 (26304) - http://www.bohemiancoding.com/sketch -->
    <title>icon-ring</title>
    <desc>Created with sketchtool.</desc>
    <defs></defs>
    <g id="Gonebusy-Developer-Portal" stroke="none" stroke-width="1" fill="none" fill-rule="evenodd">
        <g id="Home-Desktop-HD-1440" transform="translate(-1005.000000, -640.000000)" fill="#3399CC">
            <g id="ctas" transform="translate(0.000000, 580.000000)">
                <g id="row-cta-3" transform="translate(930.000000, 50.000000)">
                    <g id="icon-ring" transform="translate(74.000000, 10.000000)">
                        <g id="Group">
                            <path d="M65.3193077,27.3012692 C65.2830385,27.2287308 65.2515,27.1530385 65.2041923,27.0836538 C65.1600385,27.019 65.1064231,26.9669615 65.0575385,26.9070385 C62.6259231,23.3495 59.5525,20.2634615 56.006,17.8160769 C54.1121154,15.908 52.6061538,13.5662692 51.1506538,11.2955 C47.9463462,6.29980769 44.3162692,0.638653846 36.2692308,0.638653846 C28.2237692,0.638653846 24.5936923,6.29823077 21.3909615,11.2923462 C19.9386154,13.5599615 18.4326538,15.8985385 16.5450769,17.8050385 C12.9828077,20.2603077 9.89834615,23.3573846 7.46042308,26.9306923 C7.41942308,26.9811538 7.37211538,27.0268846 7.33584615,27.0820769 C7.29642308,27.142 7.26961538,27.2082308 7.23492308,27.2697308 C3.567,32.7889615 1.42080769,39.4041538 1.42080769,46.5129231 C1.42238462,65.7277308 17.0544231,81.3597692 36.2692308,81.3613462 C55.4824615,81.3597692 71.1160769,65.7277308 71.1160769,46.5145 C71.1160769,39.4167692 68.9777692,32.8141923 65.3193077,27.3012692 L65.3193077,27.3012692 Z M62.4918846,61.2729231 L52.0873462,54.2855769 C53.2479615,51.9359615 53.9165769,49.3040769 53.9165769,46.5113462 C53.9165769,43.7186154 53.2479615,41.0867308 52.0873462,38.7355385 L62.4903077,31.7513462 C64.9581923,36.1194231 66.3853077,41.1482308 66.3853077,46.5113462 C66.3853077,51.8744615 64.9581923,56.9064231 62.4918846,61.2729231 L62.4918846,61.2729231 Z M36.2692308,59.4310769 C32.8189231,59.4310769 29.5751923,58.0859615 27.1341154,55.6480385 C24.6946154,53.2085385 23.3526538,49.9648077 23.3526538,46.5145 C23.3526538,43.0626154 24.6961923,39.8173077 27.1341154,37.3778077 C29.5720385,34.9383077 32.8173462,33.5947692 36.2692308,33.5947692 C43.3906154,33.5947692 49.1858077,39.3915385 49.1858077,46.5145 C49.1858077,53.6358846 43.3921923,59.4310769 36.2692308,59.4310769 L36.2692308,59.4310769 Z M36.2676538,16.3936923 C41.6307692,16.3936923 46.6611538,17.8208077 51.0276538,20.2902692 L44.0418846,30.6916538 C41.6922692,29.5326154 39.0588077,28.8624231 36.2676538,28.8624231 C33.5206538,28.8624231 30.8777308,29.5026538 28.4855385,30.6806154 L21.5076538,20.2886923 C25.8757308,17.8208077 30.9061154,16.3936923 36.2676538,16.3936923 L36.2676538,16.3936923 Z M59.8458077,27.8326923 L49.4475769,34.8137308 C48.9823846,34.2917692 48.4888077,33.7966154 47.9668462,33.333 L54.9494615,22.9363462 C56.7629231,24.3776538 58.4045,26.0192308 59.8458077,27.8326923 L59.8458077,27.8326923 Z M36.2692308,5.36942308 C41.2743846,5.36942308 43.6287308,8.37976923 46.8093846,13.2981923 C43.4836538,12.2385 39.9418846,11.6629231 36.2692308,11.6629231 C32.5965769,11.6629231 29.0595385,12.2385 25.7322308,13.2950385 C28.9113077,8.37819231 31.2640769,5.36942308 36.2692308,5.36942308 L36.2692308,5.36942308 Z M17.589,22.9331923 L24.5668846,33.3251154 C24.3066923,33.5585 24.0386154,33.7824231 23.7894615,34.0315769 C23.5403077,34.2807308 23.3163846,34.5472308 23.0845769,34.809 L12.6926538,27.8295385 C14.1339615,26.0160769 15.7755385,24.3745 17.589,22.9331923 L17.589,22.9331923 Z M10.0465769,31.7513462 L20.4385,38.7308077 C19.2621154,41.1245769 18.6218846,43.7659231 18.6218846,46.5145 C18.6218846,49.2583462 19.2605385,51.9012692 20.4385,54.2934615 L10.045,61.2729231 C7.57711538,56.9064231 6.15157692,51.8776154 6.15157692,46.5160769 C6.15157692,41.1498077 7.58026923,36.1178462 10.0465769,31.7513462 L10.0465769,31.7513462 Z M12.6895,65.1931538 L23.0845769,58.2136923 C23.3163846,58.4738846 23.5403077,58.7419615 23.7894615,58.9911154 C24.0386154,59.2402692 24.3066923,59.4641923 24.5653077,59.6944231 L17.5858462,70.0895 C15.7723846,68.6481923 14.1308077,67.0066154 12.6895,65.1931538 L12.6895,65.1931538 Z M21.5076538,72.734 L28.4871154,62.3405 C30.8824615,63.5200385 33.5238077,64.1602692 36.2708077,64.1602692 C39.0635385,64.1602692 41.6938462,63.4916538 44.0450385,62.3326154 L51.0308077,72.7355769 C46.6627308,75.2018846 41.6339231,76.6305769 36.2723846,76.6305769 C30.9045385,76.6305769 25.8741538,75.2018846 21.5076538,72.734 L21.5076538,72.734 Z M54.9494615,70.0910769 L47.9652692,59.6912692 C48.4872308,59.2260769 48.9839615,58.7340769 49.446,58.2105385 L59.8458077,65.1963077 C58.4045,67.0097692 56.7629231,68.6497692 54.9494615,70.0910769 L54.9494615,70.0910769 Z" id="Shape"></path>
                        </g>
                    </g>
                </g>
            </g>
        </g>
    </g>
</svg>