<?xml version="1.0" encoding="UTF-8" standalone="no"?>
<svg width="69px" height="98px" viewBox="0 0 69 98" version="1.1" xmlns="http://www.w3.org/2000/svg" xmlns:xlink="http://www.w3.org/1999/xlink">
    <!-- Generator: sketchtool 3.6 (26304) - http://www.bohemiancoding.com/sketch -->
    <title>icon-rocket</title>
    <desc>Created with sketchtool.</desc>
    <defs></defs>
    <g id="Gonebusy-Developer-Portal" stroke="none" stroke-width="1" fill="none" fill-rule="evenodd">
        <g id="Home-Desktop-HD-1440" transform="translate(-366.000000, -631.000000)" fill="#3399CC">
            <g id="ctas" transform="translate(0.000000, 580.000000)">
                <g id="row-cta-1" transform="translate(290.000000, 50.000000)">
                    <g id="icon-rocket" transform="translate(76.000000, 1.000000)">
                        <g id="Group">
                            <path d="M41.9352941,72.2779412 L41.5529412,72.3029412 C36.9647059,72.9 32.2691176,72.9 27.6720588,72.3029412 L27.2911765,72.2779412 C26.3161765,72.2779412 24.5588235,72.7426471 23.7441176,75.8617647 C22.3602941,81.1691176 23.7323529,91.5882353 33.3161765,96.9573529 L34.6161765,97.6852941 L35.9161765,96.9573529 C45.4970588,91.5911765 46.8705882,81.1720588 45.4852941,75.8647059 C44.6705882,72.7441176 42.9102941,72.2779412 41.9352941,72.2779412 L41.9352941,72.2779412 Z M34.6161765,91.5029412 C28.6161765,87.3147059 28.3029412,80.5205882 28.7602941,77.7794118 C32.6544118,78.1647059 36.5808824,78.1647059 40.4705882,77.7794118 C40.9279412,80.5220588 40.6161765,87.3147059 34.6161765,91.5029412 L34.6161765,91.5029412 Z M34.6132353,21.7470588 C27.4352941,21.7470588 21.5955882,27.5867647 21.5955882,34.7661765 C21.5955882,41.9426471 27.4352941,47.7823529 34.6132353,47.7823529 C41.7911765,47.7823529 47.6323529,41.9426471 47.6323529,34.7661765 C47.6308824,27.5852941 41.7911765,21.7470588 34.6132353,21.7470588 L34.6132353,21.7470588 Z M34.6132353,42.4632353 C30.3676471,42.4632353 26.9132353,39.0088235 26.9132353,34.7661765 C26.9132353,30.5191176 30.3691176,27.0661765 34.6132353,27.0661765 C38.8573529,27.0661765 42.3132353,30.5205882 42.3132353,34.7661765 C42.3132353,39.0088235 38.8588235,42.4632353 34.6132353,42.4632353 L34.6132353,42.4632353 Z M32.0102941,32.1691176 C31.3338235,32.8455882 30.9367647,33.8014706 30.9367647,34.7588235 C30.9367647,35.7279412 31.3352941,36.6852941 32.0102941,37.3617647 C32.7014706,38.0529412 33.6411765,38.45 34.6132353,38.45 C35.5852941,38.45 36.5264706,38.0514706 37.2176471,37.3617647 C37.8941176,36.6852941 38.2897059,35.7294118 38.2897059,34.7588235 C38.2897059,33.8029412 37.8926471,32.8455882 37.2176471,32.1691176 C35.8485294,30.7852941 33.3779412,30.8014706 32.0102941,32.1691176 L32.0102941,32.1691176 Z M67.6367647,49.8926471 C66.3941176,45.5088235 63.2794118,42.1161765 58.7720588,40.1735294 C58.7970588,39.5808824 58.8102941,38.9970588 58.8102941,38.425 C58.8102941,22.4764706 50.0088235,7.98970588 35.8411765,0.616176471 C35.0720588,0.217647059 34.1558824,0.217647059 33.3852941,0.616176471 C19.2176471,7.98970588 10.4176471,22.4764706 10.4176471,38.425 C10.4176471,38.975 10.4294118,39.5352941 10.4514706,40.1014706 C5.33382353,42.0867647 1.92794118,45.7544118 0.770588235,50.6 C-1.15735294,58.6705882 3.32058824,68.3926471 13.0558824,77.2735294 C13.9955882,78.1323529 15.4147059,78.2029412 16.4367647,77.4397059 C17.4735294,76.6661765 22.2382353,72.9647059 24.9852941,68.3485294 C32.0191176,69.6147059 39.0941176,69.5073529 46.3102941,67.9338235 C46.5397059,68.2573529 46.8661765,68.8544118 47.1176471,69.3147059 C48.2955882,71.4676471 50.0735294,74.7205882 54.3985294,77.5367647 C54.8441176,77.8264706 55.3485294,77.9661765 55.8470588,77.9661765 C56.5941176,77.9661765 57.3323529,77.6529412 57.8529412,77.0544118 C66.2352941,67.4338235 69.8,57.5352941 67.6367647,49.8926471 L67.6367647,49.8926471 Z M55.4294118,71.6573529 C53.5397059,69.9720588 52.5852941,68.2294118 51.7838235,66.7632353 C50.7617647,64.8926471 49.4867647,62.5632353 46.5470588,62.5632353 C46.0485294,62.5632353 45.5205882,62.6397059 45.1117647,62.7544118 C38.1926471,64.2676471 31.0485294,64.2691176 24.1102941,62.7529412 C22.8632353,62.4779412 21.6058824,63.1294118 21.1029412,64.2970588 C20.025,66.7911765 17.4838235,69.6235294 14.9911765,71.7779412 C7.96470588,64.8029412 4.6,57.4558824 5.94117647,51.8352941 C6.58529412,49.1397059 8.34264706,47.0455882 11.0588235,45.6588235 C11.9970588,50.5426471 13.7823529,53.9044118 13.8735294,54.0764706 C14.3529412,54.9676471 15.2691176,55.475 16.2176471,55.475 C16.6426471,55.475 17.0735294,55.3720588 17.475,55.1558824 C18.7676471,54.4588235 19.2514706,52.8470588 18.5544118,51.5544118 C18.5308824,51.5147059 16.3323529,47.3735294 15.8867647,41.7838235 C15.8867647,41.7794118 15.8852941,41.775 15.8852941,41.7720588 L15.8852941,41.7573529 C15.7838235,40.6176471 15.7323529,39.4955882 15.7323529,38.4235294 C15.7323529,24.9338235 22.9323529,12.6352941 34.6117647,6 C46.2911765,12.6352941 53.4897059,24.9338235 53.4897059,38.4235294 C53.4897059,39.4955882 53.4382353,40.6161765 53.3367647,41.7573529 C53.3338235,41.7838235 53.3382353,41.8073529 53.3367647,41.8323529 C52.8867647,47.3279412 50.7014706,51.5014706 50.6705882,51.5588235 C49.9779412,52.8514706 50.4617647,54.4602941 51.7529412,55.1544118 C52.1544118,55.3691176 52.5852941,55.4735294 53.0102941,55.4735294 C53.9588235,55.4735294 54.875,54.9661765 55.3544118,54.075 C55.4455882,53.9073529 57.1970588,50.6102941 58.1426471,45.8029412 C60.3705882,47.1117647 61.8441176,48.9617647 62.5161765,51.3426471 C64.0323529,56.6852941 61.3926471,64.1617647 55.4294118,71.6573529 L55.4294118,71.6573529 Z" id="Shape"></path>
                        </g>
                    </g>
                </g>
            </g>
        </g>
    </g>
</svg>