<?xml version="1.0" encoding="UTF-8" standalone="no"?>
<svg width="100px" height="100px" viewBox="0 0 100 100" version="1.1" xmlns="http://www.w3.org/2000/svg" xmlns:xlink="http://www.w3.org/1999/xlink">
    <!-- Generator: sketchtool 3.6 (26304) - http://www.bohemiancoding.com/sketch -->
    <title>logo-ruby</title>
    <desc>Created with sketchtool.</desc>
    <defs>
        <linearGradient x1="84.7503645%" y1="111.399353%" x2="58.2543962%" y2="64.5837087%" id="linearGradient-1">
            <stop stop-color="#FB7655" offset="0%"></stop>
            <stop stop-color="#FB7655" offset="0%"></stop>
            <stop stop-color="#E42B1E" offset="41%"></stop>
            <stop stop-color="#990000" offset="99%"></stop>
            <stop stop-color="#990000" offset="100%"></stop>
        </linearGradient>
        <linearGradient x1="116.651024%" y1="60.8903211%" x2="1.74616041%" y2="19.2879503%" id="linearGradient-2">
            <stop stop-color="#871101" offset="0%"></stop>
            <stop stop-color="#871101" offset="0%"></stop>
            <stop stop-color="#911209" offset="99%"></stop>
            <stop stop-color="#911209" offset="100%"></stop>
        </linearGradient>
        <linearGradient x1="75.7744024%" y1="219.327131%" x2="38.9781357%" y2="7.82868176%" id="linearGradient-3">
            <stop stop-color="#871101" offset="0%"></stop>
            <stop stop-color="#871101" offset="0%"></stop>
            <stop stop-color="#911209" offset="99%"></stop>
            <stop stop-color="#911209" offset="100%"></stop>
        </linearGradient>
        <linearGradient x1="50.012428%" y1="7.23449921%" x2="66.4830414%" y2="79.1354134%" id="linearGradient-4">
            <stop stop-color="#FFFFFF" offset="0%"></stop>
            <stop stop-color="#FFFFFF" offset="0%"></stop>
            <stop stop-color="#E57252" offset="23%"></stop>
            <stop stop-color="#DE3B20" offset="46%"></stop>
            <stop stop-color="#A60003" offset="99%"></stop>
            <stop stop-color="#A60003" offset="100%"></stop>
        </linearGradient>
        <linearGradient x1="46.1741749%" y1="16.347907%" x2="49.9323342%" y2="83.0468449%" id="linearGradient-5">
            <stop stop-color="#FFFFFF" offset="0%"></stop>
            <stop stop-color="#FFFFFF" offset="0%"></stop>
            <stop stop-color="#E4714E" offset="23%"></stop>
            <stop stop-color="#BE1A0D" offset="56%"></stop>
            <stop stop-color="#A80D00" offset="99%"></stop>
            <stop stop-color="#A80D00" offset="100%"></stop>
        </linearGradient>
        <linearGradient x1="36.9653573%" y1="15.5936471%" x2="49.5282324%" y2="92.4776332%" id="linearGradient-6">
            <stop stop-color="#FFFFFF" offset="0%"></stop>
            <stop stop-color="#FFFFFF" offset="0%"></stop>
            <stop stop-color="#E46342" offset="18%"></stop>
            <stop stop-color="#C82410" offset="40%"></stop>
            <stop stop-color="#A80D00" offset="99%"></stop>
            <stop stop-color="#A80D00" offset="100%"></stop>
        </linearGradient>
        <linearGradient x1="13.6086166%" y1="58.3456855%" x2="85.7636612%" y2="-46.7167814%" id="linearGradient-7">
            <stop stop-color="#FFFFFF" offset="0%"></stop>
            <stop stop-color="#FFFFFF" offset="0%"></stop>
            <stop stop-color="#C81F11" offset="54%"></stop>
            <stop stop-color="#BF0905" offset="99%"></stop>
            <stop stop-color="#BF0905" offset="100%"></stop>
        </linearGradient>
        <linearGradient x1="27.6242038%" y1="21.1345847%" x2="50.7445145%" y2="79.0557818%" id="linearGradient-8">
            <stop stop-color="#FFFFFF" offset="0%"></stop>
            <stop stop-color="#FFFFFF" offset="0%"></stop>
            <stop stop-color="#DE4024" offset="31%"></stop>
            <stop stop-color="#BF190B" offset="99%"></stop>
            <stop stop-color="#BF190B" offset="100%"></stop>
        </linearGradient>
        <linearGradient x1="-20.6671297%" y1="122.281897%" x2="104.241521%" y2="-6.34211007%" id="linearGradient-9">
            <stop stop-color="#BD0012" offset="0%"></stop>
            <stop stop-color="#BD0012" offset="0%"></stop>
            <stop stop-color="#FFFFFF" offset="7%"></stop>
            <stop stop-color="#FFFFFF" offset="17%"></stop>
            <stop stop-color="#C82F1C" offset="27%"></stop>
            <stop stop-color="#820C01" offset="33%"></stop>
            <stop stop-color="#A31601" offset="46%"></stop>
            <stop stop-color="#B31301" offset="72%"></stop>
            <stop stop-color="#E82609" offset="99%"></stop>
            <stop stop-color="#E82609" offset="100%"></stop>
        </linearGradient>
        <linearGradient x1="58.7919609%" y1="65.2049657%" x2="11.9636556%" y2="50.1275621%" id="linearGradient-10">
            <stop stop-color="#8C0C01" offset="0%"></stop>
            <stop stop-color="#8C0C01" offset="0%"></stop>
            <stop stop-color="#990C00" offset="54%"></stop>
            <stop stop-color="#A80D0E" offset="99%"></stop>
            <stop stop-color="#A80D0E" offset="100%"></stop>
        </linearGradient>
        <linearGradient x1="79.3194899%" y1="62.7538068%" x2="23.088288%" y2="17.8876818%" id="linearGradient-11">
            <stop stop-color="#7E110B" offset="0%"></stop>
            <stop stop-color="#7E110B" offset="0%"></stop>
            <stop stop-color="#9E0C00" offset="99%"></stop>
            <stop stop-color="#9E0C00" offset="100%"></stop>
        </linearGradient>
        <linearGradient x1="92.8800277%" y1="74.1223655%" x2="59.8414537%" y2="39.7039965%" id="linearGradient-12">
            <stop stop-color="#79130D" offset="0%"></stop>
            <stop stop-color="#79130D" offset="0%"></stop>
            <stop stop-color="#9E120B" offset="99%"></stop>
            <stop stop-color="#9E120B" offset="100%"></stop>
        </linearGradient>
        <radialGradient cx="32.0008013%" cy="40.2100469%" fx="32.0008013%" fy="40.2100469%" r="69.5729556%" id="radialGradient-13">
            <stop stop-color="#A80D00" offset="0%"></stop>
            <stop stop-color="#A80D00" offset="0%"></stop>
            <stop stop-color="#7E0E08" offset="99%"></stop>
            <stop stop-color="#7E0E08" offset="100%"></stop>
        </radialGradient>
        <radialGradient cx="13.5493795%" cy="40.859922%" fx="13.5493795%" fy="40.859922%" r="88.3861936%" id="radialGradient-14">
            <stop stop-color="#A30C00" offset="0%"></stop>
            <stop stop-color="#A30C00" offset="0%"></stop>
            <stop stop-color="#800E08" offset="99%"></stop>
            <stop stop-color="#800E08" offset="100%"></stop>
        </radialGradient>
        <linearGradient x1="56.5701955%" y1="101.716594%" x2="3.10480737%" y2="11.9932603%" id="linearGradient-15">
            <stop stop-color="#8B2114" offset="0%"></stop>
            <stop stop-color="#8B2114" offset="0%"></stop>
            <stop stop-color="#9E100A" offset="43%"></stop>
            <stop stop-color="#B3100C" offset="99%"></stop>
            <stop stop-color="#B3100C" offset="100%"></stop>
        </linearGradient>
        <linearGradient x1="30.8698732%" y1="35.5989756%" x2="92.4707626%" y2="100.693616%" id="linearGradient-16">
            <stop stop-color="#B31000" offset="0%"></stop>
            <stop stop-color="#B31000" offset="0%"></stop>
            <stop stop-color="#910F08" offset="44%"></stop>
            <stop stop-color="#791C12" offset="99%"></stop>
            <stop stop-color="#791C12" offset="100%"></stop>
        </linearGradient>
    </defs>
    <g id="Gonebusy-Developer-Portal" stroke="none" stroke-width="1" fill="none" fill-rule="evenodd">
        <g id="Libraries-Desktop-HD-1440" transform="translate(-220.000000, -843.000000)">
            <g id="logo-ruby" transform="translate(220.000000, 843.000000)">
                <g id="Layer_1">
                    <path d="M77.1356784,65.5326633 L20.2914573,99.2864322 L93.8939698,94.2919598 L99.5628141,20.0753769 L77.1356784,65.5326633 Z" id="polygon3282" fill="url(#linearGradient-1)"></path>
                    <path d="M94.0145729,94.241206 L87.6884422,50.5778894 L70.4567839,73.3316583 L94.0145729,94.241206 Z" id="polygon3293" fill="url(#linearGradient-2)"></path>
                    <path d="M94.1,94.241206 L47.7537688,90.6030151 L20.5376884,99.1914573 L94.1,94.241206 Z" id="polygon3304" fill="url(#linearGradient-3)"></path>
                    <path d="M20.6030151,99.201005 L32.1809045,61.2713568 L6.70351759,66.7190955 L20.6030151,99.201005 Z" id="polygon3319" fill="url(#linearGradient-4)"></path>
                    <path d="M70.4522613,73.4572864 L59.798995,31.7286432 L29.3115578,60.3065327 L70.4522613,73.4572864 Z" id="polygon3334" fill="url(#linearGradient-5)"></path>
                    <path d="M97.1457286,32.3165829 L68.3266332,8.77889447 L60.3015075,34.7236181 L97.1457286,32.3165829 Z" id="polygon3349" fill="url(#linearGradient-6)"></path>
                    <path d="M83.6683417,0.386934673 L66.718593,9.75376884 L56.0251256,0.261306533 L83.6683417,0.386934673 Z" id="polygon3362" fill="url(#linearGradient-7)"></path>
                    <path d="M0,79.4422111 L7.10050251,66.4924623 L1.35678392,51.0653266 L0,79.4422111 Z" id="polygon3375" fill="url(#linearGradient-8)"></path>
                    <path d="M0.974874372,50.5778894 L6.75376884,66.9698492 L31.8643216,61.3361809 L60.5326633,34.6929648 L68.6231156,8.99497487 L55.8839196,0 L34.2256281,8.10552764 C27.4020101,14.4522613 14.160804,27.0100503 13.6834171,27.2462312 C13.2110553,27.4874372 4.93969849,43.120603 0.974874372,50.5778894 L0.974874372,50.5778894 Z" id="path3377" fill="#FFFFFF"></path>
                    <path d="M21.2663317,21.1306533 C36.0552764,6.46733668 55.120603,-2.1959799 62.4371859,5.18592965 C69.7492462,12.5678392 61.9949749,30.5075377 47.2060302,45.1658291 C32.4170854,59.8241206 13.5879397,68.9648241 6.27638191,61.5829146 C-1.04020101,54.2060302 6.47738693,35.7889447 21.2663317,21.1306533 L21.2663317,21.1306533 Z" id="path3400" fill="url(#linearGradient-9)"></path>
                    <path d="M20.6030151,99.1859296 L32.0904523,61.1356784 L70.241206,73.3919598 C56.4472362,86.3266332 41.1055276,97.2613065 20.6030151,99.1859296 L20.6030151,99.1859296 Z" id="path3413" fill="url(#linearGradient-10)"></path>
                    <path d="M60.5829146,34.6180905 L70.3768844,73.4120603 C81.8994975,61.2964824 92.241206,48.2713568 97.3060302,32.160804 L60.5829146,34.6180905 L60.5829146,34.6180905 Z" id="path3424" fill="url(#linearGradient-11)"></path>
                    <path d="M97.2060302,32.3567839 C101.125628,20.5276382 102.030151,3.55778894 83.5472362,0.407035176 L68.381407,8.7839196 L97.2060302,32.3567839 L97.2060302,32.3567839 Z" id="path3435" fill="url(#linearGradient-12)"></path>
                    <path d="M0,79.2713568 C0.542713568,98.7944724 14.6281407,99.0854271 20.6281407,99.2567839 L6.76884422,66.8894472 L0,79.2713568 L0,79.2713568 Z" id="path3437" fill="#9E1209"></path>
                    <path d="M60.6376884,34.678392 C69.4919598,40.120603 87.3366834,51.0502513 87.6984925,51.2512563 C88.260804,51.5678392 95.3919598,39.2261307 97.0100503,32.2512563 L60.6376884,34.678392 L60.6376884,34.678392 Z" id="path3448" fill="url(#radialGradient-13)"></path>
                    <path d="M32.0753769,61.1356784 L47.4321608,90.7638191 C56.5125628,85.839196 63.6231156,79.839196 70.1356784,73.4120603 L32.0753769,61.1356784 L32.0753769,61.1356784 Z" id="path3459" fill="url(#radialGradient-14)"></path>
                    <path d="M6.70854271,66.9296482 L4.53266332,92.839196 C8.63819095,98.4472362 14.2864322,98.9346734 20.2110553,98.4974874 C15.9246231,87.8291457 7.36180905,66.4974874 6.70854271,66.9296482 L6.70854271,66.9296482 Z" id="path3472" fill="url(#linearGradient-15)"></path>
                    <path d="M68.2914573,8.84924623 L98.798995,13.1306533 C97.1708543,6.23115578 92.1708543,1.77889447 83.6482412,0.386934673 L68.2914573,8.84924623 L68.2914573,8.84924623 Z" id="path3485" fill="url(#linearGradient-16)"></path>
                </g>
            </g>
        </g>
    </g>
</svg>