<svg id="Layer_1" data-name="Layer 1" xmlns="http://www.w3.org/2000/svg" xmlns:xlink="http://www.w3.org/1999/xlink" viewBox="0 0 100 100"><defs><style>.cls-1,.cls-5{fill:url(#linear-gradient);}.cls-1{clip-rule:evenodd;}.cls-2,.cls-4{fill:#699f63;}.cls-3{fill:#333;}.cls-3,.cls-4,.cls-5{fill-rule:evenodd;}.cls-6{clip-path:url(#clip-path);}.cls-7{fill:none;}.cls-8{fill:url(#linear-gradient-3);}.cls-9{fill:url(#linear-gradient-4);}.cls-10{fill:url(#linear-gradient-5);}.cls-11{fill:url(#linear-gradient-6);}.cls-12{fill:url(#linear-gradient-7);}.cls-13{fill:url(#linear-gradient-8);}</style><linearGradient id="linear-gradient" x1="41.15" y1="38.12" x2="32.89" y2="54.97" gradientUnits="userSpaceOnUse"><stop offset="0" stop-color="#41873f"/><stop offset="0.33" stop-color="#418b3d"/><stop offset="0.64" stop-color="#409637"/><stop offset="0.93" stop-color="#3fa92d"/><stop offset="1" stop-color="#3fae2a"/></linearGradient><clipPath id="clip-path"><path id="_Clipping_Path_" data-name="&lt;Clipping Path&gt;" class="cls-1" d="M38,34.19a1.1,1.1,0,0,0-1.1,0l-9.14,5.28a1.1,1.1,0,0,0-.55,1V51a1.11,1.11,0,0,0,.55,1l9.14,5.28a1.11,1.11,0,0,0,1.1,0l9.14-5.28a1.11,1.11,0,0,0,.55-1V40.42a1.1,1.1,0,0,0-.55-1Z"/></clipPath><linearGradient id="linear-gradient-3" x1="36.04" y1="46.93" x2="59.22" y2="29.81" gradientUnits="userSpaceOnUse"><stop offset="0.14" stop-color="#41873f"/><stop offset="0.4" stop-color="#54a044"/><stop offset="0.71" stop-color="#66b748"/><stop offset="0.91" stop-color="#6cc04a"/></linearGradient><linearGradient id="linear-gradient-4" x1="26.86" y1="32.28" x2="48" y2="32.28" gradientUnits="userSpaceOnUse"><stop offset="0.09" stop-color="#6cc04a"/><stop offset="0.29" stop-color="#66b748"/><stop offset="0.6" stop-color="#54a044"/><stop offset="0.86" stop-color="#41873f"/></linearGradient><linearGradient id="linear-gradient-5" x1="26.86" y1="45.7" x2="48" y2="45.7" xlink:href="#linear-gradient-4"/><linearGradient id="linear-gradient-6" x1="26.86" y1="51.73" x2="48" y2="51.73" xlink:href="#linear-gradient-4"/><linearGradient id="linear-gradient-7" x1="26.8" y1="54.46" x2="48.06" y2="54.46" xlink:href="#linear-gradient-4"/><linearGradient id="linear-gradient-8" x1="51.11" y1="37.62" x2="38.07" y2="64.21" xlink:href="#linear-gradient"/></defs><title>Artboard 1</title><path class="cls-2" d="M49.45,79.4a1.82,1.82,0,0,1-.91-.24l-2.89-1.71c-.43-.24-.22-.33-.08-.38a5.77,5.77,0,0,0,1.31-.6.22.22,0,0,1,.22,0l2.22,1.32a.29.29,0,0,0,.27,0l8.67-5a.27.27,0,0,0,.13-.23v-10a.28.28,0,0,0-.13-.24l-8.67-5a.27.27,0,0,0-.27,0l-8.66,5a.28.28,0,0,0-.14.24v10a.27.27,0,0,0,.14.23L43,74.17c1.29.64,2.08-.11,2.08-.88V63.42a.25.25,0,0,1,.25-.25h1.1a.25.25,0,0,1,.25.25v9.88A2.4,2.4,0,0,1,44.14,76a3.71,3.71,0,0,1-2-.54l-2.27-1.31A1.83,1.83,0,0,1,39,72.57v-10A1.83,1.83,0,0,1,39.87,61l8.67-5a1.9,1.9,0,0,1,1.82,0L59,61a1.83,1.83,0,0,1,.91,1.58v10A1.84,1.84,0,0,1,59,74.15l-8.67,5A1.82,1.82,0,0,1,49.45,79.4Z"/><path class="cls-2" d="M52.13,72.5c-3.79,0-4.59-1.74-4.59-3.2a.25.25,0,0,1,.25-.25h1.12a.25.25,0,0,1,.25.21c.17,1.14.67,1.72,3,1.72,1.83,0,2.6-.41,2.6-1.38,0-.56-.22-1-3.06-1.25-2.37-.23-3.84-.76-3.84-2.66s1.47-2.79,3.95-2.79c2.78,0,4.15,1,4.33,3a.25.25,0,0,1-.25.27H54.73a.25.25,0,0,1-.24-.2c-.27-1.2-.93-1.58-2.71-1.58-2,0-2.23.69-2.23,1.22s.27.81,3,1.17,3.93.85,3.93,2.72S54.87,72.5,52.13,72.5Z"/><path class="cls-2" d="M64.63,62A1.67,1.67,0,1,1,63,60.34,1.68,1.68,0,0,1,64.63,62Zm-3.07,0a1.4,1.4,0,1,0,1.4-1.4A1.4,1.4,0,0,0,61.56,62Zm.77-.93H63c.22,0,.65,0,.65.5a.43.43,0,0,1-.35.46c.26,0,.27.19.31.42a1.85,1.85,0,0,0,.1.49h-.4c0-.09-.07-.57-.07-.59s-.06-.16-.19-.16h-.33v.75h-.36Zm.35.82H63a.25.25,0,0,0,.28-.26c0-.26-.18-.26-.27-.26h-.3Z"/><path class="cls-3" d="M22.6,40.25a1.11,1.11,0,0,0-.56-1L12.86,34a1.08,1.08,0,0,0-.51-.15h-.1a1.1,1.1,0,0,0-.51.15L2.56,39.29a1.11,1.11,0,0,0-.56,1L2,54.5A.55.55,0,0,0,2.3,55a.53.53,0,0,0,.55,0l5.46-3.13a1.12,1.12,0,0,0,.56-1V44.23a1.11,1.11,0,0,1,.55-1l2.33-1.34a1.1,1.1,0,0,1,.56-.15,1.09,1.09,0,0,1,.55.15l2.33,1.34a1.11,1.11,0,0,1,.56,1v6.65a1.12,1.12,0,0,0,.56,1L21.75,55a.54.54,0,0,0,.56,0,.55.55,0,0,0,.28-.48Z"/><path class="cls-3" d="M66.83,20.67a.56.56,0,0,0-.83.48V35.26a.39.39,0,0,1-.58.34l-2.3-1.33a1.11,1.11,0,0,0-1.11,0l-9.2,5.31a1.11,1.11,0,0,0-.56,1V51.16a1.11,1.11,0,0,0,.56,1L62,57.43a1.11,1.11,0,0,0,1.11,0l9.2-5.31a1.11,1.11,0,0,0,.56-1V24.7a1.11,1.11,0,0,0-.57-1Zm-.85,27a.28.28,0,0,1-.14.24l-3.16,1.82a.28.28,0,0,1-.28,0l-3.16-1.82a.28.28,0,0,1-.14-.24V44a.28.28,0,0,1,.14-.24L62.4,42a.28.28,0,0,1,.28,0l3.16,1.82A.28.28,0,0,1,66,44Z"/><path class="cls-3" d="M97.45,43.93A1.11,1.11,0,0,0,98,43V40.4a1.11,1.11,0,0,0-.55-1l-9.14-5.3a1.11,1.11,0,0,0-1.11,0L78,39.44a1.11,1.11,0,0,0-.56,1V51A1.11,1.11,0,0,0,78,52l9.13,5.21a1.11,1.11,0,0,0,1.09,0l5.53-3.07a.56.56,0,0,0,0-1l-9.25-5.31a.56.56,0,0,1-.28-.48V44a.55.55,0,0,1,.28-.48l2.88-1.66a.55.55,0,0,1,.55,0l2.88,1.66a.55.55,0,0,1,.28.48v2.62a.56.56,0,0,0,.83.48Z"/><path class="cls-4" d="M87.62,43.43a.21.21,0,0,1,.21,0l1.76,1a.21.21,0,0,1,.11.18v2a.21.21,0,0,1-.11.18l-1.76,1a.21.21,0,0,1-.21,0l-1.76-1a.21.21,0,0,1-.11-.18v-2a.21.21,0,0,1,.11-.18Z"/><path id="_Clipping_Path_2" data-name="&lt;Clipping Path&gt;" class="cls-5" d="M38,34.19a1.1,1.1,0,0,0-1.1,0l-9.14,5.28a1.1,1.1,0,0,0-.55,1V51a1.11,1.11,0,0,0,.55,1l9.14,5.28a1.11,1.11,0,0,0,1.1,0l9.14-5.28a1.11,1.11,0,0,0,.55-1V40.42a1.1,1.1,0,0,0-.55-1Z"/><g class="cls-6"><path class="cls-7" d="M36.86,34.19l-8.72,5.28c-.34.2-.14.56-.14,1V51c0,.26-.33.51-.16.7L37.91,34.07A1.77,1.77,0,0,0,36.86,34.19Z"/><path class="cls-7" d="M37.74,57.32a1.1,1.1,0,0,0,.26-.11l9.29-5.28A1.28,1.28,0,0,0,48,51V40.42a1.27,1.27,0,0,0-.47-.77Z"/><path class="cls-8" d="M47.14,39.46,38,34.19a1.1,1.1,0,0,0-.29-.11L27.39,51.68a1.26,1.26,0,0,0,.31.25l9.18,5.28a1.12,1.12,0,0,0,.85.11l9.65-17.67A1.2,1.2,0,0,0,47.14,39.46Z"/><path class="cls-7" d="M48,51V40.42a1.29,1.29,0,0,0-.72-1L38,34.19a1.31,1.31,0,0,0-.37-.12L47.84,51.23C47.87,51.15,48,51.07,48,51Z"/><path class="cls-7" d="M28.14,39.46c-.34.2-.14.56-.14,1V51c0,.39-.19.76.15,1l9,5.28a.81.81,0,0,0,.6.14L28,39.43Z"/><polygon class="cls-9" points="36.58 32.25 36.45 32.32 36.62 32.32 36.58 32.25"/><path class="cls-10" d="M47.15,51.94a1.16,1.16,0,0,0,.54-.7L37.64,34.06a1.12,1.12,0,0,0-.78.12l-9.11,5.24,9.84,17.92a1.11,1.11,0,0,0,.4-.14Z"/><polygon class="cls-11" points="48 51.77 47.94 51.66 47.94 51.8 48 51.77"/><path class="cls-12" d="M47.15,51.94,38,57.22a1.11,1.11,0,0,1-.4.14l.21.33L48,51.8v-.14l-.28-.43A1.2,1.2,0,0,1,47.15,51.94Z"/><path class="cls-13" d="M47.15,51.94,38,57.22a1.11,1.11,0,0,1-.4.14l.21.33L48,51.8v-.14l-.28-.43A1.2,1.2,0,0,1,47.15,51.94Z"/></g></svg>